<svg width="22" height="12" viewBox="0 0 22 12" fill="none" xmlns="http://www.w3.org/2000/svg">
<path d="M21.0042 5.5687L21.0038 5.5683L16.4632 1.02771C16.23 0.762023 15.8258 0.732586 15.5565 0.963269C15.2852 1.19562 15.2535 1.60397 15.486 1.87531L15.486 1.87536C15.5058 1.89843 15.5273 1.92026 15.5504 1.94055L18.9858 5.38014H1.45452C1.09729 5.38014 0.807692 5.66976 0.807692 6.02701C0.807692 6.38427 1.09731 6.67384 1.45452 6.67384H18.9854L15.5504 10.1088C15.2847 10.3421 15.2553 10.7463 15.486 11.0156C15.7183 11.2869 16.1266 11.3186 16.398 11.0861L16.398 11.0861C16.4211 11.0663 16.443 11.0448 16.4633 11.0217L21.0038 6.48111L21.0042 6.48072C21.255 6.22846 21.255 5.82099 21.0042 5.5687Z" fill="#707070" stroke="#707070" stroke-width="0.384615"/>
</svg>
