<svg width="95" height="125" viewBox="0 0 95 125" fill="none" xmlns="http://www.w3.org/2000/svg">
<g filter="url(#filter0_d_714_1005)">
<g filter="url(#filter1_d_714_1005)">
<path d="M83.6621 44.4527L26.0675 10.9824L20.6484 14.1111L78.243 47.5814L83.6621 44.4527Z" fill="#5D7280"/>
<path d="M90.0546 33.5171L32.4601 0.0468751L26.0478 3.74907L83.6423 37.2196L90.0546 33.5171Z" fill="#5D7280"/>
<path d="M83.6418 37.2205L26.0472 3.75L26.0675 10.9831L83.662 44.4533L83.6418 37.2205Z" fill="#D8D8D8"/>
<path d="M71.8144 51.2925L14.2199 17.8223L8.80052 20.951L66.3948 54.4215L71.8144 51.2925Z" fill="#5D7280"/>
<path d="M71.7938 44.0584L14.1993 10.5879L14.2198 17.8209L71.8144 51.2912L71.7938 44.0584Z" fill="#D8D8D8"/>
<path d="M78.2226 40.3491L20.6284 6.87891L14.1991 10.5907L71.7936 44.0612L78.2226 40.3491Z" fill="#5D7280"/>
<path d="M59.9804 58.1248L2.38618 24.6543L-3.05019 27.7929L54.5443 61.2634L59.9804 58.1248Z" fill="#5D7280"/>
<path d="M66.373 47.1909L8.77872 13.7207L2.36642 17.4229L59.961 50.8931L66.373 47.1909Z" fill="#5D7280"/>
<path d="M59.9601 50.8921L2.36558 17.4219L2.38613 24.6547L59.9804 58.1252L59.9601 50.8921Z" fill="#D8D8D8"/>
<path d="M48.1328 64.9663L-9.46177 31.4961L-14.8979 34.6347L42.6967 68.1049L48.1328 64.9663Z" fill="#5D7280"/>
<path d="M54.5253 54.0288L-3.06923 20.5586L-9.48152 24.2608L48.1128 57.7313L54.5253 54.0288Z" fill="#5D7280"/>
<path d="M48.1122 57.7322L-9.48207 24.2617L-9.46179 31.4948L48.1327 64.965L48.1122 57.7322Z" fill="#D8D8D8"/>
<path d="M36.2851 71.8042L-21.3095 38.334L-26.7458 41.4726L30.849 74.9428L36.2851 71.8042Z" fill="#5D7280"/>
<path d="M42.6757 60.8709L-14.9188 27.4004L-21.3311 31.1026L36.2634 64.5731L42.6757 60.8709Z" fill="#5D7280"/>
<path d="M36.2645 64.5721L-21.33 31.1016L-21.3095 38.3346L36.2851 71.8049L36.2645 64.5721Z" fill="#D8D8D8"/>
<path d="M24.436 78.646L-33.1586 45.1758L-33.0517 82.9069L24.5429 116.377L24.436 78.646Z" fill="#D8D8D8"/>
<path d="M30.8261 67.7147L-26.7684 34.2441L-33.181 37.9466L24.4136 71.4169L30.8261 67.7147Z" fill="#5D7280"/>
<path d="M24.4149 71.4136L-33.1796 37.9434L-33.1591 45.1761L24.4355 78.6464L24.4149 71.4136Z" fill="#2C353B"/>
<path d="M24.4155 71.4143L24.4361 78.6471L24.5429 116.378L90.1816 78.4815L90.0747 40.7506L90.0542 33.5176L83.6419 37.22L83.6621 44.4528L78.243 47.5815L78.2222 40.3488L71.7932 44.0608L71.8138 51.2936L66.3941 54.4226L66.3736 47.1895L59.9615 50.8917L59.9818 58.1248L54.5457 61.2633L54.5252 54.0303L48.1126 57.7327L48.1331 64.9655L42.6971 68.1041L42.6765 60.8713L36.2642 64.5735L36.2848 71.8063L30.8487 74.9449L30.8281 67.7121L24.4155 71.4143Z" fill="#BFBFBF"/>
</g>
<path d="M39.6377 77.3032L75.7585 56.4492L90.0527 64.7018L53.9322 85.5563L39.6377 77.3032Z" fill="#D7DAFF"/>
<path d="M39.6388 102.369L39.6389 77.2988L53.9336 85.5517L53.9335 110.622L39.6388 102.369Z" fill="#888ABF"/>
<path d="M53.9341 110.622L90.0546 89.7675L90.0547 64.6973L53.9341 85.5515L53.9341 110.622Z" fill="#AEB2F4"/>
<path d="M56.2069 106.477L87.7832 88.2464L87.7832 68.8418L56.207 87.0723L56.2069 106.477Z" fill="#888ABF"/>
<path d="M75.055 84.6971L82.7305 80.2657L82.7305 74.1602L75.055 78.5915L75.055 84.6971Z" fill="#F7921E"/>
<path d="M77.421 80.2783C77.421 81.2167 78.0797 81.5967 78.892 81.1276C79.7045 80.6586 80.3633 79.5176 80.3633 78.5795C80.3633 77.6412 79.7045 77.2612 78.892 77.7303C78.0797 78.1993 77.421 79.3402 77.421 80.2783Z" fill="#EF6111"/>
<path d="M61.2598 92.66L68.9355 88.2286L68.9355 82.123L61.2598 86.5544L61.2598 92.66Z" fill="#F7921E"/>
<path d="M63.6263 88.2393C63.6263 89.1774 64.2848 89.5576 65.0973 89.0885C65.9096 88.6195 66.5684 87.4785 66.5684 86.5405C66.5684 85.6021 65.9096 85.2221 65.0974 85.6912C64.2848 86.1602 63.6263 87.3012 63.6263 88.2393Z" fill="#EF6111"/>
<path d="M75.055 93.1935L82.7305 88.7621L82.7305 82.6562L75.055 87.0879L75.055 93.1935Z" fill="#F7921E"/>
<path d="M77.421 88.7744C77.421 89.7127 78.0797 90.0927 78.892 89.6237C79.7045 89.1543 80.3633 88.0137 80.3633 87.0756C80.3633 86.1375 79.7045 85.7573 78.892 86.2263C78.0797 86.6956 77.421 87.8363 77.421 88.7744Z" fill="#EF6111"/>
<path d="M61.2598 101.158L68.9355 96.7266L68.9355 90.6211L61.2598 95.0528L61.2598 101.158Z" fill="#F7921E"/>
<path d="M63.6263 96.7394C63.6263 97.6778 64.2848 98.0577 65.0973 97.5887C65.9096 97.1196 66.5684 95.9787 66.5684 95.0406C66.5684 94.1022 65.9096 93.722 65.0974 94.1913C64.2848 94.6606 63.6263 95.8013 63.6263 96.7394Z" fill="#EF6111"/>
</g>
<defs>
<filter id="filter0_d_714_1005" x="-37.1812" y="0.046875" width="131.363" height="124.332" filterUnits="userSpaceOnUse" color-interpolation-filters="sRGB">
<feFlood flood-opacity="0" result="BackgroundImageFix"/>
<feColorMatrix in="SourceAlpha" type="matrix" values="0 0 0 0 0 0 0 0 0 0 0 0 0 0 0 0 0 0 127 0" result="hardAlpha"/>
<feOffset dy="4"/>
<feGaussianBlur stdDeviation="2"/>
<feComposite in2="hardAlpha" operator="out"/>
<feColorMatrix type="matrix" values="0 0 0 0 0 0 0 0 0 0 0 0 0 0 0 0 0 0 0.25 0"/>
<feBlend mode="normal" in2="BackgroundImageFix" result="effect1_dropShadow_714_1005"/>
<feBlend mode="normal" in="SourceGraphic" in2="effect1_dropShadow_714_1005" result="shape"/>
</filter>
<filter id="filter1_d_714_1005" x="-37.1812" y="0.046875" width="131.363" height="124.332" filterUnits="userSpaceOnUse" color-interpolation-filters="sRGB">
<feFlood flood-opacity="0" result="BackgroundImageFix"/>
<feColorMatrix in="SourceAlpha" type="matrix" values="0 0 0 0 0 0 0 0 0 0 0 0 0 0 0 0 0 0 127 0" result="hardAlpha"/>
<feOffset dy="4"/>
<feGaussianBlur stdDeviation="2"/>
<feComposite in2="hardAlpha" operator="out"/>
<feColorMatrix type="matrix" values="0 0 0 0 0 0 0 0 0 0 0 0 0 0 0 0 0 0 0.25 0"/>
<feBlend mode="normal" in2="BackgroundImageFix" result="effect1_dropShadow_714_1005"/>
<feBlend mode="normal" in="SourceGraphic" in2="effect1_dropShadow_714_1005" result="shape"/>
</filter>
</defs>
</svg>
