<svg width="22" height="17" viewBox="0 0 22 17" fill="none" xmlns="http://www.w3.org/2000/svg">
<g clip-path="url(#clip0_685_10365)" filter="url(#filter0_i_685_10365)">
<path fill-rule="evenodd" clip-rule="evenodd" d="M18.2947 2.73207V1.32531C18.2947 0.896549 17.9426 0.542833 17.5122 0.542833H1.32931C0.898869 0.542833 0.546783 0.894919 0.546783 1.32531V2.73207H18.2947ZM5.92053 13.4695C5.83337 13.4695 5.74979 13.4349 5.68816 13.3733C5.62653 13.3116 5.59191 13.2281 5.59191 13.1409C5.59191 13.0537 5.62653 12.9702 5.68816 12.9085C5.74979 12.8469 5.83337 12.8123 5.92053 12.8123H10.9103C10.9975 12.8123 11.0811 12.8469 11.1427 12.9085C11.2043 12.9702 11.239 13.0537 11.239 13.1409C11.239 13.2281 11.2043 13.3116 11.1427 13.3733C11.0811 13.4349 10.9975 13.4695 10.9103 13.4695H5.92053ZM15.476 10.8678C15.9664 10.8678 16.4016 11.1043 16.6737 11.4695C16.9458 11.1043 17.3809 10.8678 17.8714 10.8678C18.6958 10.8678 19.3641 11.5361 19.3641 12.3606C19.3641 13.1849 18.6958 13.8533 17.8714 13.8533C17.3809 13.8533 16.9458 13.6167 16.6737 13.2516C16.4016 13.6167 15.9664 13.8533 15.476 13.8533C14.6516 13.8533 13.9833 13.1849 13.9833 12.3606C13.9833 11.5361 14.6516 10.8678 15.476 10.8678ZM6.37597 6.61488H8.88166C9.20119 6.61488 9.46262 6.8763 9.46262 7.19584V7.32278H5.79497V7.19584C5.79497 6.8763 6.05644 6.61488 6.37597 6.61488ZM9.46262 7.52267V8.76131H8.32484V7.52267H9.46262ZM8.12495 8.76131H7.13139V7.52267H8.12495V8.76131ZM6.93146 8.76131H5.79497V7.52267H6.93146V8.76131ZM9.46262 8.96124V9.09011C9.46262 9.40965 9.20115 9.67112 8.88166 9.67112H6.37597C6.05648 9.67112 5.79497 9.40969 5.79497 9.09011V8.96124H9.46262ZM5.92053 11.9089C5.83403 11.9079 5.75141 11.8729 5.69059 11.8113C5.62977 11.7498 5.59566 11.6668 5.59566 11.5803C5.59566 11.4938 5.62977 11.4108 5.69059 11.3492C5.75141 11.2877 5.83403 11.2527 5.92053 11.2517H12.5379C12.5813 11.2512 12.6245 11.2593 12.6648 11.2756C12.7051 11.2919 12.7417 11.316 12.7727 11.3466C12.8036 11.3772 12.8281 11.4136 12.8449 11.4537C12.8616 11.4938 12.8702 11.5368 12.8702 11.5803C12.8702 11.6238 12.8616 11.6668 12.8449 11.7069C12.8281 11.747 12.8036 11.7834 12.7727 11.814C12.7417 11.8446 12.7051 11.8687 12.6648 11.885C12.6245 11.9013 12.5813 11.9094 12.5379 11.9089H5.92053ZM0.546783 6.06981V11.4265C0.546783 11.8569 0.900499 12.2091 1.32931 12.2091H3.18035V6.06981H0.546783ZM18.82 3.87564H20.6709C21.0297 3.87564 21.3559 4.02299 21.5925 4.25955L21.5945 4.2616C21.8314 4.49863 21.9786 4.82533 21.9786 5.18337V15.2846C21.9786 15.6417 21.8312 15.9681 21.5943 16.206L21.591 16.2092C21.3533 16.4454 21.0273 16.5924 20.6709 16.5924H4.48813C4.13004 16.5924 3.80334 16.4452 3.56632 16.2083L3.5643 16.2062C3.32775 15.9696 3.18035 15.6434 3.18035 15.2846V12.7343H1.32931C0.971302 12.7343 0.644475 12.5871 0.40745 12.3502L0.405391 12.3481C0.168837 12.1115 0.0214844 11.7853 0.0214844 11.4265V1.32536C0.0214844 0.965165 0.168537 0.637995 0.405219 0.401313C0.417527 0.389048 0.430221 0.377555 0.443387 0.366705C0.677539 0.150264 0.989228 0.0175781 1.32931 0.0175781H17.5122C17.871 0.0175781 18.1972 0.164931 18.4338 0.401485L18.4348 0.402514L18.4358 0.401485C18.6728 0.63851 18.82 0.965894 18.82 1.32536V3.87564ZM4.48813 4.4009H20.6709C21.1013 4.4009 21.4534 4.75465 21.4534 5.18342V15.2846C21.4534 15.7134 21.0996 16.0671 20.6709 16.0671H4.48813C4.05937 16.0671 3.70565 15.715 3.70565 15.2846V5.18342C3.70565 4.75302 4.05774 4.4009 4.48813 4.4009Z" fill="#F5911E" stroke="#F5911E" stroke-width="0.042885" stroke-miterlimit="22.926"/>
</g>
<defs>
<filter id="filter0_i_685_10365" x="0" y="0" width="22" height="20.6172" filterUnits="userSpaceOnUse" color-interpolation-filters="sRGB">
<feFlood flood-opacity="0" result="BackgroundImageFix"/>
<feBlend mode="normal" in="SourceGraphic" in2="BackgroundImageFix" result="shape"/>
<feColorMatrix in="SourceAlpha" type="matrix" values="0 0 0 0 0 0 0 0 0 0 0 0 0 0 0 0 0 0 127 0" result="hardAlpha"/>
<feOffset dy="4"/>
<feGaussianBlur stdDeviation="2"/>
<feComposite in2="hardAlpha" operator="arithmetic" k2="-1" k3="1"/>
<feColorMatrix type="matrix" values="0 0 0 0 0 0 0 0 0 0 0 0 0 0 0 0 0 0 0.25 0"/>
<feBlend mode="normal" in2="shape" result="effect1_innerShadow_685_10365"/>
</filter>
<clipPath id="clip0_685_10365">
<rect width="22" height="16.6177" fill="white"/>
</clipPath>
</defs>
</svg>
