<svg width="33" height="34" viewBox="0 0 33 34" fill="none" xmlns="http://www.w3.org/2000/svg">
<rect x="0.0851726" y="0.651579" width="32.4297" height="32.4298" rx="8.06483" fill="#FFF3E6" stroke="#FFA844" stroke-width="0.170345"/>
<g clip-path="url(#clip0_685_10327)">
<path d="M15.8669 6.33594C10.3071 6.33594 5.76953 10.8738 5.76953 16.4333C5.76953 21.9931 10.3074 26.5306 15.8669 26.5306C21.4267 26.5306 25.9642 21.9927 25.9642 16.4333C25.9642 10.8735 21.4264 6.33594 15.8669 6.33594ZM15.8669 25.3473C10.9516 25.3473 6.95281 21.3485 6.95281 16.4333C6.95281 11.518 10.9516 7.51922 15.8669 7.51922C20.7821 7.51922 24.7809 11.518 24.7809 16.4333C24.7809 21.3485 20.7821 25.3473 15.8669 25.3473Z" fill="#FD7E14"/>
<path d="M10.8436 22.0485C11.1703 22.0485 11.4352 21.7836 11.4352 21.4569C11.4352 21.1301 11.1703 20.8652 10.8436 20.8652C10.5168 20.8652 10.252 21.1301 10.252 21.4569C10.252 21.7836 10.5168 22.0485 10.8436 22.0485Z" fill="#FD7E14"/>
<path d="M20.8905 12.0016C21.2172 12.0016 21.4821 11.7368 21.4821 11.41C21.4821 11.0832 21.2172 10.8184 20.8905 10.8184C20.5637 10.8184 20.2988 11.0832 20.2988 11.41C20.2988 11.7368 20.5637 12.0016 20.8905 12.0016Z" fill="#FD7E14"/>
<path d="M10.4252 10.9917C10.1942 11.2227 10.1942 11.5973 10.4252 11.8284C10.6563 12.0594 11.0309 12.0594 11.2619 11.8284C11.493 11.5973 11.493 11.2227 11.2619 10.9917C11.0309 10.7606 10.6563 10.7606 10.4252 10.9917Z" fill="#FD7E14"/>
<path d="M20.4721 21.0385C20.2411 21.2696 20.2411 21.6442 20.4721 21.8752C20.7032 22.1063 21.0778 22.1063 21.3088 21.8752C21.5399 21.6442 21.5399 21.2696 21.3088 21.0385C21.0778 20.8075 20.7031 20.8075 20.4721 21.0385Z" fill="#FD7E14"/>
<path d="M15.867 11.1088C16.1938 11.1088 16.4587 10.8439 16.4587 10.5171V9.33383C16.4587 9.00709 16.1938 8.74219 15.867 8.74219C15.5403 8.74219 15.2754 9.00709 15.2754 9.33383V10.5171C15.2754 10.8439 15.5403 11.1088 15.867 11.1088Z" fill="#FD7E14"/>
<path d="M15.867 21.7578C15.5403 21.7578 15.2754 22.0227 15.2754 22.3495V23.5327C15.2754 23.8595 15.5403 24.1244 15.867 24.1244C16.1938 24.1244 16.4587 23.8595 16.4587 23.5327V22.3495C16.4587 22.0227 16.1938 21.7578 15.867 21.7578Z" fill="#FD7E14"/>
<path d="M10.5423 16.4334C10.5423 16.1067 10.2774 15.8418 9.95071 15.8418H8.76742C8.44068 15.8418 8.17578 16.1067 8.17578 16.4334C8.17578 16.7602 8.44068 17.0251 8.76742 17.0251H9.95071C10.2774 17.0251 10.5423 16.7602 10.5423 16.4334Z" fill="#FD7E14"/>
<path d="M21.1914 16.4334C21.1914 16.7602 21.4563 17.0251 21.783 17.0251H22.9663C23.2931 17.0251 23.558 16.7602 23.558 16.4334C23.558 16.1067 23.2931 15.8418 22.9663 15.8418H21.783C21.4563 15.8418 21.1914 16.1067 21.1914 16.4334Z" fill="#FD7E14"/>
<path d="M16.4587 16.1874V12.8827C16.4587 12.5559 16.1938 12.291 15.867 12.291C15.5403 12.291 15.2754 12.5559 15.2754 12.8827V16.4325C15.2754 16.5894 15.3377 16.7399 15.4487 16.8509L18.9986 20.4007C19.2296 20.6317 19.6042 20.6318 19.8352 20.4007C20.0663 20.1697 20.0663 19.7951 19.8352 19.564L16.4587 16.1874Z" fill="#FD7E14"/>
</g>
<defs>
<clipPath id="clip0_685_10327">
<rect width="20.1947" height="20.1947" fill="white" transform="translate(5.76953 6.33594)"/>
</clipPath>
</defs>
</svg>
