<svg width="249" height="56" viewBox="0 0 249 56" fill="none" xmlns="http://www.w3.org/2000/svg">
<g clip-path="url(#clip0_685_10118)">
<path fill-rule="evenodd" clip-rule="evenodd" d="M106.313 26.9944C107.811 26.4145 109.097 25.3906 109.998 24.0598C110.899 22.729 111.372 21.1547 111.353 19.5478C111.353 12.8458 106.599 9.52344 100.069 9.52344H82.9414V45.9662H101.558C107.286 45.9662 112.9 41.9565 112.9 35.8273C112.9 28.541 106.313 27.0632 106.313 26.9944ZM91.8774 17.0847H98.5222C98.9477 17.0583 99.3742 17.1161 99.7773 17.2547C100.18 17.3934 100.552 17.6102 100.871 17.8927C101.191 18.1752 101.451 18.5179 101.638 18.9012C101.824 19.2845 101.934 19.7008 101.959 20.1263C101.959 20.2562 101.959 20.3879 101.959 20.5216C101.941 21.4175 101.57 22.27 100.926 22.8933C100.282 23.5167 99.4182 23.8604 98.5222 23.8497H91.8202L91.8774 17.0847ZM98.5795 38.3363H91.9347V31.176H98.4076C101.673 31.176 103.219 32.6081 103.219 34.7275C103.219 37.3739 101.272 38.3363 98.5795 38.3363Z" fill="white"/>
<path fill-rule="evenodd" clip-rule="evenodd" d="M132.621 8.60352C122.081 8.60352 115.895 17.024 115.895 27.6784C115.895 38.3328 122.081 46.7533 132.621 46.7533C143.161 46.7533 149.347 38.3901 149.347 27.6784C149.347 16.9667 143.218 8.60352 132.621 8.60352ZM132.621 38.0464C127.466 38.0464 124.888 33.4066 124.888 27.6784C124.888 21.9502 127.466 17.3677 132.621 17.3677C137.776 17.3677 140.411 22.0075 140.411 27.6784C140.411 33.4639 137.776 38.0464 132.621 38.0464Z" fill="white"/>
<path fill-rule="evenodd" clip-rule="evenodd" d="M168.733 23.8451L167.473 23.5586C164.379 22.9285 161.916 22.1266 161.916 19.8926C161.916 17.4868 164.265 16.513 166.327 16.513C167.734 16.5339 169.121 16.8449 170.403 17.4264C171.684 18.0079 172.831 18.8475 173.774 19.8926L179.444 14.279C176.867 11.3576 172.685 8.55078 166.155 8.55078C158.479 8.55078 152.636 12.8469 152.636 20.0072C152.636 26.5373 157.334 29.7451 163.062 30.948L164.322 31.2344C169.076 32.2082 170.852 32.9529 170.852 35.2442C170.852 37.4209 168.905 38.8529 165.926 38.8529C162.374 38.8529 159.167 37.3063 156.703 34.1558L150.918 39.884C154.126 43.7219 158.193 46.7006 166.04 46.7006C172.857 46.7006 180.132 42.8054 180.132 34.8432C180.246 26.5373 173.945 24.9334 168.733 23.8451Z" fill="white"/>
<path fill-rule="evenodd" clip-rule="evenodd" d="M200.514 38.0419C196.504 38.0419 192.323 34.7195 192.323 27.4447C192.323 20.9719 196.218 17.3631 200.285 17.3631C203.493 17.3631 205.383 18.8524 206.872 21.4301L214.205 16.5612C210.538 11.0048 206.185 8.65625 200.17 8.65625C189.172 8.65625 183.215 17.1913 183.215 27.502C183.215 38.3283 189.802 46.806 200.056 46.806C207.273 46.806 210.71 44.2856 214.434 38.9011L207.044 33.929C205.555 36.3234 203.951 38.0419 200.514 38.0419Z" fill="white"/>
<path fill-rule="evenodd" clip-rule="evenodd" d="M238.688 9.52344V22.9274H227.633V9.52344H218.066V45.9547H227.633V31.577H238.688V45.9547H248.254V9.52344H238.688Z" fill="white"/>
<path d="M27.8483 0.259766C22.3876 0.259766 17.0495 1.87906 12.509 4.91287C7.96857 7.94668 4.42972 12.2588 2.33998 17.3038C0.250244 22.3488 -0.296527 27.9003 0.768813 33.2561C1.83415 38.6119 4.46376 43.5315 8.32509 47.3928C12.1864 51.2541 17.1061 53.8837 22.4619 54.949C27.8177 56.0143 33.3692 55.4676 38.4142 53.3779C43.4593 51.2881 47.7714 47.7493 50.8053 43.2089C53.8391 38.6685 55.4584 33.3304 55.4584 27.8696C55.4584 20.5471 52.5495 13.5244 47.3716 8.34651C42.1937 3.16866 35.171 0.259766 27.8483 0.259766ZM27.8483 52.9018C22.8974 52.9018 18.0577 51.4337 13.9411 48.6832C9.82457 45.9326 6.61611 42.0231 4.72147 37.4491C2.82683 32.875 2.33111 27.8419 3.29698 22.9861C4.26286 18.1303 6.64696 13.67 10.1478 10.1692C13.6486 6.6684 18.109 4.28431 22.9648 3.31844C27.8206 2.35257 32.8537 2.84829 37.4278 4.74291C42.0019 6.63754 45.9114 9.84598 48.662 13.9625C51.4126 18.079 52.8807 22.9187 52.8807 27.8696C52.8792 34.5081 50.2414 40.8743 45.5472 45.5684C40.8531 50.2625 34.4869 52.9003 27.8483 52.9018Z" fill="white"/>
<path d="M39.2593 10.627H37.369V20.0785H18.4086V10.627H16.461C13.6083 12.5088 11.2672 15.0691 9.64741 18.0782C8.02759 21.0874 7.17969 24.4514 7.17969 27.8688C7.17969 31.2862 8.02759 34.6503 9.64741 37.6594C11.2672 40.6686 13.6083 43.2288 16.461 45.1107H18.4086V35.6706H37.369V45.1221H39.2593C42.1131 43.2412 44.4555 40.6812 46.0762 37.672C47.6969 34.6627 48.5453 31.2982 48.5453 27.8803C48.5453 24.4623 47.6969 21.0978 46.0762 18.0886C44.4555 15.0793 42.1131 12.5194 39.2593 10.6384V10.627ZM15.7736 41.3988C13.997 39.8203 12.5488 37.9073 11.5116 35.7691C10.4745 33.6309 9.86864 31.3093 9.72874 28.937C9.58885 26.5646 9.91763 24.1879 10.6963 21.9426C11.475 19.6973 12.6883 17.6274 14.267 15.8511C14.7402 15.3225 15.2432 14.8214 15.7736 14.3503V41.3988ZM37.369 33.0357H18.4086V22.6562H37.369V33.0357ZM39.9467 41.3415V35.6133V20.0785V14.3503C41.7189 15.9416 43.1601 17.8665 44.1881 20.015C45.2161 22.1636 45.8106 24.4936 45.9378 26.872C46.0649 29.2504 45.7221 31.6305 44.9291 33.8764C44.136 36.1223 42.9082 38.1899 41.3158 39.961C40.8826 40.44 40.4257 40.8969 39.9467 41.3301V41.3415Z" fill="white"/>
</g>
<defs>
<clipPath id="clip0_685_10118">
<rect width="248.033" height="55.5635" fill="white" transform="translate(0.289062 0.144531)"/>
</clipPath>
</defs>
</svg>
