<svg width="197" height="131" viewBox="0 0 197 131" fill="none" xmlns="http://www.w3.org/2000/svg">
<path d="M114.184 74.8203C114.492 74.892 114.758 74.9431 115.079 74.9251L115.139 74.9699C115.235 75.0342 115.302 75.041 115.413 75.0681C115.623 75.1196 115.715 75.188 115.892 75.3078L116.178 75.4508V75.522L115.892 75.5948C116.017 75.6477 116.12 75.685 116.253 75.7192C116.402 75.758 116.338 75.7331 116.459 75.815C116.581 75.8971 116.671 75.9177 116.81 75.9543L117.047 76.0329C117.179 76.0803 117.259 76.0769 117.398 76.0484L117.254 75.9292C117.598 75.8409 118.2 76.0497 118.522 76.1799C118.989 76.368 119.458 76.6175 119.946 76.7242C120.113 76.7605 120.264 76.8307 120.417 76.902C118.41 76.9546 115.762 76.0573 114.184 74.8203Z" fill="#FEFFEF"/>
<path d="M101.359 63.1994C101.551 63.0437 101.758 62.8746 102 62.8074C102.895 62.5585 104.075 62.6795 105.011 62.6774C105.874 62.6753 106.734 62.6011 107.594 62.6903C108.013 62.7336 108.374 62.9854 108.727 63.1968L101.359 63.1994Z" fill="#FEFFEF"/>
<path d="M119.767 44.3906C123.425 43.9938 127.514 44.8291 130.78 46.4881C134.214 48.2324 137.146 50.8262 139.172 54.117C139.468 54.5976 139.905 55.2022 140.06 55.7436C140.162 56.0957 140.114 56.4516 139.934 56.7672C139.713 57.1515 139.402 57.4231 138.959 57.5245C138.652 57.5952 138.236 57.5522 137.915 57.5546C137.162 57.5601 136.41 57.5618 135.656 57.5613C134.745 57.5606 133.557 57.6944 132.677 57.4922C131.539 57.2307 130.708 55.7938 129.887 55.0281C129.35 54.5274 128.678 54.0823 128.06 53.6846C125.148 51.8106 121.616 51.4845 118.296 52.2216L116.295 52.9163C112.589 54.5535 110.464 57.5603 109.031 61.2229C107.727 61.4031 106.266 61.2798 104.945 61.2804C103.991 61.2808 102.472 61.4776 101.588 61.1511C101.367 60.9284 101.215 60.8143 101.207 60.4744C101.197 60.0558 101.413 59.514 101.537 59.109C102.342 56.4724 103.64 54.0647 105.381 51.9306C109 47.4981 114.129 44.9708 119.767 44.3906Z" fill="white"/>
<path d="M120.093 63.1896C124.771 63.0886 129.472 63.1628 134.151 63.1656C135.366 63.1664 136.581 63.1665 137.797 63.1745C138.228 63.1774 139.011 63.1171 139.385 63.335C139.762 63.5553 139.979 64.0154 140.074 64.4261C140.19 64.9272 140.112 65.6334 140.113 66.1538C140.114 67.4096 140.112 68.6656 140.113 69.9216C140.116 74.5176 140.263 79.1667 140.102 83.7569C140.096 83.9257 140.034 84.0628 139.949 84.2066C139.21 84.3131 138.446 84.2852 137.701 84.2801C137.148 84.2763 136.527 84.3064 135.988 84.1726C134.491 83.8005 133.214 82.7094 132.887 81.1415C132.79 80.6768 132.847 80.1669 132.586 79.7536L132.548 79.6987L132.415 79.8558C131.392 80.8074 130.077 81.5634 128.821 82.1537C125.739 83.6029 122.794 84.1505 119.394 84.0669C114.558 83.9481 109.659 81.6888 106.335 78.1778C102.721 74.3582 100.894 69.5035 101.052 64.2587C101.065 63.8428 101.028 63.5086 101.355 63.2006L108.723 63.198C109.073 63.5332 108.999 63.7441 109.009 64.2202C109.025 64.8844 108.974 65.5623 109.049 66.2231C109.374 69.0947 110.618 71.6562 112.706 73.6624C113.119 74.0598 113.665 74.5643 114.183 74.8182C115.761 76.0552 118.41 76.9526 120.417 76.9L120.432 76.9048C122.608 77.2761 125.457 76.3329 127.313 75.2336C128.855 74.3193 130.506 72.5265 130.952 70.76C130.911 70.6969 130.853 70.5665 130.8 70.5207C130.276 70.0633 124.414 70.6572 123.125 70.3204C122.51 70.1598 121.812 69.8639 121.36 69.4086C119.662 67.6974 120.074 65.3943 120.093 63.1896Z" fill="white"/>
<path d="M33.7052 75.4049C34.8988 73.0097 35.8757 70.4517 36.9494 67.9963C39.3609 62.4814 41.7345 56.9494 44.1613 51.4414C44.6451 50.3433 45.1094 49.2338 45.5831 48.131C45.8771 47.4464 46.1516 46.6025 46.6757 46.064C47.4003 45.3194 48.0918 45.2252 49.0841 45.2155C50.3551 45.2031 51.628 45.2151 52.8989 45.2259C53.2422 45.2288 53.9934 45.1545 54.2973 45.2966C54.3641 45.3278 54.4781 45.4738 54.5364 45.5308C54.5497 45.6076 54.5985 45.7602 54.5887 45.8314C54.5251 46.2907 54.126 46.9625 53.9364 47.3971C53.3119 48.8298 52.6833 50.2606 52.0546 51.6915L38.8558 82.0308C38.4845 82.788 37.9729 83.3123 37.1569 83.5845L37.0844 83.6083L36.7975 83.6939C36.1384 83.8513 35.2793 83.7637 34.5951 83.7658C33.3508 83.7696 31.9541 83.8863 30.7312 83.6732C30.3778 83.6117 30.0263 83.488 29.7204 83.2988C29.2139 82.9856 28.8364 82.529 28.5719 81.9983C27.2315 79.3081 26.1404 76.4128 24.9346 73.6539C22.2731 67.5641 19.6301 61.4662 16.9833 55.3698C15.9989 53.1028 15.0092 50.8376 14.0184 48.5734C13.7659 47.9961 13.5119 47.4193 13.2604 46.8415C13.1363 46.5564 12.9345 46.2025 12.8815 45.8972C12.8272 45.5846 12.9944 45.4629 13.1752 45.2349C14.5255 45.2219 15.8762 45.2175 17.2267 45.2156C18.0699 45.2144 19.0398 45.1094 19.8374 45.4151C20.3288 45.6035 20.8048 45.9849 21.0784 46.4365C21.622 47.3341 21.9903 48.4537 22.4071 49.4236C23.2145 51.3026 24.0411 53.1743 24.8574 55.0496C27.8099 61.8333 30.7408 68.6265 33.7052 75.4049Z" fill="white"/>
<path d="M163.329 44.3984C168.657 43.9704 173.854 45.4424 178.002 48.867C182.068 52.2244 184.708 57.1064 185.208 62.3625C185.715 67.6902 184.143 73.0007 180.723 77.1332C177.273 81.3015 172.357 83.8109 166.997 84.3218C162.13 84.6494 157.314 83.4526 153.375 80.5005C148.883 77.1353 146.134 72.3359 145.372 66.7912C144.686 61.8088 146.172 56.2935 149.232 52.2998C151.895 48.8234 155.592 46.2484 159.81 45.0531C160.964 44.7262 162.141 44.5538 163.329 44.3984Z" fill="white"/>
<path d="M164.195 51.8592C167.483 51.6522 170.646 52.545 173.203 54.669C175.766 56.7977 177.468 59.8388 177.757 63.1848C178.046 66.5259 177.013 69.8638 174.844 72.4224C172.613 75.056 169.563 76.5556 166.14 76.8481C163.246 77.1149 160.09 76.1549 157.782 74.3992C155.169 72.4129 153.31 69.4635 152.874 66.1879C152.421 62.7891 153.249 59.4154 155.348 56.6828C157.547 53.8198 160.675 52.317 164.195 51.8592Z" fill="#1E1E1E" fill-opacity="0.1"/>
<path d="M74.1586 44.3921C79.133 43.9735 84.1151 45.3924 88.0725 48.4495C92.1798 51.6222 95.0699 56.4017 95.7212 61.5792C96.387 66.8723 95.1194 72.2791 91.8095 76.5179C88.1952 81.1464 83.4018 83.615 77.6347 84.3349C72.6141 84.6406 67.4756 83.3779 63.5229 80.15C59.1794 76.6027 56.4678 71.8357 55.9195 66.2341C55.4181 61.1121 56.9958 55.7133 60.2863 51.7394C63.8223 47.4688 68.638 44.9058 74.1586 44.3921Z" fill="white"/>
<path d="M75.1101 51.852C78.2774 51.7021 81.2177 52.6017 83.7242 54.5761C86.1921 56.5202 87.9421 59.6118 88.2973 62.7335C88.6779 66.079 87.8163 69.4898 85.6917 72.1297C83.4272 74.9435 80.3478 76.4802 76.7872 76.8604C73.518 76.9272 70.5321 76.2115 67.9645 74.0733C65.3898 71.929 63.6868 68.9127 63.3943 65.5489C63.105 62.2201 64.0578 58.9084 66.238 56.3491C68.5678 53.6143 71.5463 52.1534 75.1101 51.852Z" fill="#1E1E1E" fill-opacity="0.1"/>
</svg>
