<svg width="242" height="91" viewBox="0 0 242 91" fill="none" xmlns="http://www.w3.org/2000/svg">
<path fill-rule="evenodd" clip-rule="evenodd" d="M44.9712 16.2312C48.8515 16.2312 53.4731 16.6237 54.8683 17.3212C54.8683 18.3676 54.8683 21.8992 54.8683 22.248C54.8683 27.2183 57.7023 27.9159 57.7023 27.9159C57.7023 27.9159 57.7023 30.0523 57.7023 32.4939C57.7023 35.6767 57.0047 37.8131 57.0047 37.8131C55.5658 38.1618 52.0343 39.2082 48.1538 42.0422C45.3199 44.1786 42.8348 47.3614 42.8348 50.5441C42.8348 52.6369 43.1835 54.0757 43.9247 55.4709C43.9247 55.4709 42.4859 56.1685 40.0008 56.1685C36.8616 55.8197 33.3301 53.3345 31.1937 49.4541C28.3597 44.5274 26.9645 38.5107 23.7817 38.5107C20.599 38.5107 20.599 41.6934 18.1138 41.6934C15.2798 41.6934 13.5357 37.1154 12.8382 34.9791C11.0506 31.7963 6.82149 30.7499 6.47266 25.7796H19.9013C19.9013 18.3676 19.9013 14.1385 19.9013 6.72656C24.8281 6.72656 27.6621 6.72656 32.5889 6.72656V14.8361C32.9812 15.1849 34.0277 15.5337 35.4228 15.8825L34.0276 22.248H30.1472L28.7084 27.9159H32.5889L31.1937 34.9791C31.1937 36.0255 30.8448 38.5106 31.1937 39.557C31.8913 42.391 33.6788 43.4374 36.1204 43.4374C39.652 43.4374 42.8348 41.6934 42.8348 41.6934L44.2736 37.1155C43.576 37.1155 42.4859 37.1155 41.7883 37.1155C41.0907 37.1155 40.3932 37.1154 40.7419 35.3279L42.4859 27.9159H46.3664L47.8051 22.248H43.9247L44.9712 16.2312Z" fill="white"/>
<path fill-rule="evenodd" clip-rule="evenodd" d="M37.1694 18.3633H42.0962L38.2158 36.7623H33.2891L37.1694 18.3633Z" fill="white"/>
<path fill-rule="evenodd" clip-rule="evenodd" d="M40.748 11.6562C42.1433 11.6562 43.5821 12.7026 43.5821 14.4902C43.5821 15.8854 42.1433 16.9754 40.748 16.9754C39.3093 16.9754 37.9141 15.8854 37.9141 14.4902C37.9141 12.7026 39.3093 11.6562 40.748 11.6562Z" fill="white"/>
<path fill-rule="evenodd" clip-rule="evenodd" d="M163.668 34.2812C166.502 34.2812 168.246 34.63 168.595 34.9788C169.293 34.9788 168.944 34.63 169.293 34.2812H169.685L171.429 39.208L170.732 39.5568C169.685 38.1616 167.549 36.7664 164.017 36.7664C162.622 36.7664 159.788 37.1152 159.788 39.208C159.788 43.4372 172.868 40.9956 172.868 49.4539C172.868 53.3343 169.685 56.1683 163.668 56.1683C161.532 56.1683 159.788 55.8195 158 55.1219C157.652 55.1219 157.303 55.4707 157.303 55.8195L156.605 56.1683L154.469 49.8027L155.166 49.4539C156.954 51.5903 159.439 53.3343 163.668 53.3343C167.2 53.3343 168.246 51.9391 168.246 50.5439C168.246 45.5736 155.515 48.7563 155.515 40.2544C155.515 36.374 159.439 34.2812 163.668 34.2812Z" fill="white"/>
<path fill-rule="evenodd" clip-rule="evenodd" d="M90.1562 55.8116V55.114C91.595 54.7652 92.2926 54.4164 92.2926 52.2801V37.805C92.2926 35.6686 91.595 35.3198 90.1562 34.971V34.2734H106.768L108.555 38.8514L107.858 39.2002C106.419 37.4562 105.024 37.1074 102.539 37.1074C102.19 37.1074 98.6582 37.1074 98.6582 37.1074C97.2194 37.1074 96.8706 37.4562 96.8706 38.5026V43.0805H102.539C104.675 43.0805 105.024 42.7317 105.373 41.6853H106.07V47.3533H105.373C105.024 46.2633 104.675 45.9145 102.539 45.9145H96.8706V51.5825C96.8706 52.9776 97.2194 52.9776 98.6582 52.9776C98.6582 52.9776 103.236 52.9776 103.585 52.9776C105.721 52.9776 107.465 52.9776 109.253 50.8849L109.602 51.2337L108.207 55.8116H90.1562Z" fill="white"/>
<path fill-rule="evenodd" clip-rule="evenodd" d="M84.8827 52.2874C84.8827 54.4238 85.5803 54.7725 86.6267 55.1213V55.8189H77.4707V55.1213C78.5172 54.7725 79.5636 54.4238 79.5636 52.2874V31.7956C79.5636 30.7492 78.866 30.7492 77.4707 30.7492C72.8492 30.7492 71.1052 30.7492 69.3176 32.4932H68.9688L70.7564 27.5664H93.6899L95.4774 32.4932H94.7798C93.341 30.7492 91.2482 30.7492 86.6267 30.7492C85.2316 30.7492 84.8827 30.7492 84.8827 31.7956V52.2874Z" fill="white"/>
<path fill-rule="evenodd" clip-rule="evenodd" d="M118.828 45.2169L112.812 37.4562C111.765 35.6686 111.024 35.3198 109.629 34.971V34.2734H119.526V34.971C118.48 34.971 117.738 36.0174 118.828 37.4562L121.619 41.6853L125.194 37.1074C125.891 36.0174 125.892 34.971 124.453 34.971V34.2734H132.606V34.971C131.167 35.3198 130.121 35.6686 128.725 37.1074L123.755 44.1705L129.772 52.6288C130.47 53.6752 131.167 54.4164 131.167 54.4164C131.167 54.4164 132.257 54.0676 133.652 50.5361L140.367 34.2734H144.596L152.4 52.6288C152.749 53.6752 153.795 54.7652 154.842 55.114V55.8116H145.686V55.114C146.383 55.114 147.779 54.7652 146.732 52.6288L145.686 49.7949H136.835L135.789 52.6288C134.699 54.7652 136.486 55.114 136.835 55.114V55.8116H123.058V55.114C123.755 55.114 125.543 54.4164 124.104 52.6288L120.572 48.0509L117.041 52.9776C115.994 54.4164 117.041 55.114 117.738 55.114V55.8116H109.629V55.114C111.024 54.7652 112.463 54.0676 113.509 52.2801L118.828 45.2169ZM141.413 38.5026L137.881 47.0045H144.596L141.413 38.5026Z" fill="white"/>
<path fill-rule="evenodd" clip-rule="evenodd" d="M8.19434 59.0031C8.19434 56.8667 7.14788 56.5179 6.10156 56.1691V55.8203H15.2575V56.1691C14.5599 56.5179 13.5134 56.8667 13.5134 59.0031V80.5413C13.5134 82.6776 14.5599 83.0264 15.2575 83.3753V84.0728H6.10156V83.3753C7.14788 83.0264 8.19434 82.6776 8.19434 80.5413V59.0031Z" fill="white"/>
<path fill-rule="evenodd" clip-rule="evenodd" d="M37.5521 84.0772H36.8546L22.3358 68.9046V80.5457C22.3358 82.682 23.4259 83.0308 24.1235 83.3796V84.0772H17.7578V83.3796C18.8043 83.0308 19.5019 82.682 19.5019 80.5457V66.0706C19.5019 63.9342 18.8043 63.5854 17.7578 63.2366V62.5391H23.7746L34.7182 74.5725V66.0706C34.7182 63.9342 34.0206 63.5854 32.9742 63.2366V62.5391H39.6449V63.2366C38.5986 63.5854 37.5521 63.9342 37.5521 66.0706V84.0772Z" fill="white"/>
<path fill-rule="evenodd" clip-rule="evenodd" d="M121.251 76.6595C121.251 83.025 115.626 84.4202 112.095 84.4202C108.215 84.4202 102.547 83.025 102.547 77.0083V66.0648C102.547 63.9284 101.5 63.2308 100.41 63.2308V62.5332H109.261V63.2308C108.215 63.2308 107.124 63.9284 107.124 66.0648V76.6595C107.124 80.191 109.261 81.6298 112.792 81.6298C115.975 81.6298 118.46 80.191 118.46 76.6595V66.0648C118.46 63.9284 117.37 63.5796 116.324 63.2308V62.5332H123.038V63.2308C121.992 63.5796 121.251 63.9284 121.251 66.0648V76.6595Z" fill="white"/>
<path fill-rule="evenodd" clip-rule="evenodd" d="M66.124 66.7682C66.124 65.373 66.124 65.373 65.0777 65.373C61.5461 65.373 60.8484 65.373 58.7121 67.8582L58.3633 67.5094L59.7584 62.5391H77.4599L79.2039 67.5094L78.5064 67.8582C76.7188 65.373 76.0212 65.373 72.4895 65.373C71.4432 65.373 71.0943 65.373 71.0943 66.7682V80.5457C71.0943 82.682 71.7919 83.0308 73.1871 83.3796V84.0772H64.3801V83.3796C65.7752 83.0308 66.124 82.682 66.124 80.5457V66.7682Z" fill="white"/>
<path fill-rule="evenodd" clip-rule="evenodd" d="M49.9507 62.1895C52.3922 62.1895 54.1799 62.8871 54.5286 62.8871C55.2262 63.2358 55.2262 62.5383 55.2262 62.5383L55.9239 62.1895L57.3626 67.5086H56.6215C55.575 66.4186 53.831 65.0234 50.2995 65.0234C48.5119 65.0234 45.6779 65.3722 45.6779 67.5086C45.6779 71.389 59.1066 69.2526 59.1066 77.7109C59.1066 81.6349 55.9239 84.0765 49.9507 84.0765C47.4654 84.0765 45.6779 83.7277 43.9339 83.3789C43.5852 83.3789 43.5851 83.7277 43.1927 83.7277C43.1927 84.0765 42.4951 84.0765 42.4951 84.0765L40.4023 78.1033L41.0999 77.7109C42.8439 79.8473 45.3291 81.6349 49.5582 81.6349C53.0899 81.6349 54.1799 80.1961 54.1799 78.8009C54.1799 73.8306 41.4488 77.0133 41.4488 68.555C41.4488 64.6746 45.6779 62.1895 49.9507 62.1895Z" fill="white"/>
<path fill-rule="evenodd" clip-rule="evenodd" d="M149.896 80.5398C149.896 82.6762 150.942 83.025 151.989 83.3738V84.0714H143.181V83.3738C144.228 83.025 145.274 82.6762 145.274 80.5398V70.2939L137.514 84.4202H136.816L129.055 69.9451V80.5398C129.055 82.6762 130.102 83.025 131.148 83.3738V84.0714H124.434V83.3738C125.175 83.025 126.221 82.6762 126.221 80.5398V66.0648C126.221 63.9284 125.175 63.5796 124.434 63.2308V62.5332H131.148L138.211 76.6595L146.015 62.5332H151.989V63.2308C150.942 63.5796 149.896 63.9284 149.896 66.0648V80.5398Z" fill="white"/>
<path fill-rule="evenodd" clip-rule="evenodd" d="M194.385 84.0772H193.688L179.169 68.9046V80.5457C179.169 82.682 180.259 83.0308 180.957 83.3796V84.0772H174.242V83.3796C175.289 83.0308 176.379 82.682 176.379 80.5457V66.0706C176.379 63.9342 175.637 63.5854 174.242 63.2366V62.5391H180.608L191.551 74.5725V66.0706C191.551 63.9342 190.505 63.5854 189.415 63.2366V62.5391H196.173V63.2366C195.432 63.5854 194.385 63.9342 194.385 66.0706V84.0772Z" fill="white"/>
<path fill-rule="evenodd" clip-rule="evenodd" d="M154.469 84.0694V83.3718C155.515 83.023 156.256 82.3254 156.256 80.5378V66.0628C156.256 63.9264 155.515 63.5776 154.469 63.2288V62.5312H171.08L172.519 67.1092L172.127 67.5016C170.731 65.714 168.944 65.3652 166.851 65.3652C166.502 65.3652 162.622 65.3652 162.622 65.3652C161.532 65.3652 161.183 65.714 161.183 66.7604V71.3819H166.502C168.595 71.3819 169.293 70.6407 169.293 69.9432H170.034V75.6111H169.293C169.293 74.5647 168.595 74.2159 166.502 74.2159H161.183V79.8403C161.183 80.9302 161.532 81.279 162.622 81.279C162.622 81.279 167.2 81.279 167.549 81.279C169.685 81.279 171.778 81.279 173.217 79.1427L173.914 79.4914L172.127 84.0694H154.469Z" fill="white"/>
<path fill-rule="evenodd" clip-rule="evenodd" d="M204.332 66.7682C204.332 65.373 203.983 65.373 203.242 65.373C199.361 65.373 199.013 65.373 196.92 67.8582L196.527 67.5094L197.966 62.5391H215.624L217.412 67.5094L216.714 67.8582C214.926 65.373 214.229 65.373 210.697 65.373C209.607 65.373 209.258 65.373 209.258 66.7682V80.5457C209.258 82.682 209.956 83.0308 211.395 83.3796V84.0772H202.544V83.3796C203.634 83.0308 204.332 82.682 204.332 80.5457V66.7682Z" fill="white"/>
<path fill-rule="evenodd" clip-rule="evenodd" d="M226.528 62.1875C229.013 62.1875 230.801 62.8851 231.499 62.8851C231.847 63.2339 231.847 62.5363 231.847 62.5363C232.196 62.5363 232.545 62.1875 232.545 62.1875L233.94 67.5067H233.591C232.545 66.4167 230.409 65.0215 226.921 65.0215C225.133 65.0215 222.648 65.3703 222.648 67.5067C222.648 71.387 235.728 69.2506 235.728 77.709C235.728 81.6329 232.545 84.0745 226.528 84.0745C224.087 84.0745 222.299 83.7257 220.555 83.3769C220.206 83.3769 220.206 83.7257 220.206 83.7257C219.814 84.0745 219.465 84.0745 219.465 84.0745L217.023 78.1014L217.721 77.709C219.465 79.8454 222.299 81.6329 226.179 81.6329C229.711 81.6329 230.801 80.1941 230.801 78.799C230.801 73.8286 218.07 77.0114 218.07 68.5531C218.07 64.6727 222.299 62.1875 226.528 62.1875Z" fill="white"/>
<path fill-rule="evenodd" clip-rule="evenodd" d="M90.8599 62.5352C95.4814 62.5352 99.0131 64.3227 99.0131 68.2031C99.0131 72.4322 95.1327 73.1298 92.9963 73.4786C98.6642 75.615 99.0131 83.0269 102.545 83.0269V83.3757C101.847 83.7245 101.149 84.0733 99.3618 84.0733C91.6011 84.0733 93.345 74.5686 88.4183 74.5686H85.9331V80.5418C85.9331 82.6781 86.6307 83.0269 87.7207 83.3757V84.0733H79.2188V83.3757C80.2652 83.0269 81.0063 82.6781 81.0063 80.5418V66.0667C81.0063 63.9303 80.2652 63.5815 79.2188 63.2327V62.5352H90.8599ZM85.9331 72.0834H88.7671C91.2522 72.0834 94.0427 71.0371 94.0427 68.5519C94.0427 67.1131 92.9963 65.0203 89.8134 65.0203H87.3719C86.2819 65.0203 85.9331 65.3691 85.9331 66.7643V72.0834Z" fill="white"/>
</svg>
