<svg width="161" height="65" viewBox="0 0 161 65" fill="none" xmlns="http://www.w3.org/2000/svg">
<path d="M87.7891 62.3903H91.426C102.337 61.8448 109.975 53.2979 109.975 43.1145C109.975 39.6594 109.247 36.2043 107.611 33.4766H87.7891V62.3903Z" fill="white"/>
<path d="M85.97 33.293H67.7852V62.3886H85.97V33.293Z" fill="white"/>
<path d="M106.519 31.4745C104.701 28.9286 102.155 26.9283 99.4274 25.4735C102.701 23.1095 104.883 19.2907 104.883 15.1082C104.883 8.01618 99.2455 2.37891 92.1534 2.37891H87.7891V31.4745H106.519Z" fill="white"/>
<path d="M85.97 2.37891H67.7852V31.4745H85.97V2.37891Z" fill="white"/>
<path d="M136.891 62.3883H140.528C151.439 61.8428 159.076 53.296 159.076 43.1125C159.076 39.6574 158.349 36.2023 156.712 33.4746H136.891V62.3883Z" fill="white"/>
<path d="M135.068 33.293H116.883V62.3886H135.068V33.293Z" fill="white"/>
<path d="M155.621 31.4745C153.803 28.9286 151.257 26.9283 148.529 25.4735C151.802 23.1095 153.984 19.2907 153.984 15.1082C153.984 8.01618 148.347 2.37891 141.255 2.37891H136.891V31.4745H155.621Z" fill="white"/>
<path d="M135.068 2.37891H116.883V31.4745H135.068V2.37891Z" fill="white"/>
<path d="M12.6896 33.293L2.32422 62.3886H17.4176L21.782 49.6592H31.42V33.293H12.6896Z" fill="white"/>
<path d="M31.4231 2.38086H23.6037L13.2383 31.4765H31.4231V2.38086Z" fill="white"/>
<path d="M33.2461 49.6592H42.8841L47.2484 62.3886H62.3418L51.9765 33.293H33.2461V49.6592Z" fill="white"/>
<path d="M51.431 31.4745L41.0656 2.37891H33.2461V31.4745H51.431Z" fill="white"/>
</svg>
