<svg width="258" height="62" viewBox="0 0 258 62" fill="none" xmlns="http://www.w3.org/2000/svg">
<path fill-rule="evenodd" clip-rule="evenodd" d="M245.123 12.9516V20.0904C241.425 18.6942 238.132 17.9883 235.25 17.9883C233.543 17.9883 232.183 18.3044 231.161 18.9155C230.139 19.532 229.618 20.2907 229.618 21.1863C229.618 22.377 230.771 23.4359 233.095 24.3844L239.807 27.6509C245.234 30.2378 247.926 33.6728 247.926 37.9878C247.926 41.5757 246.498 44.4366 243.616 46.5545C240.755 48.6936 236.904 49.7525 232.11 49.7525C229.897 49.7525 227.911 49.6577 226.146 49.4575C224.381 49.2679 222.352 48.8779 220.102 48.3195V40.8487C224.228 42.2449 227.984 42.9508 231.367 42.9508C235.402 42.9508 237.41 41.7812 237.41 39.4209C237.41 38.246 236.588 37.2977 234.918 36.5547L227.463 33.3778C224.713 32.1344 222.668 30.6276 221.33 28.8416C220.013 27.0397 219.344 24.9745 219.344 22.6141C219.344 19.3106 220.735 16.65 223.485 14.6269C226.256 12.6195 229.934 11.6133 234.507 11.6133C235.993 11.6133 237.705 11.7449 239.602 11.9873C241.514 12.2455 243.353 12.5616 245.123 12.9516Z" fill="white"/>
<path fill-rule="evenodd" clip-rule="evenodd" d="M33.99 12.9516V20.0904C30.2914 18.6942 27.0039 17.9883 24.1219 17.9883C22.4096 17.9883 21.0556 18.3044 20.0335 18.9155C19.0114 19.532 18.4898 20.2907 18.4898 21.1863C18.4898 22.377 19.6594 23.4359 21.9829 24.3844L28.6951 27.6509C34.1006 30.2378 36.7983 33.6728 36.7983 37.9878C36.7983 41.5757 35.3652 44.4366 32.5043 46.5545C29.6224 48.6936 25.7921 49.7525 20.9819 49.7525C18.769 49.7525 16.7775 49.6577 15.0125 49.4575C13.2475 49.2679 11.2402 48.8779 8.97476 48.3195V40.8487C13.1159 42.2449 16.8724 42.9508 20.2337 42.9508C24.2695 42.9508 26.2768 41.7812 26.2768 39.4209C26.2768 38.246 25.4602 37.2977 23.8058 36.5547L16.3508 33.3778C13.5794 32.1344 11.5352 30.6276 10.2181 28.8416C8.87984 27.0397 8.22656 24.9745 8.22656 22.6141C8.22656 19.3106 9.60697 16.65 12.3729 14.6269C15.1232 12.6195 18.8059 11.6133 23.3791 11.6133C24.8806 11.6133 26.5719 11.7449 28.4896 11.9873C30.3864 12.2455 32.2251 12.5616 33.99 12.9516Z" fill="white"/>
<path fill-rule="evenodd" clip-rule="evenodd" d="M41.7148 12.2773H52.6473V49.0785H41.7148V12.2773Z" fill="white"/>
<path fill-rule="evenodd" clip-rule="evenodd" d="M87.8113 12.2773V19.0792H71.5682V27.2401H85.6565V33.3728H71.5682V41.9396H88.1432V49.0785H61.0469V12.2773H87.8113Z" fill="white"/>
<path fill-rule="evenodd" clip-rule="evenodd" d="M138.853 12.2773V49.0785H128.647V24.8061L118.058 49.4156H111.757L101.573 24.8061V49.0785H94.1914V12.2773H107.537L116.646 34.8058L126.177 12.2773H138.853Z" fill="white"/>
<path fill-rule="evenodd" clip-rule="evenodd" d="M174.104 12.2773V19.0792H157.95V27.2401H172.038V33.3728H157.95V41.9396H174.436V49.0785H147.34V12.2773H174.104Z" fill="white"/>
<path fill-rule="evenodd" clip-rule="evenodd" d="M212.435 12.2773V49.0785H200.839L187.826 25.4751V49.0785H180.449V12.2773H192.383L205.059 35.475V12.2773H212.435Z" fill="white"/>
</svg>
