<svg width="109" height="163" viewBox="0 0 109 163" fill="none" xmlns="http://www.w3.org/2000/svg">
<g clip-path="url(#clip0_714_789)" filter="url(#filter0_d_714_789)">
<g clip-path="url(#clip1_714_789)" filter="url(#filter1_d_714_789)">
<g filter="url(#filter2_d_714_789)">
<path fill-rule="evenodd" clip-rule="evenodd" d="M22.3141 133.565L77.4869 103.146L78.2942 65.6927L23.1214 96.1112L22.3141 133.565Z" fill="#DCA860"/>
<path fill-rule="evenodd" clip-rule="evenodd" d="M67.6111 98.4733L70.3523 96.962L70.2965 99.5487C70.2793 100.345 69.7437 101.295 69.0851 101.768L69.0231 104.642L69.8723 104.174L69.8633 104.594L67.7784 105.743L67.7875 105.323L68.6563 104.844L68.7183 101.97C68.0448 102.232 67.5382 101.856 67.5553 101.06L67.6111 98.4733ZM64.2901 100.326C65.3328 99.751 66.2048 99.9911 66.5491 100.828C66.3024 100.768 66.0723 100.829 65.8156 101.232C65.5693 101.15 65.3187 101.266 65.1013 101.626C64.8723 101.621 64.6235 101.671 64.373 101.788L64.269 106.607C64.2643 106.828 64.3377 106.963 64.4693 107.043C64.5822 107.112 64.7541 107.105 64.9474 106.998C65.1404 106.892 65.3161 106.707 65.4347 106.511C65.5533 106.314 65.6344 106.095 65.6387 105.896L65.9089 105.747C65.884 106.023 65.7818 106.342 65.6042 106.614C65.4453 106.898 65.1918 107.169 64.9408 107.308C64.6897 107.446 64.4415 107.452 64.2913 107.338C64.1218 107.235 64.0118 107.033 64.018 106.746L64.1219 101.926C63.8896 102.076 63.6375 102.28 63.3832 102.574C63.158 102.392 62.9261 102.542 62.6881 102.957C62.4423 102.852 62.2099 103.024 61.9545 103.362C62.3441 102.12 63.2479 100.901 64.2901 100.326ZM71.601 103.636L75.1145 101.699L75.1236 101.279L71.6101 103.216L71.601 103.636ZM72.8148 102.202L72.9188 97.3823L73.324 97.1588L72.7851 95.6208L72.1468 97.8079L72.552 97.5844L72.4481 102.404L72.8148 102.202ZM74.2816 101.393L74.3855 96.5733L74.8103 96.3394L74.2522 94.8119L73.6135 96.999L74.0383 96.765L73.9344 101.585L74.2816 101.393Z" fill="#40484C"/>
<path fill-rule="evenodd" clip-rule="evenodd" d="M23.1223 96.111L78.2944 65.6914L24.485 32.9212L-30.6872 63.3412L23.1223 96.111Z" fill="#CE9C6A"/>
<path fill-rule="evenodd" clip-rule="evenodd" d="M-47.9235 40.0091L7.24829 9.58914L24.4849 32.9217L-30.6873 63.3417L-47.9235 40.0091Z" fill="#EDC990"/>
<path fill-rule="evenodd" clip-rule="evenodd" d="M23.1081 96.7739L23.1224 96.1124L78.2803 66.3543L95.6209 63.6668L95.6067 64.3283L40.4349 94.7483L23.1081 96.7739Z" fill="#CFA472"/>
<path fill-rule="evenodd" clip-rule="evenodd" d="M-31.4971 100.795L22.313 133.564L23.1211 96.1106L-30.6891 63.3418L-31.4971 100.795Z" fill="#BB7B3F"/>
<path fill-rule="evenodd" clip-rule="evenodd" d="M-60.8459 68.6631L-7.03573 101.432L23.1068 96.8167L23.122 96.1109L-30.7034 64.048L-60.8307 67.9572L-60.8459 68.6631Z" fill="#A88260"/>
<path fill-rule="evenodd" clip-rule="evenodd" d="M24.4855 32.9234L78.2957 65.6922L98.039 43.1546L44.2288 10.3858L24.4855 32.9234Z" fill="#EDC990"/>
<path fill-rule="evenodd" clip-rule="evenodd" d="M23.1224 96.1124L78.2946 65.6928L95.6209 63.6668L40.4491 94.0868L23.1224 96.1124Z" fill="#EDC990"/>
<path fill-rule="evenodd" clip-rule="evenodd" d="M40.4488 94.0815L40.4346 94.7431L23.1078 96.7687L23.1221 96.1072L40.4488 94.0815Z" fill="#B78E65"/>
<path fill-rule="evenodd" clip-rule="evenodd" d="M24.4837 32.9232L23.8839 60.7362L-7.8418 77.2552L-30.6891 63.3417L24.4837 32.9232Z" fill="#DDA962"/>
<path fill-rule="evenodd" clip-rule="evenodd" d="M24.4844 32.9238L23.8846 60.7368L53.4287 79.7604L78.2939 65.6915L24.4844 32.9238Z" fill="#BB7B3F"/>
<path fill-rule="evenodd" clip-rule="evenodd" d="M24.4841 32.921L18.0264 62.2502L-9.84258 76.0731L-7.8414 77.2555L23.8843 60.7365L24.4841 32.921Z" fill="#C58A4B"/>
<path fill-rule="evenodd" clip-rule="evenodd" d="M-60.8303 67.956L-7.02011 100.725L23.1224 96.1097L-30.6878 63.3409L-60.8303 67.956Z" fill="#EDC990"/>
</g>
<path fill-rule="evenodd" clip-rule="evenodd" d="M24.2825 121.054L33.452 115.998C33.587 115.924 33.7002 115.993 33.6964 116.169L33.4919 125.654C33.4881 125.831 33.3695 126.028 33.2342 126.102L24.0646 131.158C23.9296 131.232 23.8164 131.163 23.8202 130.987L24.0247 121.502C24.0286 121.325 24.1472 121.128 24.2825 121.054Z" fill="#C8B095"/>
<path fill-rule="evenodd" clip-rule="evenodd" d="M24.6902 121.594L33.0106 117.007L32.8265 125.541L24.5062 130.129L24.6902 121.594Z" fill="#ECCCAE"/>
<path fill-rule="evenodd" clip-rule="evenodd" d="M98.0381 43.1534L98.0165 44.1532L79.0525 65.601L78.2941 65.6899L98.0381 43.1534Z" fill="#C58A4B"/>
<rect x="22" y="10" width="7.60976" height="7.60981" rx="1.12738" fill="#F7921E"/>
</g>
<g filter="url(#filter3_b_714_789)">
<path d="M44.8811 80.4518L34.8153 81.0517L29.2602 72.5772L39.326 71.9773L44.8811 80.4518Z" fill="#5D7280"/>
<path d="M44.884 80.4536L43.5835 83.0153L33.5177 83.6152L34.8182 81.0535L44.884 80.4536Z" fill="#2C353B"/>
<path d="M34.8183 81.0543L33.5178 83.616L27.9626 75.1415L29.2631 72.5798L34.8183 81.0543Z" fill="#3B4951"/>
<path d="M30.5696 76.2781L30.2445 76.9185L26.9086 77.1173L27.2337 76.4769L30.5696 76.2781Z" fill="#888ABF"/>
<path d="M27.2343 76.4772L26.9092 77.1176L24.0297 75.6296L24.3548 74.9892L27.2343 76.4772Z" fill="#AEB2F4"/>
<path d="M30.5714 76.2788L27.2355 76.4776L24.3561 74.9896L5.84437 76.0928L5.05384 74.8869L24.1722 73.7475L27.0515 75.2354L29.7809 75.0727L30.5714 76.2788Z" fill="#D7DAFF"/>
<path d="M24.3538 74.9919L24.0287 75.6323L5.5167 76.7356L5.84184 76.0951L24.3538 74.9919Z" fill="#888ABF"/>
<path d="M5.84265 76.0916L5.51751 76.7321L4.72697 75.5261L5.05211 74.8857L5.84265 76.0916Z" fill="#AEB2F4"/>
<path d="M31.9641 78.4015L8.28368 79.8127L7.49314 78.6068L31.1735 77.1956L31.9641 78.4015Z" fill="#D7DAFF"/>
<path d="M31.9624 78.3977L31.6373 79.0381L7.95688 80.4494L8.28206 79.8089L31.9624 78.3977Z" fill="#888ABF"/>
<path d="M8.2821 79.8104L7.95692 80.4509L7.16642 79.2449L7.49156 78.6044L8.2821 79.8104Z" fill="#AEB2F4"/>
<path d="M33.3544 80.526L33.0293 81.1664L30.2999 81.3291L30.6251 80.6886L33.3544 80.526Z" fill="#888ABF"/>
<path d="M28.4423 81.2268L28.1171 81.8672L28.9027 80.1609L29.2279 79.5204L28.4423 81.2268Z" fill="#AEB2F4"/>
<path d="M33.3564 80.5263L30.6271 80.6889L29.8415 82.3952L10.723 83.5346L9.93245 82.3286L28.4444 81.2253L29.23 79.519L32.5659 79.3203L33.3564 80.5263Z" fill="#D7DAFF"/>
<path d="M29.8405 82.3944L29.5154 83.0348L10.3968 84.1743L10.722 83.5338L29.8405 82.3944Z" fill="#888ABF"/>
<path d="M10.7196 83.5351L10.3945 84.1755L9.60392 82.9695L9.92914 82.3291L10.7196 83.5351Z" fill="#AEB2F4"/>
</g>
</g>
<defs>
<filter id="filter0_d_714_789" x="-65.0005" y="-11" width="173.455" height="173.455" filterUnits="userSpaceOnUse" color-interpolation-filters="sRGB">
<feFlood flood-opacity="0" result="BackgroundImageFix"/>
<feColorMatrix in="SourceAlpha" type="matrix" values="0 0 0 0 0 0 0 0 0 0 0 0 0 0 0 0 0 0 127 0" result="hardAlpha"/>
<feOffset dy="4"/>
<feGaussianBlur stdDeviation="2"/>
<feComposite in2="hardAlpha" operator="out"/>
<feColorMatrix type="matrix" values="0 0 0 0 0 0 0 0 0 0 0 0 0 0 0 0 0 0 0.25 0"/>
<feBlend mode="normal" in2="BackgroundImageFix" result="effect1_dropShadow_714_789"/>
<feBlend mode="normal" in="SourceGraphic" in2="effect1_dropShadow_714_789" result="shape"/>
</filter>
<filter id="filter1_d_714_789" x="-75.5615" y="-18.166" width="187.637" height="187.637" filterUnits="userSpaceOnUse" color-interpolation-filters="sRGB">
<feFlood flood-opacity="0" result="BackgroundImageFix"/>
<feColorMatrix in="SourceAlpha" type="matrix" values="0 0 0 0 0 0 0 0 0 0 0 0 0 0 0 0 0 0 127 0" result="hardAlpha"/>
<feOffset dy="4"/>
<feGaussianBlur stdDeviation="2"/>
<feComposite in2="hardAlpha" operator="out"/>
<feColorMatrix type="matrix" values="0 0 0 0 0 0 0 0 0 0 0 0 0 0 0 0 0 0 0.25 0"/>
<feBlend mode="normal" in2="BackgroundImageFix" result="effect1_dropShadow_714_789"/>
<feBlend mode="normal" in="SourceGraphic" in2="effect1_dropShadow_714_789" result="shape"/>
</filter>
<filter id="filter2_d_714_789" x="-74.8457" y="-0.410156" width="186.885" height="151.975" filterUnits="userSpaceOnUse" color-interpolation-filters="sRGB">
<feFlood flood-opacity="0" result="BackgroundImageFix"/>
<feColorMatrix in="SourceAlpha" type="matrix" values="0 0 0 0 0 0 0 0 0 0 0 0 0 0 0 0 0 0 127 0" result="hardAlpha"/>
<feOffset dy="4"/>
<feGaussianBlur stdDeviation="7"/>
<feComposite in2="hardAlpha" operator="out"/>
<feColorMatrix type="matrix" values="0 0 0 0 0 0 0 0 0 0 0 0 0 0 0 0 0 0 0.19 0"/>
<feBlend mode="normal" in2="BackgroundImageFix" result="effect1_dropShadow_714_789"/>
<feBlend mode="normal" in="SourceGraphic" in2="effect1_dropShadow_714_789" result="shape"/>
</filter>
<filter id="filter3_b_714_789" x="0.727051" y="67.9766" width="48.1567" height="20.1992" filterUnits="userSpaceOnUse" color-interpolation-filters="sRGB">
<feFlood flood-opacity="0" result="BackgroundImageFix"/>
<feGaussianBlur in="BackgroundImageFix" stdDeviation="2"/>
<feComposite in2="SourceAlpha" operator="in" result="effect1_backgroundBlur_714_789"/>
<feBlend mode="normal" in="SourceGraphic" in2="effect1_backgroundBlur_714_789" result="shape"/>
</filter>
<clipPath id="clip0_714_789">
<rect width="162" height="162" fill="white" transform="translate(-57.5078 -11) rotate(1.23539)"/>
</clipPath>
<clipPath id="clip1_714_789">
<rect width="175.886" height="175.886" fill="white" transform="translate(-67.7695 -18.166) rotate(1.23539)"/>
</clipPath>
</defs>
</svg>
