<svg width="244" height="234" viewBox="0 0 244 234" fill="none" xmlns="http://www.w3.org/2000/svg">
<path d="M117.082 233.451C125.366 233.451 132.082 226.735 132.082 218.451V101.52H56.4453V79.4808C56.4453 66.8898 66.7003 56.6466 79.3057 56.6466H108.375V0.265762H79.3057C35.576 0.265762 0 35.8011 0 79.4808V218.451C0 226.735 6.71573 233.451 15 233.451L117.082 233.451Z" fill="#FEF1E2"/>
<g filter="url(#filter0_i_756_3253)">
<path d="M228.082 233.451C236.366 233.451 243.082 226.735 243.082 218.451V101.52H167.445V79.4808C167.445 66.8898 177.7 56.6466 190.306 56.6466H219.375V0.265762H190.306C146.576 0.265762 111 35.8011 111 79.4808V218.451C111 226.735 117.716 233.451 126 233.451L228.082 233.451Z" fill="#FABF7A"/>
</g>
<path d="M164.945 101.52V104.02H167.445H240.582V218.451C240.582 225.355 234.986 230.951 228.082 230.951H126C119.096 230.951 113.5 225.355 113.5 218.451V79.4808C113.5 37.1845 147.954 2.76576 190.306 2.76576H216.875V54.1466H190.306C176.322 54.1466 164.945 65.5064 164.945 79.4808V101.52Z" stroke="white" stroke-width="5"/>
<defs>
<filter id="filter0_i_756_3253" x="111" y="0.265625" width="132.082" height="241.186" filterUnits="userSpaceOnUse" color-interpolation-filters="sRGB">
<feFlood flood-opacity="0" result="BackgroundImageFix"/>
<feBlend mode="normal" in="SourceGraphic" in2="BackgroundImageFix" result="shape"/>
<feColorMatrix in="SourceAlpha" type="matrix" values="0 0 0 0 0 0 0 0 0 0 0 0 0 0 0 0 0 0 127 0" result="hardAlpha"/>
<feOffset dy="9"/>
<feGaussianBlur stdDeviation="4"/>
<feComposite in2="hardAlpha" operator="arithmetic" k2="-1" k3="1"/>
<feColorMatrix type="matrix" values="0 0 0 0 0 0 0 0 0 0 0 0 0 0 0 0 0 0 0.25 0"/>
<feBlend mode="normal" in2="shape" result="effect1_innerShadow_756_3253"/>
</filter>
</defs>
</svg>
