<svg width="115" height="112" viewBox="0 0 115 112" fill="none" xmlns="http://www.w3.org/2000/svg">
<g filter="url(#filter0_d_714_3025)">
<path d="M15.0923 10.7863L8.61481 14.5504L-2.01953 8.41094L4.45793 4.64648L15.0923 10.7863Z" fill="#D8DBFF"/>
<path d="M15.0906 10.7871L15.0712 17.6099L8.59375 21.374L8.61316 14.5512L15.0906 10.7871Z" fill="#898BC0"/>
<path d="M8.61274 14.5516L8.59333 21.3743L-2.04102 15.2349L-2.0216 8.41211L8.61274 14.5516Z" fill="#AFB3F5"/>
<path d="M48.9082 10.7863L55.3853 14.5504L66.0197 8.41094L59.5425 4.64648L48.9082 10.7863Z" fill="#D8DBFF"/>
<path d="M48.9082 10.7852L48.9276 17.6079L55.4047 21.372L55.3853 14.5493L48.9082 10.7852Z" fill="#898BC0"/>
<path d="M55.3867 14.5516L55.4061 21.3743L66.0405 15.2349L66.0211 8.41211L55.3867 14.5516Z" fill="#898BC0"/>
<path d="M70.8359 23.5285L77.3661 27.3235L88.0005 21.1836L81.4703 17.3887L70.8359 23.5285Z" fill="#D8DBFF"/>
<path d="M70.8359 23.5273L70.8554 30.3501L77.3855 34.1451L77.3661 27.3223L70.8359 23.5273Z" fill="#898BC0"/>
<path d="M77.3652 27.3234L77.3846 34.1462L88.019 28.0064L87.9996 21.1836L77.3652 27.3234Z" fill="#898BC0"/>
<path d="M92.8164 36.3016L99.3466 40.0966L109.981 33.9567L103.451 30.1621L92.8164 36.3016Z" fill="#D8DBFF"/>
<path d="M92.8164 36.3008L92.8358 43.1235L99.366 46.9185L99.3466 40.0958L92.8164 36.3008Z" fill="#898BC0"/>
<path d="M99.3457 40.0969L99.3651 46.9196L109.999 40.7801L109.98 33.957L99.3457 40.0969Z" fill="#898BC0"/>
<path d="M32.0016 88.9733L-44.8086 44.6266L31.9995 0.28125L108.81 44.628L32.0016 88.9733Z" fill="#D8D8D8"/>
<path d="M32.0011 72.5076L-16.2871 44.6283L31.9997 16.75L80.2876 44.6293L32.0011 72.5076Z" fill="#F7921E" fill-opacity="0.9"/>
<path d="M32.0019 68.2216L-8.86523 44.627L32.0005 21.0332L72.8677 44.6277L32.0019 68.2216Z" fill="#5D7280"/>
<path d="M32.001 62.0309L1.85938 44.6282L32.0003 27.2266L62.1419 44.6289L32.001 62.0309Z" fill="#F7921E" fill-opacity="0.9"/>
<path d="M24.3898 17.6707L17.0176 13.414L21.6178 10.7578L28.9904 15.0145L24.3898 17.6707Z" fill="#F7921E" fill-opacity="0.9"/>
<path d="M13.4702 23.975L6.09766 19.7187L10.6983 17.0625L18.0705 21.3192L13.4702 23.975Z" fill="#F7921E" fill-opacity="0.9"/>
<path d="M2.54639 30.2817L-4.82617 26.0253L-0.225554 23.3691L7.14701 27.6255L2.54639 30.2817Z" fill="#F7921E" fill-opacity="0.9"/>
<path d="M78.6953 40.2349L86.0679 35.9785L90.6681 38.6347L83.2959 42.8911L78.6953 40.2349Z" fill="#F7921E" fill-opacity="0.9"/>
<path d="M67.7754 33.9283L75.1476 29.6719L79.7482 32.328L72.376 36.5844L67.7754 33.9283Z" fill="#F7921E" fill-opacity="0.9"/>
<path d="M56.8535 27.6236L64.2257 23.3672L68.8263 26.0234L61.4538 30.2797L56.8535 27.6236Z" fill="#F7921E" fill-opacity="0.9"/>
<path d="M45.9316 21.3192L53.3039 17.0625L57.9041 19.7187L50.5319 23.9754L45.9316 21.3192Z" fill="#F7921E" fill-opacity="0.9"/>
<path d="M35.0098 15.0122L42.382 10.7559L46.9826 13.412L39.6104 17.6684L35.0098 15.0122Z" fill="#F7921E" fill-opacity="0.9"/>
<path d="M39.6123 71.5879L46.9845 75.8446L42.3843 78.5004L35.0117 74.2441L39.6123 71.5879Z" fill="#F7921E" fill-opacity="0.9"/>
<path d="M50.5323 65.2812L57.9048 69.5376L53.3045 72.1938L45.9316 67.9371L50.5323 65.2812Z" fill="#F7921E" fill-opacity="0.9"/>
<path d="M61.4561 58.9766L68.8283 63.2329L64.228 65.8891L56.8555 61.6327L61.4561 58.9766Z" fill="#F7921E" fill-opacity="0.9"/>
<path d="M72.3776 52.6699L79.7502 56.9267L75.1495 59.5828L67.7773 55.3261L72.3776 52.6699Z" fill="#F7921E" fill-opacity="0.9"/>
<path d="M83.2972 46.3652L90.6701 50.6216L86.0695 53.2778L78.6973 49.0211L83.2972 46.3652Z" fill="#F7921E" fill-opacity="0.9"/>
<path d="M7.14861 61.6347L-0.223607 65.8911L-4.82422 63.2349L2.548 58.9785L7.14861 61.6347Z" fill="#F7921E" fill-opacity="0.9"/>
<path d="M18.0705 67.9413L10.6983 72.1977L6.09766 69.5415L13.4699 65.2852L18.0705 67.9413Z" fill="#F7921E" fill-opacity="0.9"/>
<path d="M28.9924 74.248L21.6201 78.504L17.0195 75.8478L24.3921 71.5918L28.9924 74.248Z" fill="#F7921E" fill-opacity="0.9"/>
<path d="M32 103.152L-44.8105 58.8053V44.6211L32 88.9678V103.152Z" fill="#3B4951"/>
<path d="M32 103.152L108.811 58.8053V44.6211L32 88.9678V103.152Z" fill="#2C353B"/>
<path d="M108.154 64.3547L101.677 68.1188L91.043 61.9793L97.5201 58.2148L108.154 64.3547Z" fill="#D8DBFF"/>
<path d="M108.153 64.3555L108.133 71.1782L101.656 74.9423L101.675 68.1196L108.153 64.3555Z" fill="#898BC0"/>
<path d="M101.675 68.1219L101.656 74.9447L91.0215 68.8052L91.0409 61.9824L101.675 68.1219Z" fill="#AFB3F5"/>
<path d="M86.229 77.0988L79.6985 80.8938L69.0645 74.754L75.5946 70.959L86.229 77.0988Z" fill="#D8DBFF"/>
<path d="M86.2273 77.1016L86.2079 83.9243L79.6777 87.7193L79.6968 80.8965L86.2273 77.1016Z" fill="#898BC0"/>
<path d="M79.6964 80.8937L79.6773 87.7165L69.043 81.5767L69.0624 74.7539L79.6964 80.8937Z" fill="#AFB3F5"/>
<path d="M64.2485 89.8719L57.7183 93.6669L47.084 87.5274L53.6142 83.7324L64.2485 89.8719Z" fill="#D8DBFF"/>
<path d="M64.2468 89.873L64.2274 96.6958L57.6973 100.491L57.7167 93.668L64.2468 89.873Z" fill="#898BC0"/>
<path d="M57.7163 93.6668L57.6969 100.49L47.0625 94.3501L47.0819 87.5273L57.7163 93.6668Z" fill="#AFB3F5"/>
<path d="M17.2023 87.4985L6.63695 93.6383L0.117188 89.8742L10.6826 83.7344L17.2023 87.4985Z" fill="#D8DBFF"/>
<path d="M17.2 87.498L17.1806 94.3212L6.61523 100.461L6.63465 93.6379L17.2 87.498Z" fill="#898BC0"/>
<path d="M6.63488 93.6391L6.61546 100.462L0.0957031 96.6978L0.115116 89.875L6.63488 93.6391Z" fill="#AFB3F5"/>
</g>
<defs>
<filter id="filter0_d_714_3025" x="-50.0785" y="0.28125" width="164.156" height="111.028" filterUnits="userSpaceOnUse" color-interpolation-filters="sRGB">
<feFlood flood-opacity="0" result="BackgroundImageFix"/>
<feColorMatrix in="SourceAlpha" type="matrix" values="0 0 0 0 0 0 0 0 0 0 0 0 0 0 0 0 0 0 127 0" result="hardAlpha"/>
<feOffset dy="4.07846"/>
<feGaussianBlur stdDeviation="2.03923"/>
<feComposite in2="hardAlpha" operator="out"/>
<feColorMatrix type="matrix" values="0 0 0 0 0 0 0 0 0 0 0 0 0 0 0 0 0 0 0.25 0"/>
<feBlend mode="normal" in2="BackgroundImageFix" result="effect1_dropShadow_714_3025"/>
<feBlend mode="normal" in="SourceGraphic" in2="effect1_dropShadow_714_3025" result="shape"/>
</filter>
</defs>
</svg>
