<svg width="76" height="132" viewBox="0 0 76 132" fill="none" xmlns="http://www.w3.org/2000/svg">
<g filter="url(#filter0_d_685_9683)">
<path d="M23.5737 124.5C22.8738 124.5 22.2087 124.331 21.6174 123.99C20.2863 123.221 19.5234 121.695 19.5234 119.804V85.7459C19.5234 84.7226 20.3538 83.8922 21.3771 83.8922C22.4004 83.8922 23.2308 84.7226 23.2308 85.7459V119.804C23.2308 120.49 23.4228 120.751 23.4708 120.778C23.5179 120.808 23.8389 120.844 24.4353 120.499L30.909 116.761C32.5371 115.82 33.966 113.346 33.966 111.464V111.015C33.966 107.835 36.1239 104.098 38.8782 102.509C40.5171 101.562 42.2199 101.461 43.5501 102.228C44.8812 102.997 45.6441 104.523 45.6441 106.414V107.985C45.6441 108.672 45.837 108.932 45.8844 108.96C45.9351 108.99 46.2537 109.023 46.8489 108.681L54.2448 104.411C55.8741 103.469 57.303 100.994 57.303 99.1136V84.6584C57.303 83.6348 58.1334 82.8047 59.1567 82.8047C60.18 82.8047 61.0104 83.6348 61.0104 84.6584V99.1136C61.0104 102.294 58.8525 106.03 56.0982 107.621L48.7023 111.891C47.0655 112.84 45.3618 112.939 44.0304 112.17C42.699 111.402 41.9364 109.877 41.9364 107.985V106.414C41.9364 105.728 41.7444 105.467 41.6964 105.44C41.6529 105.413 41.3295 105.376 40.7319 105.719C39.1026 106.659 37.6737 109.134 37.6737 111.015V111.464C37.6737 114.644 35.517 118.381 32.7627 119.972L26.289 123.71C25.3794 124.236 24.4488 124.5 23.5737 124.5Z" fill="#BDB986"/>
<path d="M33.4094 74.4492V89.4273C33.4094 91.0764 32.3183 92.733 30.1277 93.9942C25.763 96.5163 18.674 96.5163 14.3012 93.9942C12.1136 92.7318 11.0312 91.0818 11.0339 89.4273H11.0273V74.4492H33.4094Z" fill="#4E4C37"/>
<path d="M39.3268 58.0625V80.9639C39.3268 83.4851 37.6585 86.0183 34.3093 87.9464C27.6355 91.8023 16.7971 91.8023 10.111 87.9464C6.76627 86.0165 5.11117 83.4935 5.11537 80.9639H5.10547V58.0625H39.3268Z" fill="#6B694C"/>
<path d="M39.3268 75.1621V78.1903C39.3268 80.7115 37.6585 83.2447 34.3093 85.1728C27.6355 89.0287 16.7971 89.0287 10.111 85.1728C6.76147 83.2447 5.10547 80.7235 5.11777 78.1903H5.10547V75.1621H5.11777C5.10547 77.6833 6.76147 80.2174 10.111 82.1455C16.7971 86.0011 27.6355 86.0011 34.3093 82.1455C37.6588 80.2174 39.3268 77.6836 39.3268 75.1621Z" fill="#4E4C37"/>
<path d="M39.3268 67.998V71.0262C39.3268 73.5474 37.6585 76.0809 34.3093 78.0087C27.6355 81.8646 16.7971 81.8646 10.111 78.0087C6.76147 76.0806 5.10547 73.5594 5.11777 71.0262H5.10547V67.998H5.11777C5.10547 70.5195 6.76147 73.0533 10.111 74.9814C16.7971 78.837 27.6355 78.837 34.3093 74.9814C37.6588 73.0536 39.3268 70.5195 39.3268 67.998Z" fill="#4E4C37"/>
<path d="M39.3268 60.8359V63.8641C39.3268 66.3856 37.6585 68.9188 34.3093 70.8466C27.6355 74.7028 16.7971 74.7028 10.111 70.8466C6.76147 68.9185 5.10547 66.3973 5.11777 63.8641H5.10547V60.8359H5.11777C5.10547 63.3574 6.76147 65.8912 10.111 67.8193C16.7971 71.6749 27.6355 71.6749 34.3093 67.8193C37.6588 65.8912 39.3268 63.3574 39.3268 60.8359Z" fill="#4E4C37"/>
<path d="M22.2139 67.9389C31.6647 67.9389 39.3262 63.5156 39.3262 58.0593C39.3262 52.6029 31.6647 48.1797 22.2139 48.1797C12.763 48.1797 5.10156 52.6029 5.10156 58.0593C5.10156 63.5156 12.763 67.9389 22.2139 67.9389Z" fill="#DEDA9D"/>
<path d="M13.3088 61.9522C12.8738 61.6903 12.4937 61.4101 12.1406 61.123C12.494 61.4098 12.8738 61.69 13.3088 61.9522Z" fill="#F08700"/>
<path d="M32.8118 60.8223C32.726 60.8997 32.6459 60.9777 32.5547 61.0533C32.6462 60.9777 32.726 60.8994 32.8118 60.8223Z" fill="#F08700"/>
<path d="M32.066 61.4258C31.9814 61.4873 31.9049 61.5506 31.8164 61.6106C31.9049 61.5506 31.9814 61.487 32.066 61.4258Z" fill="#F08700"/>
<path d="M10.411 59.1004C10.3345 58.9579 10.2643 58.8148 10.2031 58.6699C10.2643 58.8148 10.3342 58.9579 10.411 59.1004Z" fill="#F08700"/>
<path d="M10.0866 58.3692C10.0362 58.2228 9.99574 58.0767 9.96094 57.9297C9.99574 58.0767 10.0359 58.2228 10.0866 58.3692Z" fill="#F08700"/>
<path d="M10.8703 59.8231C10.7638 59.6806 10.6606 59.5375 10.5703 59.3926C10.6603 59.5381 10.7638 59.6806 10.8703 59.8231Z" fill="#F08700"/>
<path d="M34.4776 58.5547C34.3954 58.759 34.3006 58.9627 34.1875 59.1634C34.3009 58.9627 34.3948 58.759 34.4776 58.5547Z" fill="#F3AE00"/>
<path d="M34.0265 59.4102C33.9284 59.5644 33.8276 59.718 33.7109 59.8689C33.8276 59.7183 33.9284 59.5644 34.0265 59.4102Z" fill="#F3AE00"/>
<path d="M9.83161 56.9638C9.81241 56.5933 9.79381 56.2798 9.75781 55.9531C9.78751 56.2927 9.83071 56.6398 9.83161 56.9638Z" fill="#F3AE00"/>
<path d="M5.19442 42.3001C4.86142 42.0994 4.57313 41.8843 4.26562 41.6758C4.27073 41.6851 4.27612 41.6935 4.28092 41.7025C4.57882 41.9041 4.87282 42.106 5.19442 42.3001Z" fill="#F3AE00"/>
<path d="M40.2706 41.6113C40.1809 41.6728 40.0924 41.7346 40 41.7952C40.0888 41.737 40.1791 41.6794 40.2661 41.6197C40.2676 41.6176 40.2694 41.6146 40.2706 41.6113Z" fill="#F3AE00"/>
<path d="M7.35938 48.9141C7.39628 48.9891 7.43587 49.0641 7.47217 49.14C7.45387 49.1025 7.43858 49.0671 7.41968 49.029C7.39988 48.9891 7.37917 48.9537 7.35938 48.9141Z" fill="#F3AE00"/>
<path d="M8.15333 50.625C8.00573 50.2803 7.83143 49.8999 7.64453 49.5039C7.82033 49.8768 7.99313 50.2509 8.15333 50.625Z" fill="#F3AE00"/>
<path d="M8.17969 50.6836C8.54389 51.5362 8.86399 52.3837 9.12349 53.2129C9.10159 53.14 9.08539 53.0797 9.06199 53.0038C9.05809 52.9915 8.77729 52.0795 8.17969 50.6836Z" fill="#F3AE00"/>
<path d="M9.1875 53.4336C9.5613 54.6759 9.7989 55.8711 9.8298 56.9622C9.8289 56.6385 9.7857 56.2914 9.756 55.9515C9.6888 55.3386 9.5463 54.6549 9.1875 53.4336Z" fill="#F3AE00"/>
<path d="M5.08546 44.7915C5.04886 44.7318 5.01286 44.6721 4.97656 44.6133C5.01286 44.6724 5.04916 44.7318 5.08546 44.7915Z" fill="#F3AE00"/>
<path d="M4.26646 41.6766C4.06546 41.5404 3.85006 41.4087 3.66016 41.2695C3.85996 41.4165 4.06966 41.5602 4.28206 41.7036C4.27696 41.694 4.27156 41.6859 4.26646 41.6766Z" fill="#F3AE00"/>
<path d="M1.77779 39.6695C1.74539 39.6374 1.71119 39.6035 1.67969 39.5723C1.71179 39.605 1.74539 39.6374 1.77779 39.6695Z" fill="#F3AE00"/>
<path d="M1.18117 39.0754C1.17727 39.0715 1.17247 39.0661 1.16797 39.0625C1.63897 39.6742 2.31307 40.5895 2.85277 41.3704C3.48607 42.2869 4.21507 43.3729 4.97737 44.614C5.01367 44.6731 5.04967 44.7325 5.08627 44.7922C5.83147 46.0159 6.60637 47.3914 7.35817 48.9136C7.37797 48.9535 7.39867 48.9886 7.41877 49.0285C7.43737 49.0666 7.45297 49.102 7.47127 49.1395C7.53157 49.2643 7.58707 49.3822 7.64407 49.5034C7.83097 49.8994 8.00497 50.2798 8.15287 50.6245C8.16217 50.6452 8.16907 50.6626 8.17837 50.6839C8.77597 52.0801 9.05677 52.9918 9.06067 53.0041C9.08407 53.08 9.10057 53.1403 9.12217 53.2132C9.14527 53.2897 9.16627 53.3617 9.18787 53.4343C9.54667 54.6556 9.68917 55.3396 9.75637 55.9522C9.79267 56.2792 9.81097 56.5924 9.83017 56.9629C9.83047 57.0325 9.84667 57.1015 9.84997 57.1714C9.85807 57.3247 9.86947 57.4777 9.89437 57.6307C9.91057 57.7309 9.93457 57.8305 9.95797 57.9307C9.99277 58.0777 10.033 58.2238 10.0837 58.3702C10.1182 58.4704 10.1566 58.5709 10.1989 58.6702C10.2601 58.8151 10.3303 58.9582 10.4068 59.1007C10.4593 59.1985 10.5118 59.2957 10.5712 59.3923C10.6612 59.5372 10.7647 59.6803 10.8712 59.8228C10.9198 59.8876 10.9558 59.9545 11.008 60.019C10.9849 52.1143 2.97517 41.3773 1.18117 39.0754Z" fill="#C28B00"/>
<path d="M35.4656 53.2578C35.4365 53.3544 35.4098 53.4483 35.3828 53.5434C35.408 53.4537 35.4377 53.3541 35.4656 53.2578Z" fill="#F3AE00"/>
<path d="M36.3754 50.7305C36.3433 50.807 36.3128 50.8829 36.2812 50.9594C36.3116 50.8844 36.3427 50.8085 36.3754 50.7305Z" fill="#F3AE00"/>
<path d="M42.7202 39.6094C42.7064 39.6232 42.6932 39.6361 42.6797 39.6499C42.6932 39.6361 42.707 39.6232 42.7202 39.6094Z" fill="#F3AE00"/>
<path d="M41.3555 40.8137C41.4284 40.7564 41.5067 40.6997 41.5784 40.6406C41.507 40.6997 41.4287 40.7564 41.3555 40.8137Z" fill="#F3AE00"/>
<path d="M37.0663 49.1836C36.9853 49.3567 36.9025 49.5289 36.8242 49.7014C36.9001 49.5346 36.9832 49.3591 37.0663 49.1836Z" fill="#F3AE00"/>
<path d="M41.6977 41.2619C42.1777 40.5581 42.788 39.7166 43.2473 39.1055C41.477 41.4365 39.0277 45.1106 37.2188 48.8627C38.7664 45.6788 40.4236 43.1279 41.6977 41.2619Z" fill="#F3AE00"/>
<path d="M40.352 41.5547C40.3247 41.573 40.2974 41.5913 40.2701 41.6096C40.2686 41.6126 40.2671 41.6159 40.2656 41.6183C40.2956 41.5976 40.3217 41.5754 40.352 41.5547Z" fill="#F3AE00"/>
<path d="M43.3199 39.0046C41.4776 41.4019 33.6263 52.0987 33.6485 59.9569C33.6719 59.9278 33.6872 59.8972 33.71 59.8681C33.8267 59.7172 33.9275 59.5636 34.0256 59.4094C34.0775 59.3275 34.1366 59.2474 34.1834 59.1646C34.2968 58.9639 34.3913 58.7602 34.4735 58.5559C34.4888 58.5181 34.5113 58.4815 34.5251 58.444C34.616 58.2007 34.6835 57.9547 34.7312 57.7081C34.745 57.6346 34.7468 57.5611 34.757 57.4885C34.7813 57.3139 34.8017 57.1399 34.8041 56.9656C34.8044 56.9401 34.811 56.9158 34.811 56.8906C34.8344 55.8577 35.0438 54.7243 35.3804 53.5429C35.4074 53.4478 35.4341 53.3536 35.4632 53.2573C35.6885 52.5067 35.9645 51.7381 36.2801 50.9608C36.3116 50.8843 36.3425 50.8084 36.3743 50.7319C36.5165 50.3887 36.6665 50.0455 36.8228 49.7011C36.9011 49.5289 36.9836 49.3564 37.0649 49.1833C37.1153 49.0768 37.1669 48.9703 37.2179 48.8641C39.0266 45.112 41.4761 41.4379 43.2464 39.1069C43.2812 39.0619 43.3142 39.019 43.3487 38.9746C43.3382 38.9839 43.3301 38.9947 43.3199 39.0046Z" fill="#C28B00"/>
<path d="M5.19519 42.3004C4.87359 42.1066 4.57959 41.9044 4.28169 41.7031C4.06959 41.56 3.85989 41.416 3.65979 41.269C3.51609 41.1631 3.38259 41.0551 3.24549 40.948C2.90589 40.6831 2.58519 40.4128 2.28339 40.138C2.20839 40.069 2.11719 40.0054 2.04459 39.9364C1.94679 39.8398 1.86489 39.7579 1.77579 39.6691C1.74339 39.637 1.70979 39.6046 1.67769 39.5719C1.49949 39.394 1.33359 39.2272 1.18359 39.0742C2.97789 41.3761 10.9873 52.1131 11.0101 60.0181C11.0251 60.0364 11.0476 60.0532 11.0629 60.0715C11.3122 60.3724 11.6029 60.664 11.9284 60.9466C11.9968 61.0063 12.0703 61.063 12.1417 61.1221C12.4948 61.4092 12.8749 61.6894 13.3099 61.9513C13.2853 53.3338 5.67639 42.9421 5.19519 42.3004Z" fill="#C28B00"/>
<path d="M43.3235 39.0039C43.3175 39.0102 43.3115 39.0171 43.3049 39.0237C43.1327 39.2019 42.9203 39.4119 42.7205 39.6087C42.7073 39.6225 42.6935 39.6354 42.68 39.6492C42.6209 39.7074 42.5567 39.7707 42.5039 39.8238C42.5033 39.8244 42.5024 39.8256 42.5018 39.8262C42.2138 40.1025 41.9036 40.3728 41.5793 40.6392C41.5076 40.6983 41.4296 40.755 41.3564 40.8123C41.0384 41.0649 40.7036 41.3124 40.3526 41.5554C40.3223 41.5761 40.2965 41.5983 40.2662 41.619C40.1792 41.6787 40.0889 41.736 40.0001 41.7945C39.5621 42.084 39.1088 42.3672 38.6216 42.6381C29.2001 47.8917 14.2346 47.7402 5.19531 42.3006C5.67651 42.9423 13.2854 53.334 13.31 61.9518C18.0857 64.8264 25.9928 64.9059 30.9707 62.13C31.2707 61.9632 31.5515 61.7886 31.8167 61.6086C31.9052 61.5489 31.9817 61.4853 32.0663 61.4238C32.2355 61.3014 32.4044 61.179 32.558 61.0515C32.6489 60.9759 32.7293 60.8976 32.8151 60.8205C32.9456 60.7035 33.0767 60.5862 33.1943 60.465C33.2771 60.3807 33.3497 60.2934 33.4259 60.2079C33.5006 60.1236 33.5834 60.0417 33.6521 59.9559C33.6302 52.098 41.4812 41.4012 43.3235 39.0039Z" fill="#C28B00"/>
<path d="M0.892702 38.777C0.886702 38.7707 0.8807 38.7638 0.875 38.7578C0.8807 38.7641 0.886702 38.771 0.892702 38.777Z" fill="#F3AE00"/>
<path d="M46.0884 35.6562C45.7911 36.0726 45.4857 36.4884 45.1562 36.9021C45.4853 36.4863 45.7941 36.0711 46.0884 35.6562Z" fill="#F3AE00"/>
<path d="M49.1602 7.32031C49.5283 8.17171 49.9201 9.22111 50.2762 10.4277C50.0128 9.43531 49.5628 8.22241 49.1602 7.32031Z" fill="#F3AE00"/>
<path d="M50.9052 24.5114C50.9295 24.3812 50.9487 24.2693 50.9703 24.1484C50.6673 25.7747 50.1933 27.5465 49.4805 29.3852C50.3016 27.2957 50.7129 25.5542 50.9052 24.5114Z" fill="#F3AE00"/>
<path d="M51.3736 16.3211C51.3337 15.9284 51.3007 15.6113 51.2695 15.3203C51.3223 15.776 51.3673 16.2416 51.4 16.7201C51.3856 16.4789 51.3742 16.3259 51.3736 16.3211Z" fill="#F3AE00"/>
<path d="M51.418 17.0371C51.4483 17.5615 51.4702 18.0952 51.4726 18.6466C51.466 18.0526 51.4414 17.4721 51.418 17.0371Z" fill="#F3AE00"/>
<path d="M45.0548 37.0234C44.7188 37.4416 44.3639 37.8574 43.9922 38.2708C44.3639 37.8565 44.7209 37.4407 45.0548 37.0234Z" fill="#F3AE00"/>
<path d="M51.0078 13.5254C51.0951 14.0123 51.171 14.5193 51.2364 15.0401C51.1713 14.4686 51.1059 14.0231 51.0078 13.5254Z" fill="#F3AE00"/>
<path d="M50.9219 13.0977C50.9474 13.2285 50.9774 13.3503 51.0014 13.4835C50.9768 13.3608 50.9516 13.2339 50.9219 13.0977Z" fill="#F3AE00"/>
<path d="M51.4492 19.8902C51.4705 19.5149 51.4753 19.0946 51.4711 18.6758C51.4726 19.1459 51.4576 19.6691 51.4297 20.2202C51.436 20.1107 51.4426 20.0084 51.4492 19.8902Z" fill="#F3AE00"/>
<path d="M46.8755 2.98421C46.3607 2.16431 45.7121 1.23702 45.125 0.541016C45.4997 1.01262 45.89 1.53402 46.3349 2.17332C46.5251 2.44572 46.7042 2.71691 46.8755 2.98421Z" fill="#F3AE00"/>
<path d="M51.3846 20.9609C51.3129 21.9011 51.1923 22.9262 50.9922 24.0269C51.219 22.7495 51.3123 21.9776 51.3846 20.9609Z" fill="#F3AE00"/>
<path d="M47.1362 3.40272C47.0915 3.32862 47.0363 3.24402 46.9883 3.16602C47.0507 3.26562 47.1089 3.36221 47.1686 3.45941C47.1581 3.44171 47.1464 3.42012 47.1362 3.40272Z" fill="#F3AE00"/>
<path d="M46.8886 34.4648C46.7785 34.637 46.6657 34.8089 46.5508 34.9802C46.6657 34.808 46.7791 34.6364 46.8886 34.4648Z" fill="#F3AE00"/>
<path d="M48.5653 31.4766C48.5317 31.5462 48.4957 31.6158 48.4609 31.6863C48.496 31.6158 48.5317 31.5453 48.5653 31.4766Z" fill="#F3AE00"/>
<path d="M49.2642 29.9219C49.1652 30.1631 49.0611 30.4052 48.9531 30.6479C49.0635 30.4013 49.1646 30.161 49.2642 29.9219Z" fill="#F3AE00"/>
<path d="M42.5039 39.8247C42.5567 39.7719 42.6209 39.7083 42.68 39.6501C42.6935 39.6363 42.7067 39.6234 42.7205 39.6096C42.9203 39.4125 43.1324 39.2028 43.3049 39.0246C43.3112 39.0177 43.3172 39.0108 43.3235 39.0048C43.3334 38.9949 43.3418 38.9841 43.3517 38.9742C43.4918 38.8281 43.6205 38.6799 43.7555 38.5332C43.3565 38.9664 42.9443 39.3984 42.5039 39.8247Z" fill="#F3AE00"/>
<path d="M51.4765 18.6535V18.6688C51.4765 19.1395 51.4609 19.6726 51.4294 20.2216C51.4138 20.4565 51.3982 20.708 51.3826 20.9591C51.3199 21.8996 51.1945 22.9195 50.9908 24.0328C50.9908 24.0634 50.9746 24.1111 50.9746 24.1423C50.6611 25.7734 50.1904 27.5452 49.4848 29.3801C49.4062 29.5681 49.3285 29.7407 49.2655 29.9291C49.1554 30.1639 49.0615 30.3992 48.9517 30.6503C48.826 30.917 48.7006 31.1992 48.5596 31.4818C48.5284 31.5445 48.4969 31.6229 48.4654 31.6859C48.0106 32.6108 47.4772 33.5359 46.8814 34.4614C46.7716 34.6337 46.6615 34.8061 46.552 34.9792C46.3951 35.2141 46.2544 35.4332 46.0972 35.653C45.7993 36.0766 45.4855 36.4846 45.1561 36.908C45.1246 36.9394 45.0934 36.9863 45.0619 37.0175C44.7175 37.4411 44.3722 37.8644 43.9957 38.2718C43.9171 38.3507 43.8394 38.4449 43.7608 38.5391C43.3531 38.9618 42.9454 39.4012 42.5059 39.8246C42.208 40.1072 41.9101 40.3736 41.581 40.6399C41.5024 40.7027 41.4241 40.7494 41.3611 40.8121C41.0317 41.0635 40.7026 41.3138 40.3573 41.5495C40.3264 41.5807 40.2949 41.5964 40.2637 41.6123C40.1851 41.6749 40.0909 41.7377 39.9967 41.7998C39.5578 42.0824 39.103 42.365 38.6167 42.6314C29.1916 47.885 14.2306 47.7436 5.19732 42.3019C4.86792 42.0976 4.57032 41.8787 4.27242 41.6749C4.06842 41.5331 3.84912 41.4076 3.66042 41.2666C3.51972 41.1571 3.37842 41.063 3.23712 40.9534C2.90772 40.6861 2.57862 40.4194 2.28042 40.1371C2.20182 40.0753 2.12352 40.0123 2.04492 39.9334C1.95102 39.8392 1.85682 39.7613 1.77852 39.6671C1.74732 39.6359 1.71582 39.6043 1.68432 39.5728C1.49622 39.4003 1.33932 39.2281 1.18212 39.0713C1.18212 39.0713 1.16682 39.0713 1.16682 39.055C1.07232 38.9608 0.97842 38.8675 0.89982 38.773C0.88422 38.773 0.884219 38.7572 0.868619 38.7572C0.210119 38.0518 -0.276483 37.4867 -1.12308 36.3895C-1.53078 35.8874 -2.55018 34.4294 -3.16188 33.3314C-3.20868 33.2372 -3.25578 33.1273 -3.31848 33.0334C-3.41268 32.8612 -3.50658 32.6881 -3.60048 32.5156C-3.66318 32.3902 -3.72618 32.2652 -3.80448 32.1398C-3.91458 31.9039 -4.02408 31.669 -4.13388 31.45C-4.22808 31.2769 -4.30668 31.1047 -4.38468 30.9322C-4.43178 30.8221 -4.47888 30.728 -4.52598 30.6185C-5.05938 29.4272 -5.49828 28.2508 -5.87478 26.9644C-6.06288 26.2744 -6.23538 25.5692 -6.40758 24.8003C-6.42318 24.7535 -6.43908 24.7222 -6.43908 24.6745C-6.45468 24.6433 -6.45468 24.6119 -6.45468 24.5965C-6.47028 24.5804 -6.47028 24.565 -6.47028 24.5491C-6.53298 24.2825 -6.58038 23.9845 -6.62718 23.6707C-6.65868 23.5297 -6.68988 23.3728 -6.70548 23.2165C-6.73668 23.0746 -6.75228 22.9027 -6.76818 22.7458C-6.79938 22.5574 -6.83088 22.3849 -6.84678 22.1815C-6.87798 21.9464 -6.89358 21.6953 -6.90948 21.4601C-6.92508 21.3659 -6.94068 21.2879 -6.94068 21.1937C-6.98778 20.6285 -7.01928 20.0489 -7.03458 19.4524V19.0288C-7.05078 18.904 -7.05078 18.7939 -7.05078 18.6682C-7.05078 18.1036 -7.01928 17.5235 -6.98808 16.9277C-6.97218 16.7866 -6.97218 16.6456 -6.95658 16.4887C-6.83088 15.0148 -6.62718 13.6966 -6.37638 12.5206C-6.31368 12.2386 -6.25068 11.9716 -6.18828 11.7052C-6.14118 11.5168 -6.09408 11.3443 -6.04698 11.1568C-6.03138 11.0779 -5.99988 10.9837 -5.98428 10.9054C-5.67078 9.79215 -5.35698 8.85105 -5.05938 8.12985C-5.04378 8.09865 -5.02788 8.05095 -5.01228 8.03565C-4.69878 7.25145 -4.16538 5.94975 -3.28728 4.38135C-3.20868 4.25595 -3.13068 4.13025 -3.05208 3.98925C-3.02058 3.92655 -2.97348 3.84855 -2.92638 3.78555C-2.86368 3.67515 -2.80068 3.56565 -2.72238 3.45615C-2.01678 2.26395 -1.09188 0.946947 0.068819 -0.370353C0.0844188 -0.401553 0.11562 -0.433053 0.14712 -0.464553C0.88422 -1.32765 1.73082 -2.17365 2.68782 -3.02085C2.81292 -3.13095 2.92272 -3.24075 3.04842 -3.34995C3.18912 -3.46035 3.31482 -3.58575 3.45612 -3.69525C4.02042 -4.16625 4.61652 -4.62015 5.25942 -5.07525C5.44782 -5.21685 5.63592 -5.35785 5.83992 -5.48355C6.05922 -5.64045 6.26322 -5.74995 6.46692 -5.89095C6.51402 -5.92245 6.56112 -5.95365 6.60822 -5.98545C6.85902 -6.12705 7.09422 -6.29925 7.32972 -6.44025C7.72182 -6.65985 8.11392 -6.87915 8.49012 -7.08375C8.49012 -7.08375 8.50572 -7.09875 8.52162 -7.09875C8.88222 -7.28715 9.24312 -7.45965 9.58782 -7.63275C9.74472 -7.71075 9.88542 -7.77345 10.0426 -7.83645C10.2154 -7.91475 10.3879 -7.99335 10.5448 -8.07165C10.8898 -8.21235 11.2189 -8.35425 11.5327 -8.47965C11.5639 -8.47965 11.5954 -8.49495 11.6113 -8.51055C11.9407 -8.63595 12.2542 -8.74605 12.5368 -8.83965C13.2424 -9.09075 13.8379 -9.27915 14.293 -9.40455C14.3872 -9.43605 14.497 -9.46725 14.6065 -9.49905C15.5161 -9.74925 16.6924 -10.016 18.1663 -10.2203C18.292 -10.2356 18.4174 -10.2515 18.5425 -10.2671C18.6682 -10.283 18.8095 -10.2983 18.9346 -10.3145C19.8913 -10.4078 20.9578 -10.4708 22.1182 -10.4867C22.2439 -10.4867 22.3693 -10.502 22.5103 -10.502H22.6201C22.714 -10.502 22.8082 -10.4867 22.9021 -10.4867C23.263 -10.4867 23.6236 -10.4705 24.0157 -10.4399C24.157 -10.4399 24.2983 -10.4237 24.439 -10.4075C24.7216 -10.3922 24.9883 -10.3769 25.2703 -10.3454C25.678 -10.298 26.1016 -10.2512 26.4934 -10.1885C26.5876 -10.1723 26.6656 -10.1573 26.7442 -10.1411C27.1363 -10.0943 27.4969 -10.0316 27.8266 -9.95325C28.5163 -9.81165 29.1121 -9.67095 29.6611 -9.52995C30.8686 -9.21615 31.747 -8.91795 32.5936 -8.58885C32.6563 -8.57265 32.7193 -8.54145 32.782 -8.51025C33.0796 -8.40075 33.3622 -8.29125 33.676 -8.16555C33.6913 -8.14935 33.7228 -8.14935 33.7387 -8.13435C33.8482 -8.08755 33.9424 -8.04015 34.0522 -7.99335C34.7737 -7.69575 35.4946 -7.33425 36.2161 -6.94185C36.4831 -6.80115 36.7339 -6.62865 37.0003 -6.47175C37.1728 -6.37755 37.3297 -6.28335 37.5022 -6.18915C37.8316 -5.97015 38.1766 -5.76585 38.506 -5.54655C38.5687 -5.49915 38.6314 -5.45235 38.6941 -5.42085C39.0076 -5.20125 39.337 -4.96605 39.6346 -4.74615C40.717 -3.96225 41.6578 -3.17805 42.3166 -2.50395C42.8968 -1.92375 43.3831 -1.43745 43.8382 -0.951153C44.2771 -0.481053 44.6851 0.00524712 45.1237 0.538047C45.5005 1.00905 45.8926 1.52655 46.3312 2.16915C46.5196 2.45145 46.7077 2.71815 46.8802 2.98455C46.9117 3.04725 46.9429 3.10995 46.9903 3.15765C47.0374 3.25185 47.0842 3.32985 47.131 3.40785C47.1469 3.42405 47.1469 3.43905 47.1625 3.45525C48.2449 5.22735 48.9034 6.74865 49.1539 7.31325C49.5304 8.17545 49.9225 9.21074 50.2675 10.4182C50.5189 11.2336 50.7379 12.1273 50.9266 13.0999C50.9419 13.2256 50.9734 13.3513 51.0046 13.4758V13.5236C51.0988 14.0098 51.1774 14.5114 51.2401 15.0443C51.2401 15.1231 51.256 15.2323 51.2716 15.3268C51.3187 15.7816 51.3655 16.2364 51.3967 16.7227C51.4123 16.8169 51.4123 16.9268 51.4123 17.0368C51.4453 17.5553 51.4765 18.0892 51.4765 18.6535Z" fill="#F3AE00"/>
<path d="M47.1319 3.4104C47.0695 3.5523 46.9753 3.693 46.8811 3.8337L46.5517 4.3515C46.3948 4.5711 46.2541 4.8063 46.0969 5.0262C45.799 5.4495 45.4852 5.8569 45.1558 6.2652C45.1243 6.312 45.0931 6.3594 45.0616 6.3909C44.7172 6.8136 44.3719 7.2219 43.9954 7.6452C43.9168 7.7232 43.8391 7.8177 43.7605 7.8963C43.3528 8.3352 42.9451 8.7738 42.5056 9.1983C42.2077 9.48 41.9098 9.7464 41.5807 10.0131C41.5021 10.0758 41.4238 10.1232 41.3608 10.1862C41.0314 10.4364 40.7023 10.6875 40.357 10.9227C40.3261 10.9389 40.2946 10.9701 40.2634 10.9854C40.1848 11.0481 40.0906 11.1111 39.9964 11.1585C39.5575 11.4561 39.1027 11.7381 38.6164 12.0045C29.1913 17.2584 14.2303 17.1174 5.19704 11.6751C4.86764 11.4714 4.57004 11.2518 4.27214 11.0481C4.06814 10.9071 3.84884 10.7817 3.66014 10.6407C3.51944 10.5306 3.37814 10.4208 3.23684 10.3113C2.90744 10.0602 2.57834 9.7776 2.28014 9.5112C2.20154 9.4329 2.12324 9.3702 2.04464 9.3075C1.95074 9.213 1.85654 9.135 1.77824 9.0408C1.74704 9.0096 1.71554 8.9781 1.68404 8.9466C1.49594 8.7585 1.33904 8.6013 1.18184 8.4444L1.16654 8.4294C1.07204 8.3352 0.978141 8.241 0.89954 8.1468C0.88394 8.1468 0.883939 8.1315 0.868339 8.1315C0.209839 7.4256 -0.276758 6.861 -1.12336 5.763C-1.43716 5.3709 -2.14246 4.383 -2.72266 3.4581C-2.01706 2.2659 -1.09216 0.948901 0.0685439 -0.368399C0.0841439 -0.399599 0.11534 -0.4311 0.14684 -0.4626C0.88394 -1.3257 1.73054 -2.1717 2.68754 -3.0189C2.81264 -3.129 2.92244 -3.2388 3.04814 -3.348C3.18884 -3.4584 3.31454 -3.5838 3.45584 -3.6933C4.02014 -4.1643 4.61624 -4.6182 5.25914 -5.0733C5.44754 -5.2149 5.63564 -5.3559 5.83964 -5.4816C6.05894 -5.6385 6.26294 -5.748 6.46664 -5.889C6.51374 -5.9205 6.56084 -5.9517 6.60794 -5.9835C6.85874 -6.1251 7.09394 -6.2973 7.32944 -6.4383C7.72154 -6.6579 8.11364 -6.8772 8.48984 -7.0818C8.48984 -7.0818 8.50544 -7.0968 8.52134 -7.0968C8.88194 -7.2852 9.24284 -7.4577 9.58754 -7.6308C9.74444 -7.7088 9.88514 -7.7715 10.0423 -7.8345C10.2151 -7.9128 10.3876 -7.9914 10.5445 -8.0697C10.8895 -8.2104 11.2186 -8.3523 11.5324 -8.4777C11.5636 -8.4777 11.5951 -8.493 11.611 -8.5086C11.9404 -8.634 12.2539 -8.7441 12.5365 -8.8377C13.2421 -9.0888 13.8376 -9.2772 14.2927 -9.4026C14.3869 -9.4341 14.4967 -9.4653 14.6062 -9.4971C15.5158 -9.7473 16.6921 -10.014 18.166 -10.2183C18.2917 -10.2336 18.4171 -10.2495 18.5422 -10.2651C18.6679 -10.281 18.8092 -10.2963 18.9343 -10.3125C19.891 -10.4058 20.9575 -10.4688 22.1179 -10.4847C22.2436 -10.4847 22.369 -10.5 22.51 -10.5H22.6198C22.7137 -10.5 22.8079 -10.4847 22.9018 -10.4847C23.2627 -10.4847 23.6233 -10.4685 24.0154 -10.4379C24.1567 -10.4379 24.298 -10.4217 24.4387 -10.4055C24.7213 -10.3902 24.988 -10.3749 25.27 -10.3434C25.6777 -10.296 26.1013 -10.2492 26.4931 -10.1865C26.5873 -10.1703 26.6653 -10.1553 26.7439 -10.1391C27.136 -10.0923 27.4966 -10.0296 27.8263 -9.9513C28.516 -9.8097 29.1118 -9.669 29.6608 -9.528C30.8683 -9.2142 31.7467 -8.916 32.5933 -8.5869C32.656 -8.5707 32.719 -8.5395 32.7817 -8.5083C33.0793 -8.3988 33.3619 -8.2893 33.6757 -8.1636C33.691 -8.1474 33.7225 -8.1474 33.7384 -8.1324C33.8479 -8.0856 33.9421 -8.0382 34.0519 -7.9914C34.7734 -7.6938 35.4943 -7.3323 36.2158 -6.9399C36.4828 -6.7992 36.7336 -6.6267 37 -6.4698C37.1725 -6.3756 37.3294 -6.2814 37.5019 -6.1872C37.8313 -5.9682 38.1763 -5.7639 38.5057 -5.5446C38.5684 -5.4972 38.6311 -5.4504 38.6938 -5.4189C39.0073 -5.1993 39.3367 -4.9641 39.6343 -4.7442C40.7167 -3.9603 41.6575 -3.1761 42.3163 -2.502C42.8965 -1.9218 43.3828 -1.4355 43.8379 -0.9492C44.2768 -0.479099 44.6848 0.00720119 45.1234 0.540001C45.5002 1.011 45.8923 1.5285 46.3309 2.1711C46.5193 2.4534 46.7074 2.7201 46.8799 2.9865C46.9114 3.0492 46.9426 3.1119 46.99 3.1596C47.0383 3.2541 47.0848 3.3321 47.1319 3.4104Z" fill="#F6D13A"/>
<path d="M63.185 80.963L68.7542 77.7266L68.7215 89.2565L63.1523 92.4932L63.185 80.963Z" fill="#4E4C37"/>
<path d="M63.5169 80.2364L69.0858 77C68.883 77.1179 68.7573 77.3678 68.7564 77.7248L63.1875 80.9612C63.1884 80.6045 63.3141 80.3543 63.5169 80.2364Z" fill="#4E4C37"/>
<path d="M70.702 77.1596L65.1328 80.396C65.3356 80.2781 65.4622 80.0279 65.4631 79.6703L71.032 76.4336C71.0311 76.7912 70.9048 77.0417 70.702 77.1596Z" fill="#4E4C37"/>
<path d="M65.4757 75.2907L65.4634 79.6707C65.4613 80.3919 64.9495 80.6769 64.3273 80.3178C63.6997 79.9554 63.1879 80.2404 63.1858 80.9619L63.1531 92.4921L50.4847 85.1778L50.5171 73.6476C50.5192 72.9261 50.0164 72.0552 49.3942 71.6961C48.7666 71.3337 48.2638 70.4628 48.2656 69.7413L48.2782 65.3613L65.4757 75.2907Z" fill="#6B694C"/>
<path d="M65.4732 75.2908L71.0424 72.0547L71.0298 76.4344L65.4609 79.6711L65.4732 75.2908Z" fill="#4E4C37"/>
<path d="M48.2773 65.3614L53.8462 62.125L71.0443 72.0544L65.4751 75.2905L48.2773 65.3614Z" fill="#DEDA9D"/>
<path d="M57.671 52.9824V66.3591C57.671 66.7191 57.4331 67.0791 56.9576 67.3509C56.0135 67.8945 54.4778 67.8945 53.5337 67.3509C53.0579 67.0791 52.8203 66.7191 52.8269 66.3591H52.8203V52.9824H57.671Z" fill="#6B694C"/>
<path d="M56.9577 53.9706C56.0112 54.5169 54.4767 54.5169 53.5302 53.9706C52.5837 53.4243 52.5837 52.5381 53.5302 51.9918C54.4767 51.4455 56.0112 51.4455 56.9577 51.9918C57.9042 52.5381 57.9042 53.424 56.9577 53.9706Z" fill="#DEDA9D"/>
<path d="M66.7963 57.8477V71.2241C66.7963 71.5844 66.5584 71.9444 66.0829 72.2159C65.1385 72.7598 63.6034 72.7598 62.6587 72.2159C62.1832 71.9444 61.9453 71.5844 61.9522 71.2241H61.9453V57.8477H66.7963Z" fill="#6B694C"/>
<path d="M66.0866 58.8358C65.1401 59.3824 63.6056 59.3824 62.6591 58.8358C61.7126 58.2895 61.7126 57.4036 62.6591 56.857C63.6056 56.3107 65.1398 56.3107 66.0866 56.857C67.0331 57.4036 67.0331 58.2895 66.0866 58.8358Z" fill="#DEDA9D"/>
</g>
<defs>
<filter id="filter0_d_685_9683" x="-11.0508" y="-10.502" width="86.0952" height="143.002" filterUnits="userSpaceOnUse" color-interpolation-filters="sRGB">
<feFlood flood-opacity="0" result="BackgroundImageFix"/>
<feColorMatrix in="SourceAlpha" type="matrix" values="0 0 0 0 0 0 0 0 0 0 0 0 0 0 0 0 0 0 127 0" result="hardAlpha"/>
<feOffset dy="4"/>
<feGaussianBlur stdDeviation="2"/>
<feComposite in2="hardAlpha" operator="out"/>
<feColorMatrix type="matrix" values="0 0 0 0 0 0 0 0 0 0 0 0 0 0 0 0 0 0 0.15 0"/>
<feBlend mode="normal" in2="BackgroundImageFix" result="effect1_dropShadow_685_9683"/>
<feBlend mode="normal" in="SourceGraphic" in2="effect1_dropShadow_685_9683" result="shape"/>
</filter>
</defs>
</svg>
