<svg width="141" height="132" viewBox="0 0 141 132" fill="none" xmlns="http://www.w3.org/2000/svg">
<g filter="url(#filter0_d_685_9464)">
<path fill-rule="evenodd" clip-rule="evenodd" d="M-12.9793 51.7363H-11.3336C-11.3336 37.9641 -0.20352 26.791 13.5684 26.791C14.9977 26.791 16.3832 26.9211 17.7258 27.1375C19.2852 13.3227 31.0215 2.58203 45.2695 2.58203C59.5176 2.58203 71.2539 13.3223 72.8133 27.1375C72.9867 27.1375 73.2027 27.0941 73.3762 27.0512V81.9219H-12.9793C-21.2941 81.9219 -28.0938 75.1227 -28.0938 66.8074C-28.0938 58.5359 -21.2945 51.7363 -12.9793 51.7363Z" fill="#898761"/>
<path fill-rule="evenodd" clip-rule="evenodd" d="M2.43828 59.791H4.08399C4.08399 46.0195 15.2578 34.8895 29.0293 34.8895C30.4152 34.8895 31.8012 35.0191 33.1871 35.2359C34.7461 21.4207 46.482 10.6367 60.7305 10.6367C74.9793 10.6367 86.7152 21.4203 88.2742 35.2359C89.6168 35.0191 91.0027 34.8895 92.432 34.8895C106.204 34.8895 117.377 46.0195 117.377 59.791H118.979C127.295 59.791 134.094 66.5902 134.094 74.9055C134.094 83.1773 127.295 89.9766 118.979 89.9766H2.43828C-5.83359 89.9766 -12.6328 83.1773 -12.6328 74.9055C-12.6328 66.5906 -5.83359 59.791 2.43828 59.791Z" fill="#DEDA9D"/>
<path fill-rule="evenodd" clip-rule="evenodd" d="M64.4121 89.9766V111.241H119.153V118.603H64.4121H57.05H2.26562V111.241H57.05V89.9766H64.4121Z" fill="#EBEBEB"/>
<path fill-rule="evenodd" clip-rule="evenodd" d="M46.8711 109.119H74.5879V121.418H46.8711V109.119Z" fill="#40494C"/>
</g>
<defs>
<filter id="filter0_d_685_9464" x="-34.0938" y="0.582031" width="174.188" height="130.836" filterUnits="userSpaceOnUse" color-interpolation-filters="sRGB">
<feFlood flood-opacity="0" result="BackgroundImageFix"/>
<feColorMatrix in="SourceAlpha" type="matrix" values="0 0 0 0 0 0 0 0 0 0 0 0 0 0 0 0 0 0 127 0" result="hardAlpha"/>
<feOffset dy="4"/>
<feGaussianBlur stdDeviation="3"/>
<feComposite in2="hardAlpha" operator="out"/>
<feColorMatrix type="matrix" values="0 0 0 0 0 0 0 0 0 0 0 0 0 0 0 0 0 0 0.15 0"/>
<feBlend mode="normal" in2="BackgroundImageFix" result="effect1_dropShadow_685_9464"/>
<feBlend mode="normal" in="SourceGraphic" in2="effect1_dropShadow_685_9464" result="shape"/>
</filter>
</defs>
</svg>
