<svg width="121" height="130" viewBox="0 0 121 130" fill="none" xmlns="http://www.w3.org/2000/svg">
<g filter="url(#filter0_d_685_9519)">
<path d="M-42.7424 51.8163C-42.5991 54.3276 -42.448 56.6245 -42.448 56.6245L69.9437 121.514L71.2258 117.616L72.9844 112.275L72.2366 107.487L71.8455 104.984C71.8377 104.94 71.8299 104.895 71.8224 104.85C71.5629 103.417 70.6758 101.902 69.5486 100.992L48.755 84.1157C47.47 83.0729 46.3212 81.5977 45.4903 79.9468C42.275 73.5596 32.5669 56.4222 17.0561 47.4668C-2.24667 36.3222 -26.3139 25.6342 -29.0915 25.4038C-31.0865 25.2406 -37.2533 28.8232 -40.4608 32.4413C-41.7159 33.8547 -42.5177 35.2705 -42.4441 36.4716C-42.3897 37.3349 -42.3783 38.1644 -42.3936 38.9473C-42.4476 42.0513 -42.9319 44.4602 -42.9937 45.6229C-43.0329 46.3617 -42.8896 49.204 -42.7424 51.8163Z" fill="#898761"/>
<path d="M35.1723 96.7981L37.1094 97.9164V76.4913L35.1723 75.373V96.7981Z" fill="#CFCFCF"/>
<path d="M5.44574 79.6357L7.38281 80.7539V59.3292L5.44574 58.2109V79.6357Z" fill="#CFCFCF"/>
<path d="M-37.2433 33.5643L43.5312 80.1994C41.2649 75.6347 31.8829 58.2488 16.1869 49.1867C-1.98063 38.6974 -24.6342 28.499 -27.2489 28.2242C-28.9887 28.0382 -34.1019 30.659 -37.2433 33.5643Z" fill="#CFCFCF"/>
<path d="M-34.946 33.9044L41.2266 77.8828C40.5371 76.5765 39.1579 74.0855 37.105 71.017C36.5162 70.136 35.8694 69.2033 35.1682 68.2437C30.7366 62.1519 24.1087 54.7514 15.4395 49.7462C12.8247 48.2365 10.1094 46.7269 7.37834 45.2531C6.73514 44.9043 6.09229 44.5597 5.44553 44.2177C-3.67341 39.3644 -12.7532 34.9853 -18.7497 32.3283C-19.4391 32.0243 -20.0862 31.7402 -20.6868 31.4874C-23.197 30.4093 -24.9207 29.7629 -25.5213 29.6758C-27.1597 29.4454 -31.9824 31.5094 -34.946 33.9044Z" fill="#545454"/>
<path d="M-42.7416 51.8164C-42.5983 54.3277 -42.4472 56.6246 -42.4472 56.6246L69.9444 121.514L71.2266 117.616L-42.7416 51.8164Z" fill="#2E2E2E"/>
<path d="M35.1688 68.2441V74.3857L37.1055 75.5039V71.0175C36.517 70.1364 35.8699 69.2038 35.1688 68.2441Z" fill="#CFCFCF"/>
<path d="M5.4461 44.2188V57.2257L7.37891 58.3418V45.2541C6.73606 44.9053 6.09286 44.5608 5.4461 44.2188Z" fill="#CFCFCF"/>
<path d="M38.6641 103.454L63.7539 117.94C63.7539 116.321 63.5214 114.626 63.0993 112.924C61.4218 106.235 56.731 99.4021 51.207 96.2128C45.6831 93.0235 40.9958 94.4414 39.3187 99.1938C38.8963 100.409 38.6641 101.835 38.6641 103.454Z" fill="#CFCFCF"/>
<path d="M40.134 104.302L41.5431 105.116L46.043 107.715L47.403 108.498L48.2798 109.003L54.1305 112.38L57.029 114.053L61.8642 116.844L62.2891 117.09C62.2891 116.871 62.2848 116.652 62.2713 116.428C62.2133 114.993 61.9538 113.507 61.5331 112.018C59.9275 106.324 55.9107 100.626 51.2096 97.9103C48.8835 96.5684 46.7232 96.1481 44.9429 96.5328C43.8112 96.7746 42.8362 97.3467 42.0625 98.2057L41.9822 98.2999C41.7002 98.6263 41.4453 98.9976 41.2263 99.4047C41.1011 99.6237 40.9937 99.8562 40.891 100.098C40.4021 101.251 40.134 102.665 40.134 104.302Z" fill="#2E2E2E"/>
<path d="M8.94844 64.5418C8.94844 64.7665 8.98614 65.0026 9.05689 65.2401C9.12978 65.4915 9.24035 65.7443 9.3776 65.9818C9.64071 66.4401 10.0055 66.8398 10.4105 67.0734L13.5305 68.875C14.1431 69.2287 14.6672 69.0972 14.8837 68.6044C14.9545 68.4486 14.9922 68.2559 14.9922 68.0312C14.9922 67.804 14.9545 67.5679 14.8837 67.3304C14.8109 67.0787 14.7003 66.8263 14.5634 66.5912C14.3003 66.1329 13.933 65.7318 13.5305 65.4997L10.4105 63.6981C9.79786 63.3443 9.27377 63.4758 9.05724 63.9662C8.98613 64.1215 8.94844 64.3146 8.94844 64.5418Z" fill="#CFCFCF"/>
<path d="M8.94844 64.5405C8.94844 64.7652 8.98614 65.0013 9.05689 65.2388L14.8837 68.6031C14.9545 68.4473 14.9922 68.2546 14.9922 68.0299C14.9922 67.8027 14.9545 67.5666 14.8837 67.3291L9.05689 63.9648C8.98614 64.1202 8.94844 64.3133 8.94844 64.5405Z" fill="#545454"/>
<path d="M60.8185 96.1777L62.2827 101.742L72.2344 107.487L71.8433 104.985C71.8354 104.94 71.8276 104.895 71.8201 104.85L65.4671 99.841L60.8185 96.1777Z" fill="#E1E1E1"/>
<path d="M62.2844 101.741L65.4688 103.579V99.84L65.0908 99.542C63.1935 98.0472 61.6341 99.2693 62.2844 101.741Z" fill="#CFCFCF"/>
<path d="M-33.5645 27.0622C-31.668 25.9931 -29.9727 25.3314 -29.0912 25.4028C-26.3136 25.6354 -2.24462 36.3213 17.0564 47.4679C22.7012 50.7287 27.5812 55.0676 31.6516 59.5853C38.7727 67.4712 43.4468 75.8847 45.4909 79.9462C45.8173 80.5994 46.1978 81.2212 46.6138 81.8026C47.2534 82.6929 47.978 83.4844 48.7563 84.1151L69.551 100.992C70.0161 101.372 70.441 101.85 70.799 102.387C71.3043 103.143 71.6712 104.011 71.8234 104.852C71.8323 104.897 71.8369 104.941 71.8458 104.986L72.2394 107.486L72.9864 112.277L71.2421 117.578L71.2286 117.613L69.945 121.514L113.959 96.1165L115.238 92.2161L115.256 92.1667L117 86.8792L116.249 82.0884L115.859 79.5882C115.85 79.5434 115.846 79.4986 115.837 79.4541C115.685 78.6086 115.314 77.7411 114.804 76.9805C114.45 76.4482 114.025 75.9693 113.56 75.5939L92.7699 58.7174C91.9916 58.0824 91.2581 57.2905 90.6231 56.396C90.2071 55.8189 89.8312 55.1974 89.5045 54.5485C87.4604 50.4823 82.7863 42.0688 75.6606 34.1787C71.5859 29.6653 66.7102 25.3268 61.07 22.0702C41.769 10.9235 17.7 0.237657 14.9223 0.00512327C13.5762 -0.102255 10.3332 1.49028 7.381 3.65064L7.37211 3.65491L-33.5645 27.0622Z" fill="#DEDA9D"/>
<path d="M69.9446 121.514L80.456 115.449L84.9736 112.841L103.393 102.213L107.911 99.6052L113.958 96.1161L115.238 92.2157L115.255 92.1663L117 86.8795L116.249 82.0887L116.209 81.8203V81.8157L115.891 79.7759L115.859 79.5881C115.85 79.5433 115.846 79.4985 115.837 79.4541C115.685 78.6086 115.314 77.741 114.804 76.9805L70.7987 102.387C71.3039 103.143 71.6709 104.011 71.8231 104.851C71.8319 104.896 71.8366 104.941 71.8455 104.985L71.8767 105.191L72.2302 107.437L72.2391 107.486L72.9861 112.277L71.2417 117.577L71.2282 117.613L69.9446 121.514Z" fill="#CFCFCF"/>
<path d="M69.9429 121.513L113.956 96.1155L115.236 92.2154L115.254 92.166L71.24 117.577L71.2265 117.613L69.9429 121.513Z" fill="#3D3D3D"/>
<path d="M31.6535 59.5863C38.7746 67.4722 43.4487 75.8857 45.4928 79.9472C45.8192 80.6004 46.1997 81.2222 46.6157 81.8036L90.625 56.397C90.209 55.8199 89.8332 55.1984 89.5064 54.5495C87.4623 50.4834 82.7882 42.0698 75.6625 34.1797L31.6535 59.5863Z" fill="#CFCFCF"/>
<path d="M36.0305 58.3026C35.003 58.8961 34.7701 60.2738 35.5377 61.1787C41.2401 67.9012 45.0225 74.7354 46.7534 78.1747C46.7562 78.1807 46.7594 78.1868 46.7623 78.1928C47.2462 79.1564 48.4597 79.492 49.3934 78.953L86.5579 57.4984C87.4425 56.9878 87.7565 55.8738 87.2864 54.9672C87.2622 54.9206 87.2384 54.874 87.2149 54.8271C85.4382 51.2932 81.5005 44.1871 75.5406 37.2925C74.9408 36.5988 73.9367 36.4199 73.1424 36.8783L36.0305 58.3026Z" fill="#545454"/>
<path d="M71.7734 105.249L72.1944 107.455L75.0829 105.99L85.5234 100.693L79.5049 100.785L71.7734 105.249Z" fill="#E1E1E1"/>
<path d="M71.7725 105.249L72.1935 107.455L75.082 105.99V103.338L71.7725 105.249Z" fill="#E1E1E1"/>
<path d="M116.59 79.373L116.169 82.0657L113.28 83.9355L102.84 90.695L108.858 83.8371L116.59 79.373Z" fill="#E1E1E1"/>
<path d="M113.282 81.2849V83.9373L116.166 82.0675L116.207 81.8214V81.8168L115.889 79.7773L113.282 81.2849Z" fill="#E1E1E1"/>
<path d="M79.6964 108.013L108.667 91.2871C109.214 90.9717 109.656 90.1258 109.656 89.3977C109.656 88.6695 109.214 88.3345 108.667 88.6499L79.6964 105.376C79.1502 105.692 78.7076 106.538 78.7076 107.266C78.7072 107.994 79.1502 108.329 79.6964 108.013Z" fill="#3D3D3D"/>
<path d="M80.4552 115.448L84.9729 112.84L103.392 102.212L107.91 99.6048L105.356 95.6016L83.0049 108.506L80.4552 115.448Z" fill="#3D3D3D"/>
<path d="M85.6331 110.214L102.729 100.344C103.094 100.133 103.391 99.5669 103.391 99.0794C103.391 98.5923 103.094 98.3683 102.729 98.5795L85.6331 108.45C85.2676 108.661 84.9714 109.227 84.9714 109.714C84.9714 110.201 85.2676 110.425 85.6331 110.214Z" fill="#2E2E2E"/>
<path d="M84.971 112.84L103.391 102.212C103.386 101.859 103.221 101.648 102.988 101.648C102.908 101.648 102.823 101.675 102.729 101.729L85.6334 111.6C85.2708 111.806 84.9799 112.361 84.971 112.84Z" fill="#2E2E2E"/>
<path d="M92.3716 96.7662C92.3716 97.9183 93.1805 98.3851 94.1781 97.8091C95.1758 97.2331 95.9844 95.8322 95.9844 94.6802C95.9844 93.5282 95.1758 93.0614 94.1781 93.6374C93.1805 94.2137 92.3716 95.6142 92.3716 96.7662Z" fill="#E1E1E1"/>
<path d="M40.9155 98.8708L41.2242 99.4031L42.9554 102.391L43.8275 103.894C43.8322 103.898 43.8322 103.903 43.8322 103.903L45.8404 107.365C45.845 107.369 45.8492 107.369 45.8492 107.374L46.0416 107.713L46.7573 108.939L48.1796 111.395L49.0564 112.906L51.1765 116.565L51.9772 117.947L54.0213 121.468C54.0302 121.463 54.0391 121.459 54.048 121.454L54.6788 121.087C54.6923 121.083 54.7058 121.074 54.7147 121.065L60.9006 117.504L60.9142 117.496C61.2541 117.321 61.5716 117.107 61.8624 116.842C62.01 116.717 62.1486 116.579 62.2695 116.426C62.2116 114.991 61.952 113.505 61.5314 112.016C59.9257 106.322 55.909 100.624 51.2078 97.9083C48.8818 96.5664 46.7214 96.1462 44.9411 96.5309L42.0608 98.2038L41.7209 98.4054L40.9155 98.8708Z" fill="#3D3D3D"/>
<path d="M38.5853 104.609C38.5853 110.509 42.7275 117.684 47.8376 120.634C52.9473 123.584 57.0898 121.192 57.0898 115.292C57.0898 109.392 52.9476 102.218 47.8376 99.2675C42.7275 96.3174 38.5853 98.7089 38.5853 104.609Z" fill="#2E2E2E"/>
<path d="M41.4614 106.269C41.4614 110.336 44.3172 115.283 47.8401 117.316C51.3629 119.35 54.2188 117.701 54.2188 113.634C54.2188 109.566 51.3629 104.62 47.8401 102.586C44.3172 100.552 41.4614 102.201 41.4614 106.269Z" fill="#CFCFCF"/>
<path d="M46.7067 109.3C46.7067 110.021 47.213 110.898 47.8377 111.258C48.4624 111.619 48.9688 111.327 48.9688 110.606C48.9688 109.884 48.4624 109.007 47.8377 108.647C47.2134 108.286 46.7067 108.579 46.7067 109.3Z" fill="#BDBDBD"/>
<path d="M47.8345 107.756C48.1417 107.934 48.3906 107.745 48.3906 107.336V104.59C48.3906 104.181 48.1417 103.705 47.8345 103.528C47.5273 103.35 47.2784 103.539 47.2784 103.948V106.694C47.2784 107.103 47.5277 107.579 47.8345 107.756Z" fill="#BDBDBD"/>
<path d="M49.1811 109.176C49.3984 109.552 49.7507 109.755 49.968 109.63L51.7707 108.589C51.9879 108.464 51.9879 108.057 51.7707 107.681C51.5534 107.304 51.2014 107.101 50.9842 107.227L49.1811 108.267C48.9643 108.393 48.9643 108.799 49.1811 109.176Z" fill="#BDBDBD"/>
<path d="M49.7362 111.047C49.7362 111.402 49.952 111.814 50.218 111.967L52.9167 113.525C53.1826 113.679 53.3984 113.516 53.3984 113.161C53.3984 112.806 53.183 112.394 52.9167 112.241L50.218 110.683C49.952 110.529 49.7362 110.692 49.7362 111.047Z" fill="#BDBDBD"/>
<path d="M49.1811 112.279C48.9639 112.405 48.9639 112.811 49.1811 113.187L50.9842 116.31C51.2014 116.686 51.5538 116.89 51.7707 116.764C51.9879 116.639 51.9879 116.232 51.7707 115.856L49.968 112.733C49.7507 112.357 49.3987 112.154 49.1811 112.279Z" fill="#BDBDBD"/>
<path d="M47.8345 112.145C47.5273 111.967 47.2784 112.156 47.2784 112.566V115.311C47.2784 115.72 47.5277 116.196 47.8345 116.374C48.1417 116.551 48.3906 116.362 48.3906 115.953V113.208C48.391 112.798 48.1417 112.322 47.8345 112.145Z" fill="#BDBDBD"/>
<path d="M46.4933 110.727C46.2761 110.351 45.9237 110.148 45.7068 110.273L43.9038 111.314C43.6866 111.44 43.6866 111.846 43.9038 112.222C44.121 112.598 44.4734 112.802 44.6903 112.676L46.4933 111.636C46.7106 111.51 46.7106 111.104 46.4933 110.727Z" fill="#BDBDBD"/>
<path d="M45.9375 108.853C45.9375 108.498 45.7217 108.086 45.4557 107.932L42.7567 106.374C42.4907 106.221 42.2749 106.383 42.2749 106.738C42.2749 107.093 42.4907 107.505 42.7567 107.659L45.4557 109.217C45.7217 109.371 45.9375 109.207 45.9375 108.853Z" fill="#BDBDBD"/>
<path d="M46.4933 107.624C46.7106 107.498 46.7106 107.092 46.4933 106.716L44.6903 103.593C44.473 103.217 44.121 103.013 43.9038 103.139C43.6866 103.264 43.6866 103.671 43.9038 104.047L45.7068 107.17C45.9241 107.546 46.2764 107.749 46.4933 107.624Z" fill="#BDBDBD"/>
</g>
<defs>
<filter id="filter0_d_685_9519" x="-47.0005" y="0" width="168" height="129.898" filterUnits="userSpaceOnUse" color-interpolation-filters="sRGB">
<feFlood flood-opacity="0" result="BackgroundImageFix"/>
<feColorMatrix in="SourceAlpha" type="matrix" values="0 0 0 0 0 0 0 0 0 0 0 0 0 0 0 0 0 0 127 0" result="hardAlpha"/>
<feOffset dy="4"/>
<feGaussianBlur stdDeviation="2"/>
<feComposite in2="hardAlpha" operator="out"/>
<feColorMatrix type="matrix" values="0 0 0 0 0 0 0 0 0 0 0 0 0 0 0 0 0 0 0.25 0"/>
<feBlend mode="normal" in2="BackgroundImageFix" result="effect1_dropShadow_685_9519"/>
<feBlend mode="normal" in="SourceGraphic" in2="effect1_dropShadow_685_9519" result="shape"/>
</filter>
</defs>
</svg>
