<svg width="146" height="166" viewBox="0 0 146 166" fill="none" xmlns="http://www.w3.org/2000/svg">
<g filter="url(#filter0_d_685_9383)">
<path d="M-1 38.8898L43.4406 64.5477L121.191 19.6582L76.7508 -6L-1 38.8898Z" fill="#FCDFCF"/>
<path d="M-1 103.896L43.4406 129.554V64.5484L-1 38.8906V103.896Z" fill="#F7921E"/>
<path d="M43.4414 129.554L121.192 84.6637V19.6582L43.4414 64.5477V129.554Z" fill="#F7921E"/>
<path d="M-1 112.145L43.4406 137.802V72.7969L-1 47.1387V112.145Z" fill="#D1CD94"/>
<path d="M43.4414 137.804L121.192 92.9137V27.9082L43.4414 72.798V137.804Z" fill="#DEDA9D"/>
<path d="M-1 112.145L43.4406 137.803V131.377L-1 105.719V112.145Z" fill="#C2BC70"/>
<path d="M43.4414 137.804L121.192 92.9144V86.4883L43.4414 131.378V137.804Z" fill="#C2BC70"/>
<path d="M63.5117 126.213L80.2938 116.524V90.9922L63.5117 100.681V126.213Z" fill="#545253"/>
<path d="M84.182 29.3848C78.1398 32.873 73.2422 41.3566 73.2422 48.3336C73.2422 55.3105 78.1402 58.1383 84.182 54.6496C90.2242 51.1613 95.1219 42.6777 95.1219 35.7012C95.1219 28.7242 90.2238 25.8965 84.182 29.3848Z" fill="#FF2627"/>
<path d="M91.5816 34.8454L86.6922 37.6685V32.0224C86.6922 31.6884 86.4578 31.5529 86.1684 31.7201L82.1953 34.0138C81.9059 34.181 81.6715 34.5872 81.6715 34.9212V40.5673L76.7816 43.3904C76.4926 43.5572 76.2578 43.9634 76.2578 44.2974V48.8853C76.2578 49.2193 76.4926 49.3548 76.7816 49.1876L81.6715 46.3646V52.0111C81.6715 52.3451 81.9059 52.4806 82.1953 52.3134L86.1684 50.0197C86.4578 49.8525 86.6922 49.4462 86.6922 49.1122V43.4661L91.5816 40.6431C91.8711 40.4763 92.1055 40.0697 92.1055 39.7357V35.1482C92.1055 34.8138 91.8711 34.6783 91.5816 34.8454Z" fill="white"/>
<path d="M104.805 86.1809L118.116 78.4953V64.5469L104.805 72.2328V86.1809Z" fill="#9CCDF1"/>
<path d="M110.812 82.5523L112.16 81.7902V68.1484L110.812 68.9113V82.5523Z" fill="#FEFEFE"/>
<path d="M104.25 79.0551L118.67 70.7289V68.7852L104.25 77.1113V79.0551Z" fill="#FEFEFE"/>
<path d="M104.164 87.2902L118.756 78.866V63.4395L104.164 71.8641V87.2902ZM105.445 72.6031L117.476 65.6566V78.1269L105.445 85.0734V72.6031Z" fill="#FEFEFE"/>
<path d="M84.8242 97.718L98.1359 90.0324V76.084L84.8242 83.7699V97.718Z" fill="#9CCDF1"/>
<path d="M90.8281 94.0871L92.1754 93.325V79.6836L90.8281 80.4461V94.0871Z" fill="#FEFEFE"/>
<path d="M84.2695 90.5902L98.6902 82.2641V80.3203L84.2695 88.6465V90.5902Z" fill="#FEFEFE"/>
<path d="M84.1836 98.8258L98.7758 90.4016V74.9746L84.1836 83.3992V98.8258ZM85.4641 84.1387L97.4953 77.1922V89.6625L85.4641 96.609V84.1387Z" fill="#FEFEFE"/>
<path d="M104.805 60.7668L118.116 53.0809V39.1328L104.805 46.8184V60.7668Z" fill="#9CCDF1"/>
<path d="M110.812 57.1383L112.16 56.3762V42.7344L110.812 43.4969V57.1383Z" fill="#FEFEFE"/>
<path d="M104.25 53.6391L118.67 45.3129V43.3691L104.25 51.6953V53.6391Z" fill="#FEFEFE"/>
<path d="M104.164 61.8746L118.756 53.4504V38.0234L104.164 46.448V61.8746ZM105.445 47.1875L117.476 40.241V52.7113L105.445 59.6578V47.1875Z" fill="#FEFEFE"/>
<path d="M84.8242 72.302L98.1359 64.6164V50.668L84.8242 58.3535V72.302Z" fill="#9CCDF1"/>
<path d="M90.8281 68.6734L92.1754 67.9113V54.2695L90.8281 55.0324V68.6734Z" fill="#FEFEFE"/>
<path d="M84.2695 65.1742L98.6902 56.848V54.9043L84.2695 63.2305V65.1742Z" fill="#FEFEFE"/>
<path d="M84.1836 73.4098L98.7758 64.9856V49.5586L84.1836 57.9832V73.4098ZM85.4641 58.7227L97.4953 51.7762V64.2465L85.4641 71.193V58.7227Z" fill="#FEFEFE"/>
<path d="M65.7812 83.298L79.093 75.6121V61.6641L65.7812 69.3496V83.298Z" fill="#9CCDF1"/>
<path d="M71.7891 79.6676L73.1363 78.9051V65.2637L71.7891 66.0262V79.6676Z" fill="#FEFEFE"/>
<path d="M65.2266 76.1703L79.6473 67.8441V65.9004L65.2266 74.2262V76.1703Z" fill="#FEFEFE"/>
<path d="M65.1406 84.4055L79.7324 75.9812V60.5547L65.1406 68.9793V84.4055ZM66.4207 69.7184L78.452 62.7719V75.2422L66.4207 82.1887V69.7184Z" fill="#FEFEFE"/>
<path d="M48.1406 93.4816L61.4523 85.7961V71.8477L48.1406 79.5336V93.4816Z" fill="#9CCDF1"/>
<path d="M54.1484 89.8508L55.4957 89.0887V75.4473L54.1484 76.2098V89.8508Z" fill="#FEFEFE"/>
<path d="M47.5859 86.3539L62.0066 78.0277V76.084L47.5859 84.4102V86.3539Z" fill="#FEFEFE"/>
<path d="M47.5 94.5891L62.0918 86.1648V70.7383L47.5 79.1629V94.5891ZM48.7805 79.902L60.8117 72.9555V85.4258L48.7805 92.3723V79.902Z" fill="#FEFEFE"/>
<path d="M48.1406 118.896L61.4523 111.21V97.2617L48.1406 104.948V118.896Z" fill="#9CCDF1"/>
<path d="M54.1484 115.267L55.4957 114.505V100.863L54.1484 101.626V115.267Z" fill="#FEFEFE"/>
<path d="M47.5859 111.766L62.0066 103.44V101.496L47.5859 109.822V111.766Z" fill="#FEFEFE"/>
<path d="M47.5 120.003L62.0918 111.579V96.1523L47.5 104.577V120.003ZM48.7805 105.316L60.8117 98.3695V110.84L48.7805 117.786V105.316Z" fill="#FEFEFE"/>
<path d="M13.6094 109.32L26.9207 117.005V103.057L13.6094 95.3711V109.32Z" fill="#9CCDF1"/>
<path d="M19.5664 112.614L20.9137 113.377V99.7352L19.5664 98.9727V112.614Z" fill="#FEFEFE"/>
<path d="M13.0547 101.553L27.4754 109.879V107.936L13.0547 99.6094V101.553Z" fill="#FEFEFE"/>
<path d="M12.9688 109.69L27.5605 118.114V102.688L12.9688 94.2637V109.69ZM14.2488 96.4809L26.2801 103.427V115.898L14.2488 108.951V96.4809Z" fill="#FEFEFE"/>
<path d="M13.6094 83.9051L26.9207 91.591V77.6426L13.6094 69.957V83.9051Z" fill="#9CCDF1"/>
<path d="M19.5664 87.1984L20.9137 87.9605V74.3191L19.5664 73.5566V87.1984Z" fill="#FEFEFE"/>
<path d="M13.0547 76.1348L27.4754 84.4613V82.5176L13.0547 74.1914V76.1348Z" fill="#FEFEFE"/>
<path d="M12.9688 84.2742L27.5605 92.6984V77.2723L12.9688 68.8477V84.2742ZM14.2488 71.0648L26.2801 78.0113V90.4816L14.2488 83.5351V71.0648Z" fill="#FEFEFE"/>
</g>
<defs>
<filter id="filter0_d_685_9383" x="-25" y="-25" width="170.192" height="191.805" filterUnits="userSpaceOnUse" color-interpolation-filters="sRGB">
<feFlood flood-opacity="0" result="BackgroundImageFix"/>
<feColorMatrix in="SourceAlpha" type="matrix" values="0 0 0 0 0 0 0 0 0 0 0 0 0 0 0 0 0 0 127 0" result="hardAlpha"/>
<feOffset dy="5"/>
<feGaussianBlur stdDeviation="12"/>
<feComposite in2="hardAlpha" operator="out"/>
<feColorMatrix type="matrix" values="0 0 0 0 0 0 0 0 0 0 0 0 0 0 0 0 0 0 0.25 0"/>
<feBlend mode="normal" in2="BackgroundImageFix" result="effect1_dropShadow_685_9383"/>
<feBlend mode="normal" in="SourceGraphic" in2="effect1_dropShadow_685_9383" result="shape"/>
</filter>
</defs>
</svg>
