<svg width="158" height="153" viewBox="0 0 158 153" fill="none" xmlns="http://www.w3.org/2000/svg">
<g filter="url(#filter0_d_685_9480)">
<path d="M102.226 4.49921L99.6764 19.4506C98.8729 24.0108 97.3147 28.707 95.0987 33.436C93.3216 37.1707 91.5706 40.9619 91.328 41.5735L83.0451 61.5878L101.19 113.553L106.286 106.788C109.197 102.631 110.641 103.642 107.731 107.799L92.101 130.12C91.6738 130.731 90.7758 130.746 90.3276 130.151L61.6752 92.1061L58.7551 95.7644L65.8715 126.434C66.4003 128.713 65.9357 131.11 64.5938 133.026L59.5431 140.239C59.427 140.405 59.1757 140.386 59.0856 140.205L46.9259 115.682C46.049 113.914 44.8915 112.298 43.4988 110.899L34.2292 101.587L22.3077 96.0607C20.5166 95.2304 18.603 94.6954 16.6413 94.4763L-10.5613 91.4371C-10.7626 91.4147 -10.866 91.185 -10.7499 91.0191L-5.69936 83.8062C-4.35751 81.8899 -2.26449 80.6337 0.0578704 80.3511L31.3122 76.5486L33.751 72.5534L-11.7993 58.6409C-12.5115 58.4233 -12.8042 57.5742 -12.377 56.9641L3.25266 34.6427C6.16336 30.4858 7.6077 31.4971 4.697 35.654L0.0824606 42.757L55.1204 42.0343L71.2811 27.239C71.7931 26.815 74.8889 23.9862 77.8925 21.1537C81.7508 17.5618 85.7007 14.4666 89.6374 12.035L102.226 4.49921Z" fill="#BDB986"/>
<path d="M15.3593 78.6693C15.5852 78.9882 11.3318 83.828 11.0543 84.7297C9.9224 88.4113 18.1902 89.6096 20.2966 90.6492C20.8283 90.9115 22.5497 90.6167 22.7328 91.461C23.431 94.6917 18.433 94.6773 16.6439 94.4773C16.6405 94.4768 -10.5587 91.4382 -10.5587 91.4382C-10.76 91.4158 -10.8634 91.186 -10.7473 91.0202L-5.69676 83.8073C-4.35491 81.8909 -2.26207 80.635 0.0604684 80.3522C1.41428 80.1873 2.76835 80.0227 4.12241 79.8581C5.62047 79.6757 7.11879 79.4935 8.61686 79.3111C9.56476 79.1957 10.5129 79.0805 11.461 78.9649C11.8585 78.9163 12.3255 78.7817 12.7316 78.8491C13.2801 78.9406 13.5366 78.9666 14.0885 78.7667C14.4413 78.6387 15.0274 78.3441 15.3593 78.6693Z" fill="#DEDA9D"/>
<path d="M62.2196 111.483C61.843 111.38 58.7495 117.032 57.9971 117.601C54.9246 119.924 50.9709 112.564 49.2738 110.941C48.8455 110.531 48.5337 108.812 47.6777 108.929C44.403 109.378 46.126 114.07 46.9258 115.683C46.9275 115.686 59.0856 140.205 59.0856 140.205C59.1754 140.387 59.427 140.405 59.5431 140.24L64.5936 133.027C65.9355 131.11 66.3999 128.714 65.8713 126.435C65.5629 125.106 65.2545 123.778 64.9463 122.449C64.6053 120.979 64.2641 119.509 63.9231 118.039C63.7071 117.108 63.4913 116.178 63.2757 115.247C63.1854 114.857 63.1521 114.372 62.9499 114.014C62.6766 113.53 62.5644 113.298 62.5633 112.711C62.5624 112.335 62.6387 111.683 62.2196 111.483Z" fill="#DEDA9D"/>
<path d="M49.73 47.8036C51.5408 45.1733 53.0303 42.3854 51.2978 42.0864C50.6829 41.9802 49.9548 42.1015 49.3398 42.11C47.8242 42.1299 46.3091 42.1497 44.7936 42.1696C29.8905 42.3652 14.987 42.5608 0.0839402 42.7564L4.69848 35.6534C7.60917 31.4965 6.16483 30.4852 3.25431 34.6419L-2.59546 42.9962C-3.61642 44.4543 -4.65007 45.9039 -5.65786 47.3708C-5.95757 47.8074 -6.28686 48.2478 -6.49309 48.742C-7.08412 50.1589 -8.00158 51.3734 -8.85198 52.6449C-9.01978 52.8957 -9.18892 53.2309 -9.01436 53.4773C-8.91924 53.6114 -8.75058 53.6676 -8.59343 53.7157C-6.72124 54.2885 -5.09382 55.2066 -3.2171 55.7219C-1.79752 56.1265 -0.378117 56.5313 1.04171 56.9361C9.21819 59.2679 17.3949 61.5994 25.5715 63.9309C28.8122 64.855 32.0533 65.7776 35.2899 66.7167C35.5403 66.7892 35.8101 66.8618 36.0568 66.7773C36.3115 66.6898 36.4823 66.456 36.6363 66.235C39.8434 61.6314 43.0517 57.0287 46.2698 52.4328C46.6773 51.8502 48.3034 49.8761 49.73 47.8036Z" fill="#DEDA9D"/>
<path d="M79.4694 68.6282C81.3217 66.027 83.4323 63.6741 84.3055 65.1996C84.6157 65.7411 84.7504 66.4666 84.953 67.0476C85.4529 68.4783 85.9522 69.9091 86.4519 71.34C91.3653 85.4112 96.2785 99.4827 101.192 113.554L106.288 106.789C109.199 102.632 110.643 103.643 107.733 107.8L101.883 116.154C100.862 117.612 99.8532 119.079 98.8194 120.528C98.5119 120.959 98.2106 121.419 97.8165 121.782C96.6872 122.822 95.8598 124.099 94.9561 125.333C94.7778 125.577 94.5202 125.851 94.2294 125.771C94.0709 125.727 93.9604 125.588 93.8614 125.457C92.6826 123.894 91.2634 122.678 90.1372 121.091C89.2713 119.895 88.4055 118.7 87.5396 117.504C82.5521 110.618 77.5645 103.732 72.5768 96.846C70.6 94.1168 68.6245 91.3867 66.6351 88.6665C66.481 88.4558 66.3206 88.2271 66.3158 87.9666C66.3105 87.6974 66.4722 87.4568 66.6272 87.2366C69.8563 82.6484 73.084 78.0595 76.302 73.4636C76.7108 72.8809 78.0102 70.6775 79.4694 68.6282Z" fill="#DEDA9D"/>
<path d="M103.954 0.511472C104.589 0.118095 105.381 0.672381 105.238 1.40631C104.529 5.04172 102.913 12.9885 101.516 17.4438C90.4452 52.7344 70.4126 85.174 43.817 110.877C37.9528 104.174 30.3951 98.9643 22.0447 95.8673C21.4486 95.6464 36.4727 68.7619 37.9814 66.4177C44.0902 56.9273 50.9201 47.9016 58.3865 39.4382C65.3304 31.5674 72.8254 24.1824 80.8041 17.3624C84.7501 13.9897 88.8145 10.755 92.9886 7.66879C95.6948 5.66731 101.197 2.21742 103.954 0.511472Z" fill="#DEDA9D"/>
<path d="M76.1948 59.3909C69.6534 67.4515 62.3357 74.8521 54.2159 81.3337C53.1689 82.1693 52.0606 83.0126 50.751 83.2937C49.4411 83.5747 47.8744 83.1219 47.285 81.9188C46.9093 81.1525 46.9902 80.2496 47.108 79.4042C48.1547 71.8933 51.4194 64.8845 54.9556 58.1758C59.9851 48.6339 65.6477 39.4256 71.8943 30.6319C75.6788 25.3042 91.2073 2.00273 99.4753 11.5349C102.134 14.6 100.622 19.3203 98.8838 22.9861C92.7491 35.9224 85.2089 48.2834 76.1948 59.3909Z" fill="#D1CD94"/>
<path d="M73.4767 31.4186C73.5712 31.2853 73.6652 31.1521 73.7592 31.0185C75.4947 28.5532 77.2349 26.093 79.0797 23.7075C81.4525 20.6387 83.9617 17.6329 86.8129 14.9937C88.9426 13.0228 91.654 10.6876 94.6778 10.4041C95.8684 10.2924 97.0216 10.6164 97.9466 11.383C98.5873 11.914 99.4292 12.8006 99.4418 13.6717C99.4588 14.8497 97.9183 15.9727 96.8134 15.5898C96.2854 15.4068 95.8855 15.0686 95.367 14.9233C94.7915 14.7618 94.4602 14.4374 93.8338 14.6926C93.0116 15.0272 92.1798 15.2936 91.5143 15.8894C91.2087 16.163 90.827 16.3971 90.5307 16.6776C90.1166 17.0694 89.8497 17.5789 89.5201 18.0389C89.2141 18.4663 88.8538 18.6897 88.5001 19.0623C88.0773 19.5074 87.7576 20.1435 87.4041 20.6483C86.9304 21.3254 86.4144 21.984 85.9681 22.6784C85.5155 23.3822 85.2163 24.1524 84.7541 24.8513C82.9793 27.5351 81.2686 30.2173 79.4174 32.8611C78.6345 33.9792 76.7234 35.8146 77.1673 37.2666C77.7771 39.26 79.4204 40.8736 78.6093 43.052C78.2037 44.1414 77.4344 45.0499 76.6795 45.9338C68.8061 55.1556 61.1569 64.5646 53.4571 73.933C52.839 74.6853 51.9178 75.5195 51.0267 75.1274C50.072 74.7068 50.1557 73.3376 50.4334 72.332C51.87 67.1296 54.4065 62.4482 56.9889 57.7453C61.9691 48.6774 67.4809 39.8761 73.4767 31.4186Z" fill="#DEDA9D"/>
<path d="M43.0439 70.4708L21.4603 73.4149C20.4559 73.5518 19.5544 74.102 18.973 74.9322L12.8717 83.6457C12.1645 84.6558 13.9585 87.0061 15.1189 87.4236L44.3917 71.4145L43.0439 70.4708Z" fill="#EDE9A8"/>
<path d="M44.3916 71.4141L22.8079 74.3582C21.8035 74.4952 20.902 75.0453 20.3207 75.8755L14.2194 84.5891C13.5121 85.5992 13.9583 87.0058 15.1188 87.4232L25.4661 91.146L44.3916 71.4141Z" fill="#D1CD94"/>
<path d="M60.4569 82.6623L65.0724 103.951C65.2872 104.942 65.0786 105.977 64.4973 106.807L58.396 115.521C57.6887 116.531 54.8668 115.649 54.0776 114.702L59.1094 81.7188L60.4569 82.6623Z" fill="#D1CD94"/>
<path d="M59.1094 81.7168L63.7249 103.006C63.9397 103.996 63.7311 105.032 63.1498 105.862L57.0485 114.575C56.3412 115.586 54.8671 115.648 54.0779 114.7L47.0406 106.25L59.1094 81.7168Z" fill="#EDE9A8"/>
<path d="M96.7601 22.4849L86.2889 37.4393C85.3622 38.7628 83.9907 39.5848 82.5103 39.8458C81.1876 40.0791 79.7966 39.8663 78.5707 39.1462C78.4231 39.0604 78.2757 38.9744 78.1364 38.8768C77.8692 38.6897 77.6186 38.4796 77.3956 38.2545C75.3802 36.2896 75.0323 33.1044 76.6989 30.7243L87.1701 15.7698C88.8204 13.413 91.901 12.6459 94.4301 13.8282C94.7297 13.969 95.0244 14.1407 95.3148 14.344C97.9618 16.1975 98.6138 19.8376 96.7601 22.4849Z" fill="#EF6111"/>
<path d="M88.8028 32.348C88.7239 32.433 88.6451 32.5168 88.5658 32.5996C88.3345 32.8421 88.083 33.0869 87.762 33.1843C87.3974 33.295 86.9949 33.1943 86.6671 33.0002C86.446 32.8693 85.5373 32.2423 85.499 31.9605C85.3306 30.7045 88.3116 26.0346 89.7825 26.1859C89.9786 26.2062 90.157 26.3065 90.322 26.4142C90.6865 26.6519 91.0204 26.9364 91.3128 27.2582C91.4383 27.3964 91.5601 27.5488 91.601 27.731C91.6524 27.9589 91.5697 28.1941 91.4814 28.4107C90.8894 29.8717 89.8755 31.1919 88.8028 32.348Z" fill="#F3901E"/>
<path d="M79.9665 32.6992C79.9971 32.7508 80.0217 32.8004 80.0339 32.841C80.3671 33.9303 78.7958 35.5414 78.1343 36.28C77.9343 36.5034 77.3935 36.5475 77.1267 36.4009C75.7636 35.6515 75.9007 33.1388 76.4133 31.9536C76.5614 31.6111 76.7824 31.263 77.1356 31.1419C77.4623 31.0299 77.8244 31.1411 78.1282 31.305C78.6112 31.5656 79.1142 31.8247 79.4934 32.2255C79.574 32.311 79.6843 32.3521 79.7648 32.432C79.8247 32.4903 79.9069 32.5986 79.9665 32.6992Z" fill="#F3901E"/>
<path d="M95.2326 21.3353C94.8184 21.8863 94.3847 22.4233 93.9378 22.948C93.7066 23.2197 92.8148 24.3958 92.4939 24.1625C92.287 24.0124 92.1536 23.8366 91.956 23.6871C91.7674 23.5449 91.5662 23.4123 91.3708 23.2792C90.7616 22.8645 93.3504 19.8824 93.711 19.3737C94.3965 18.4069 94.995 17.491 95.5366 16.4477C95.7907 15.958 96.3062 15.8607 96.6697 16.2812C96.9785 16.6383 96.9388 17.8832 96.8831 18.2994C96.7724 19.1229 96.2903 19.847 95.8262 20.5152C95.6332 20.7924 95.4352 21.0656 95.2326 21.3353Z" fill="#F3901E"/>
<path d="M90.8731 18.0639C88.7918 21.0539 86.7162 24.048 84.6301 27.0346C83.9973 27.9406 83.3726 28.8519 82.7651 29.7754C82.2973 30.486 81.9009 31.9125 81.0168 31.3874C80.8703 31.3 80.7108 31.2324 80.5573 31.1588C79.8647 30.8259 79.1309 30.4907 78.5509 29.9764C78.2595 29.718 77.9448 29.3407 78.0773 28.9231C78.191 28.5647 78.4884 28.2529 78.6934 27.9532C79.3229 27.0329 79.9386 26.103 80.5781 25.1897C82.3382 22.676 84.1212 20.2264 85.7775 17.6433C86.7623 16.1074 87.9525 14.6105 89.6017 13.8301C90.0342 13.6256 90.5787 13.58 91.0458 13.5187C91.3555 13.4779 91.6666 13.4493 91.9785 13.4314C92.3382 13.4107 92.6926 13.4594 93.0342 13.5726C93.2587 13.647 93.4911 13.7442 93.6824 13.8852C93.7074 13.9038 93.7346 13.9273 93.7355 13.9585C93.7364 13.9822 93.7217 14.0037 93.7078 14.023C92.7423 15.3545 91.8131 16.7135 90.8731 18.0639Z" fill="#F3901E"/>
<path d="M39.3599 89.7642C40.7033 87.8456 40.237 85.2011 38.3184 83.8576C35.4708 81.8637 25.2437 91.4841 22.7022 95.1137L19.4121 98.9904C18.4874 100.31 27.5379 106.648 28.4624 105.327L39.3599 89.7642Z" fill="#EF6111"/>
<path d="M30.0962 97.8791C29.3558 96.7031 26.5783 94.6591 26.0323 94.1381C25.6661 93.7885 25.2476 93.4168 24.7406 93.4141C23.8821 93.4098 22.5652 95.1345 22.0189 95.7417C21.7067 96.089 21.5158 96.5145 21.2306 96.8781C20.6657 97.5998 19.9398 98.2334 19.41 98.9916C19.1915 99.3042 19.5219 99.7651 19.6972 100.013C20.3054 100.875 21.1773 101.578 21.9978 102.226C22.8439 102.894 23.7867 103.716 24.8258 104.062C27.2075 104.854 28.5073 100.96 29.533 99.4948C29.7506 99.1842 30.1105 98.8245 30.2547 98.4807C30.3165 98.3327 30.251 98.125 30.0962 97.8791Z" fill="#F7921F"/>
<path d="M43.505 92.6674C44.8484 90.7488 47.4929 90.2825 49.4115 91.6259C52.2592 93.6198 46.7168 106.52 44.1753 110.15L41.6577 114.568C40.7332 115.888 31.683 109.551 32.6075 108.231L43.505 92.6674Z" fill="#EF6111"/>
<path d="M38.206 103.476C38.4135 103.545 38.6233 103.593 38.8387 103.566C39.8609 103.437 40.1618 102.338 40.8705 101.733C43.1216 99.8103 44.7459 96.4992 46.4518 94.0933C46.6272 93.8459 46.8149 93.5881 47.0892 93.4593C47.3639 93.3306 47.7506 93.3874 47.8861 93.6586C47.9573 93.8013 47.9462 93.9699 47.9319 94.1287C47.4892 99.1187 45.7255 103.898 43.7456 108.46C43.0799 109.994 42.3222 113.188 40.6659 113.95C39.1387 114.654 37.4525 113.109 36.301 112.292C35.1331 111.465 32.5619 110.365 33.2839 108.591C33.7241 107.51 34.4379 106.599 35.0715 105.631C35.5666 104.874 36.0164 103.583 36.9481 103.259C37.3737 103.111 37.7847 103.336 38.206 103.476Z" fill="#F7921F"/>
<path d="M89.0522 24.5982C87.3437 27.0872 85.5772 29.536 83.7956 31.9568C85.2365 32.914 86.7122 33.8954 87.9312 35.0949C88.5508 35.5288 87.5264 36.9919 86.9068 36.558C85.5438 35.465 84.1238 34.4536 82.6957 33.4536C81.2997 35.3484 79.9038 37.2434 78.5706 39.1475C78.1994 39.6365 77.0244 38.7448 77.3955 38.2557C78.7288 36.3516 80.0422 34.4508 81.364 32.5386C80.2841 31.7825 79.1115 31.1344 78.0595 30.3635C77.8238 30.1809 77.5928 29.9673 77.3735 29.7619C76.7986 29.3594 77.7823 27.9546 78.3571 28.3571C79.6621 29.0633 80.9113 29.9726 82.0064 30.7566L82.4011 31.033C84.1374 28.5283 85.8736 26.0243 87.6019 23.5315C86.2748 22.5848 84.9383 21.7011 83.5439 20.9496C82.9691 20.5471 83.7415 19.444 84.3164 19.8465C85.7759 20.505 87.1529 21.3308 88.5007 22.2228C90.4565 19.4047 92.4157 16.6066 94.4296 13.8295C94.7801 13.2283 95.6649 13.7439 95.3143 14.3453C93.7265 17.4036 91.9054 20.3503 89.9749 23.2554C91.3717 24.2506 92.7198 25.3157 94.0525 26.3529C94.6721 26.7867 93.6884 28.1915 93.0688 27.7577C91.7565 26.7165 90.4245 25.6283 89.0522 24.5982Z" fill="#EDE9A8"/>
<path d="M82.3524 34.6971C82.1962 34.8238 82.0584 34.9875 81.9423 35.1481C81.2854 36.0559 79.7569 38.5104 82.0482 38.0842C83.1664 37.8763 84.2044 38.0667 84.8561 36.8708C84.9451 36.7075 85.0154 36.523 84.9888 36.3389C84.9582 36.1266 84.8066 35.9545 84.6584 35.7993C84.3412 35.4664 84.0095 35.1474 83.6651 34.8428C83.4742 34.6741 83.2635 34.5027 83.0107 34.4703C82.7674 34.4393 82.5459 34.54 82.3524 34.6971Z" fill="#F3901E"/>
<path d="M22.5489 96.7833C22.8611 96.486 23.2486 96.2462 23.6848 96.294C23.7385 96.2999 23.7943 96.3118 23.8344 96.3477C23.8829 96.3913 23.8979 96.4604 23.91 96.5244C24.0828 97.4368 23.7354 98.1964 23.1376 98.8794C22.853 99.2043 22.5074 99.5013 22.0454 99.4686C21.687 99.4432 21.3417 99.1723 21.2915 98.8166C21.2058 98.2101 21.8775 97.5628 22.2246 97.1374C22.3208 97.0191 22.4295 96.8969 22.5489 96.7833Z" fill="#EF6111"/>
<path d="M35.7638 106.975C36.076 106.677 36.4633 106.438 36.8997 106.485C36.9533 106.491 37.0091 106.503 37.0492 106.539C37.0977 106.583 37.1125 106.652 37.1249 106.716C37.2976 107.628 36.9501 108.388 36.3524 109.071C36.0679 109.396 35.7223 109.693 35.2602 109.66C34.9016 109.634 34.5566 109.364 34.5063 109.008C34.4207 108.401 35.0923 107.754 35.4394 107.329C35.5357 107.211 35.6444 107.089 35.7638 106.975Z" fill="#EF6111"/>
</g>
<defs>
<filter id="filter0_d_685_9480" x="-16.5757" y="0.380859" width="129.898" height="147.973" filterUnits="userSpaceOnUse" color-interpolation-filters="sRGB">
<feFlood flood-opacity="0" result="BackgroundImageFix"/>
<feColorMatrix in="SourceAlpha" type="matrix" values="0 0 0 0 0 0 0 0 0 0 0 0 0 0 0 0 0 0 127 0" result="hardAlpha"/>
<feOffset dy="4"/>
<feGaussianBlur stdDeviation="2"/>
<feComposite in2="hardAlpha" operator="out"/>
<feColorMatrix type="matrix" values="0 0 0 0 0 0 0 0 0 0 0 0 0 0 0 0 0 0 0.25 0"/>
<feBlend mode="normal" in2="BackgroundImageFix" result="effect1_dropShadow_685_9480"/>
<feBlend mode="normal" in="SourceGraphic" in2="effect1_dropShadow_685_9480" result="shape"/>
</filter>
</defs>
</svg>
