<svg width="152" height="88" viewBox="0 0 152 88" fill="none" xmlns="http://www.w3.org/2000/svg">
<g filter="url(#filter0_d_685_9615)">
<path d="M-8.87964 48.8301L92.434 50.5344C101.501 50.0696 108.211 55.743 107.152 62.2825C106.288 66.2114 101.544 70.8473 95.5817 74.9708C91.009 78.1333 85.5473 79.7669 79.9875 79.7337L1.57818 79.2657C-5.05463 79.2259 -11.4668 76.7899 -16.4152 72.3727C-21.8695 67.504 -25.7 62.9583 -25.8113 59.4618C-25.7386 53.8751 -18.389 48.711 -8.87964 48.8301Z" fill="#96936A"/>
<path d="M80.1487 76.9469C85.1682 76.9469 89.9561 75.4707 93.9948 72.6773C99.8631 68.6199 103.748 64.5461 104.41 61.757C104.725 59.6438 103.789 58.0195 102.941 57.0234C100.955 54.6887 97.4139 53.2938 93.4694 53.2938C93.1756 53.2938 92.8764 53.302 92.5752 53.3168L92.3862 53.3207L-9.20485 51.6133C-17.0572 51.6133 -22.9787 55.7754 -23.0263 59.4969C-22.9869 60.6656 -21.8318 63.8031 -14.5619 70.2938C-10.1341 74.2449 -4.39664 76.4426 1.59438 76.4793L80.1487 76.9469Z" fill="#6B694C"/>
<path d="M95.8594 68.2851C92.1703 68.2851 89.1797 65.2946 89.1797 61.6055C89.1797 57.9164 92.1703 54.9258 95.8594 54.9258C99.5485 54.9258 102.539 57.9164 102.539 61.6055C102.539 65.2946 99.5485 68.2851 95.8594 68.2851Z" fill="#BDB986"/>
<path d="M79.7035 75.3586C74.5088 75.3586 70.2977 71.1474 70.2977 65.9527C70.2977 60.758 74.5088 56.5469 79.7035 56.5469C84.8982 56.5469 89.1094 60.758 89.1094 65.9527C89.1094 71.1474 84.8982 75.3586 79.7035 75.3586Z" fill="#BDB986"/>
<path d="M60.1254 75.3586C54.9307 75.3586 50.7195 71.1474 50.7195 65.9527C50.7195 60.758 54.9307 56.5469 60.1254 56.5469C65.3201 56.5469 69.5312 60.758 69.5312 65.9527C69.5312 71.1474 65.3201 75.3586 60.1254 75.3586Z" fill="#BDB986"/>
<path d="M40.5551 75.3586C35.3604 75.3586 31.1492 71.1474 31.1492 65.9527C31.1492 60.758 35.3604 56.5469 40.5551 56.5469C45.7498 56.5469 49.9609 60.758 49.9609 65.9527C49.9609 71.1474 45.7498 75.3586 40.5551 75.3586Z" fill="#BDB986"/>
<path d="M20.9809 75.3586C15.7861 75.3586 11.575 71.1474 11.575 65.9527C11.575 60.758 15.7861 56.5469 20.9809 56.5469C26.1756 56.5469 30.3867 60.758 30.3867 65.9527C30.3867 71.1474 26.1756 75.3586 20.9809 75.3586Z" fill="#BDB986"/>
<path d="M1.40664 75.3586C-3.78808 75.3586 -7.99922 71.1474 -7.99922 65.9527C-7.99922 60.758 -3.78808 56.5469 1.40664 56.5469C6.60135 56.5469 10.8125 60.758 10.8125 65.9527C10.8125 71.1474 6.60135 75.3586 1.40664 75.3586Z" fill="#BDB986"/>
<path d="M95.8594 66.9492C92.9081 66.9492 90.5156 64.5567 90.5156 61.6055C90.5156 58.6542 92.9081 56.2617 95.8594 56.2617C98.8106 56.2617 101.203 58.6542 101.203 61.6055C101.203 64.5567 98.8106 66.9492 95.8594 66.9492Z" fill="#DEDA9D"/>
<path d="M79.702 73.4789C75.5462 73.4789 72.1774 70.11 72.1774 65.9543C72.1774 61.7986 75.5462 58.4297 79.702 58.4297C83.8577 58.4297 87.2266 61.7986 87.2266 65.9543C87.2266 70.11 83.8577 73.4789 79.702 73.4789Z" fill="#DEDA9D"/>
<path d="M60.1277 73.4789C55.972 73.4789 52.6031 70.11 52.6031 65.9543C52.6031 61.7986 55.972 58.4297 60.1277 58.4297C64.2835 58.4297 67.6523 61.7986 67.6523 65.9543C67.6523 70.11 64.2835 73.4789 60.1277 73.4789Z" fill="#DEDA9D"/>
<path d="M40.5535 73.4789C36.3978 73.4789 33.0289 70.11 33.0289 65.9543C33.0289 61.7986 36.3978 58.4297 40.5535 58.4297C44.7092 58.4297 48.0781 61.7986 48.0781 65.9543C48.0781 70.11 44.7092 73.4789 40.5535 73.4789Z" fill="#DEDA9D"/>
<path d="M20.9832 73.4789C16.8275 73.4789 13.4586 70.11 13.4586 65.9543C13.4586 61.7986 16.8275 58.4297 20.9832 58.4297C25.1389 58.4297 28.5078 61.7986 28.5078 65.9543C28.5078 70.11 25.1389 73.4789 20.9832 73.4789Z" fill="#DEDA9D"/>
<path d="M1.40508 73.4789C-2.75065 73.4789 -6.11953 70.11 -6.11953 65.9543C-6.11953 61.7986 -2.75065 58.4297 1.40508 58.4297C5.56081 58.4297 8.92969 61.7986 8.92969 65.9543C8.92969 70.11 5.56081 73.4789 1.40508 73.4789Z" fill="#DEDA9D"/>
<path d="M95.8555 63.6074C94.7487 63.6074 93.8516 62.7102 93.8516 61.6035C93.8516 60.4968 94.7487 59.5996 95.8555 59.5996C96.9622 59.5996 97.8594 60.4968 97.8594 61.6035C97.8594 62.7102 96.9622 63.6074 95.8555 63.6074Z" fill="#6B694C"/>
<path d="M79.7016 68.7746C78.1431 68.7746 76.8797 67.5112 76.8797 65.9527C76.8797 64.3943 78.1431 63.1309 79.7016 63.1309C81.26 63.1309 82.5234 64.3943 82.5234 65.9527C82.5234 67.5112 81.26 68.7746 79.7016 68.7746Z" fill="#6B694C"/>
<path d="M60.1273 68.7746C58.5689 68.7746 57.3055 67.5112 57.3055 65.9527C57.3055 64.3943 58.5689 63.1309 60.1273 63.1309C61.6858 63.1309 62.9492 64.3943 62.9492 65.9527C62.9492 67.5112 61.6858 68.7746 60.1273 68.7746Z" fill="#6B694C"/>
<path d="M40.5531 68.7746C38.9946 68.7746 37.7313 67.5112 37.7313 65.9527C37.7313 64.3943 38.9946 63.1309 40.5531 63.1309C42.1116 63.1309 43.375 64.3943 43.375 65.9527C43.375 67.5112 42.1116 68.7746 40.5531 68.7746Z" fill="#6B694C"/>
<path d="M20.9789 68.7746C19.4204 68.7746 18.157 67.5112 18.157 65.9527C18.157 64.3943 19.4204 63.1309 20.9789 63.1309C22.5374 63.1309 23.8008 64.3943 23.8008 65.9527C23.8008 67.5112 22.5374 68.7746 20.9789 68.7746Z" fill="#6B694C"/>
<path d="M1.40469 68.7746C-0.15379 68.7746 -1.41719 67.5112 -1.41719 65.9527C-1.41719 64.3943 -0.15379 63.1309 1.40469 63.1309C2.96317 63.1309 4.22656 64.3943 4.22656 65.9527C4.22656 67.5112 2.96317 68.7746 1.40469 68.7746Z" fill="#6B694C"/>
<path d="M118.947 60.0035C121.025 59.3215 121.653 56.6879 120.113 55.1348C109.289 44.2187 101.285 35.7883 99.6749 35.7883H95.1167C95.1167 35.7883 90.305 30.9707 88.9124 29.5777C88.3354 29.0008 87.4671 28.752 86.6929 28.5809C85.6515 28.3508 84.5804 28.2629 83.5167 28.2145C83.0077 28.191 82.4979 28.1793 81.9886 28.1734C81.3405 28.1664 79.7624 28.4789 79.2522 28.0383C79.0968 27.9043 78.9976 27.7176 78.9081 27.5328C78.7964 27.3016 78.6921 27.0562 78.6987 26.7996C78.7179 26.0496 79.0534 25.5902 78.7015 24.8336C78.4851 24.3687 78.1444 23.9406 77.8675 23.5094C77.2054 22.4793 76.5436 21.4492 75.8819 20.4187C75.2065 19.3664 74.5319 18.3141 73.8577 17.2613C73.2612 16.3301 72.6655 15.3984 72.071 14.466C71.7018 13.8871 71.3335 13.3078 70.9671 12.7273C68.6722 9.09062 65.5163 6.55781 61.0694 6.55781H54.1843C54.1843 6.55781 50.598 0.484375 44.1433 0.484375C37.6886 0.484375 32.2374 0.484375 27.9343 0.484375C23.6311 0.484375 21.4796 5.50469 21.4796 5.50469C21.4796 5.50469 18.7542 5.64804 15.7417 5.64804C12.7296 5.64804 11.4386 7.65625 9.28699 11.816C9.0409 12.2918 8.80145 12.7707 8.56396 13.2508C8.05888 14.2719 7.56396 15.2984 7.07216 16.3262C6.51005 17.5008 5.95302 18.6777 5.39833 19.8562C4.8538 21.0137 4.31161 22.1723 3.77137 23.3316C3.62137 23.6535 3.50146 24.0133 3.29599 24.3059C3.10888 24.5723 2.77685 24.7613 2.69638 25.0941C2.63974 25.3269 2.73388 25.5707 2.86161 25.7734C2.98935 25.9762 3.15224 26.157 3.25732 26.3727C3.62021 27.1191 3.54286 28.2602 2.62567 28.4406C2.06708 28.5504 1.53973 28.4555 0.981918 28.4555H-2.76183C-4.77004 28.4555 -10.0775 33.0457 -11.0814 34.0496H-15.815C-17.5103 34.0496 -26.2868 45.2 -31.3665 51.6371C-32.831 53.4926 -31.613 56.2227 -29.2548 56.3852L-27.4685 56.5082C-26.8849 56.5484 -26.3025 56.4137 -25.7958 56.1211L-23.1107 54.5707C-22.6548 54.3074 -22.1361 54.1711 -21.6095 54.1769L108.804 55.5547C109.475 55.5617 110.123 55.798 110.641 56.2238L115.046 59.8465C115.824 60.4859 116.875 60.6828 117.831 60.3691L118.947 60.0035Z" fill="#99956C"/>
<path d="M93.8101 37.0629C94.0104 37.1337 94.212 37.2087 94.428 37.2204C94.7464 37.2376 95.162 37.1922 95.4073 36.963C95.6101 36.7735 95.5534 36.5602 95.4081 36.3551C95.1241 35.9551 94.8089 35.5708 94.4851 35.2028C93.8628 34.495 93.18 33.8442 92.5144 33.1786C91.3218 31.9844 90.1296 30.7903 88.9155 29.5766C88.3386 28.9997 87.4702 28.7508 86.696 28.5797C85.6546 28.3497 84.5835 28.2618 83.5198 28.2133C83.0108 28.1899 82.5011 28.1782 81.9917 28.1723C81.303 28.1645 80.7632 28.2665 80.1155 28.1188C79.7358 28.0321 79.387 28.1219 79.0085 28.1852C76.3866 28.6219 73.3069 28.0079 70.6565 27.8751C67.6663 27.7255 64.6761 27.5762 61.6858 27.4266C55.7058 27.1278 49.7253 26.8286 43.7448 26.5294C41.5308 26.4188 38.078 26.3633 38.0929 29.3122C38.0987 30.5008 38.4151 31.3626 39.1202 32.3102C39.2499 32.4848 39.3815 32.6575 39.5081 32.8344C39.7046 33.109 39.8878 33.3942 40.0925 33.6633C40.3729 34.0321 40.6179 34.4247 40.9198 34.7825C42.8788 37.1028 46.2464 36.3473 49.0319 36.3942C52.644 36.4551 56.2569 36.5094 59.869 36.5579C68.0042 36.6665 76.1409 36.7305 84.2753 36.8258C85.18 36.8364 86.0843 36.8469 86.989 36.8575C87.7601 36.8665 88.5312 36.8755 89.3022 36.8844C89.9167 36.8915 90.5312 36.8989 91.1456 36.9059C91.58 36.911 92.0147 36.9161 92.4491 36.9212C92.6804 36.9239 92.912 36.929 93.1437 36.9294C93.1757 36.9294 93.2081 36.9298 93.2401 36.9305C93.4366 36.9348 93.6226 36.9969 93.8101 37.0629Z" fill="#BDB986"/>
<path d="M-29.2603 56.3786L-27.463 56.504C-26.8779 56.5458 -26.3068 56.4067 -25.7912 56.1137L-24.565 55.4032L-24.5509 55.3891L-23.1158 54.5673C-22.656 54.3024 -22.1404 54.177 -21.6111 54.177L39.1924 54.8181L45.1975 54.8876L107.422 55.5427L108.801 55.5567C109.47 55.5567 110.125 55.7934 110.64 56.2255L115.043 59.8481C115.823 60.4891 116.868 60.6841 117.83 60.3638L118.944 60.0016C119.279 59.8903 119.571 59.7368 119.822 59.5419C120.017 56.7415 115.419 53.3696 113.956 51.8509C110.417 48.1864 106.892 44.4942 103.353 40.8298C102.281 39.7153 101.18 38.5864 99.7584 38.0153C98.5182 37.4997 97.153 37.472 95.8014 37.472C58.9905 37.3466 22.3467 36.6915 -14.088 35.3958C-15.3419 35.354 -16.6658 35.3817 -17.8084 35.9669C-18.7974 36.4825 -19.5502 37.3325 -20.2744 38.1821C-24.2033 42.8079 -28.0212 47.5868 -31.6716 52.4497C-31.7552 52.561 -31.8388 52.6587 -31.9084 52.77C-32.3255 54.4419 -31.1693 56.2532 -29.2603 56.3786Z" fill="#D1CD94"/>
<path d="M-29.2599 56.3794L-27.4627 56.5048C-26.8775 56.5466 -26.3064 56.4075 -25.7908 56.1145L-24.5646 55.404L-24.5506 55.3899C-20.2314 51.2934 -16.1631 46.9184 -12.415 42.3485C-12.3873 42.3208 -12.3732 42.2931 -12.3451 42.279C-11.6623 41.4431 -10.9517 40.6071 -9.9904 40.1474C-9.07086 39.7153 -8.02594 39.7016 -7.02281 39.743C8.38696 40.1888 23.7131 40.9274 39.2069 41.0946L39.1928 54.8184L45.1979 54.888L45.1838 41.4845C60.4127 41.7212 75.7108 41.7911 90.9674 41.8048C92.333 41.8048 93.7401 41.8325 94.9381 42.4735C95.8022 42.9192 96.4846 43.6579 97.1534 44.3684C100.581 48.0884 103.995 51.8223 107.422 55.5427L108.801 55.5567C109.47 55.5567 110.125 55.7934 110.64 56.2255L115.043 59.8481C115.823 60.4891 116.868 60.6841 117.83 60.3638L118.944 60.0016C119.279 59.8903 119.571 59.7368 119.822 59.5419C120.017 56.7415 115.419 53.3696 113.956 51.8509C110.417 48.1864 106.892 44.4942 103.353 40.8298C102.281 39.7153 101.18 38.5864 99.7584 38.0153C98.5182 37.4997 97.153 37.472 95.8014 37.472C58.9905 37.3466 22.3467 36.6915 -14.088 35.3958C-15.3419 35.354 -16.6658 35.3817 -17.8084 35.9669C-18.7974 36.4825 -19.5502 37.3325 -20.2744 38.1821C-24.2033 42.8079 -28.0213 47.5868 -31.6716 52.4497C-31.7552 52.561 -31.8388 52.6587 -31.9084 52.77C-32.3252 54.4427 -31.1689 56.254 -29.2599 56.3794Z" fill="#A8A477"/>
<path d="M79.2214 27.9001C79.135 28.0677 78.9729 28.1341 78.7956 28.1767C78.4999 28.2474 78.1952 28.3001 77.8944 28.3396C76.912 28.4677 75.9171 28.4111 74.9311 28.3576C66.2757 27.888 57.6018 27.9908 48.935 28.0939C41.1354 28.1865 33.3362 28.2794 25.537 28.372C21.6374 28.4181 17.7378 28.4646 13.8382 28.5111C11.944 28.5337 10.0499 28.556 8.15574 28.5786C6.47176 28.599 4.11824 29.029 2.56434 28.5091C4.3366 22.0872 8.17449 15.6208 11.219 9.74428C11.8491 8.52826 12.5315 7.27006 13.6468 6.50482C16.0054 4.88724 19.2007 6.07553 21.9811 5.49896C22.9331 3.61225 24.2386 1.76107 26.1604 0.972403C27.4311 0.450918 28.839 0.44857 30.2073 0.454039C34.1741 0.469273 38.1413 0.484509 42.1081 0.499744C44.4046 0.508338 46.7983 0.539981 48.846 1.60717C50.5667 2.50365 51.8706 4.04545 53.1007 5.57123C53.4183 5.96498 53.7558 6.3767 54.2218 6.55599C54.6268 6.71185 55.0745 6.67123 55.5054 6.63255C58.1186 6.39779 60.7925 6.32709 63.3225 7.03841C67.4518 8.19896 69.3284 11.3892 71.5097 14.8661C73.3933 17.8697 75.278 20.872 77.162 23.8751C77.6436 24.6423 78.1249 25.4099 78.6065 26.1775C78.9089 26.6568 79.5182 27.2677 79.2214 27.9001Z" fill="#99956C"/>
<path d="M79.4694 26.7537C79.3987 26.788 79.2276 26.7548 79.1519 26.7552C78.4421 26.7583 77.7327 26.7611 77.0229 26.7642C75.7351 26.7697 74.4472 26.7751 73.1593 26.7802C71.396 26.7876 69.6327 26.7951 67.8698 26.8025L61.462 26.8294C59.0561 26.8396 56.6503 26.8497 54.2444 26.8595C51.6714 26.8704 49.0983 26.881 46.5253 26.8919C43.8878 26.9029 41.2503 26.9138 38.6128 26.9251C36.0136 26.9361 33.4143 26.947 30.8151 26.9576C28.3569 26.9677 25.8987 26.9783 23.4405 26.9884C21.2261 26.9978 19.0116 27.0068 16.7972 27.0162L11.1933 27.0396C9.77451 27.0454 8.35576 27.0513 6.937 27.0576C6.07021 27.0611 5.20341 27.065 4.33622 27.0685C4.10927 27.0693 3.88232 27.0704 3.65536 27.0712C1.2499 27.0814 3.5042 23.1052 3.91982 22.1892C4.95029 19.9169 6.10732 17.7048 7.29365 15.5111C8.33427 13.5865 9.40146 11.6763 10.4284 9.74428C11.0749 8.52826 11.7753 7.27006 12.9202 6.50482C15.3409 4.88724 18.6206 6.07553 21.4745 5.49896C22.4515 3.61225 23.7913 1.76107 25.764 0.972403C27.0683 0.450918 28.5136 0.44857 29.9179 0.454039C33.9897 0.469273 38.0612 0.484509 42.1327 0.499744C44.4901 0.508338 46.9468 0.539981 49.0483 1.60717C50.8144 2.50365 52.1526 4.04545 53.4155 5.57123C53.7413 5.96498 54.0878 6.3767 54.5663 6.55599C54.9819 6.71185 55.4417 6.67123 55.8839 6.63256C58.5659 6.39779 61.3104 6.32709 63.9073 7.03842C68.1456 8.19896 70.0714 11.3892 72.3104 14.8661C74.5554 18.3521 76.7745 21.8595 79.0874 25.2982C79.2655 25.5626 79.8265 26.5236 79.4694 26.7537Z" fill="#99956C"/>
<path d="M53.4163 6.06839C53.3346 6.11839 53.2292 6.13636 53.1311 6.14457C51.2768 6.30082 49.2784 6.21605 47.3678 6.218C43.9999 6.22191 40.6069 6.42503 37.2608 5.93089C34.1635 5.47347 30.1639 4.2098 28.4655 1.31644C28.3971 1.20003 28.3331 1.07347 28.3358 0.938707C28.3413 0.64027 28.6667 0.443005 28.9643 0.416833C33.2604 0.0410517 37.8147 0.482064 42.1346 0.49808C44.492 0.506674 46.9487 0.538317 49.0502 1.6055C50.2307 2.20472 51.2268 3.10003 52.1194 4.06605C52.346 4.31136 53.7764 5.59495 53.5049 5.98675C53.4807 6.02073 53.4506 6.0473 53.4163 6.06839Z" fill="#BDB986"/>
<path d="M34.9002 2.87048C33.7163 1.59665 35.2444 0.572431 36.5006 0.378681C36.8659 0.322431 37.2038 0.380241 37.5655 0.427116C39.0663 0.620475 40.6288 0.497819 42.1374 0.497819C44.4948 0.506413 46.9514 0.538056 49.053 1.60524C50.4823 2.33063 51.6135 3.49196 52.6792 4.66423C52.842 4.84352 53.0366 5.3154 52.7081 5.45407C52.3085 5.62243 51.7354 5.60251 51.3147 5.61462C47.4163 5.72672 43.4881 5.97321 39.619 5.3279C37.7249 5.01227 36.2143 4.28454 34.9002 2.87048Z" fill="#D1CD94"/>
<path d="M79.4694 26.7533C79.3987 26.7877 79.2276 26.7545 79.1519 26.7549C78.4421 26.758 77.7327 26.7607 77.0229 26.7639C75.7351 26.7693 74.4472 26.7748 73.1593 26.7799C71.396 26.7873 69.6327 26.7947 67.8698 26.8021L61.462 26.8291C59.0561 26.8393 56.6503 26.8494 54.2444 26.8592C51.6714 26.8701 49.0983 26.8807 46.5253 26.8916C43.8878 26.9025 41.2503 26.9135 38.6128 26.9248C36.0136 26.9357 33.4143 26.9467 30.8151 26.9572C28.3569 26.9674 25.8987 26.9779 23.4405 26.9881C21.2261 26.9975 19.0116 27.0064 16.7972 27.0158L11.1933 27.0393C9.77451 27.0451 8.35576 27.051 6.937 27.0572C6.07021 27.0607 5.20341 27.0646 4.33622 27.0682C4.10927 27.0689 3.88232 27.0701 3.65536 27.0709C1.2499 27.081 3.5042 23.1049 3.91982 22.1889C4.95029 19.9166 6.10732 17.7045 7.29365 15.5107C8.33427 13.5861 9.40146 11.676 10.4284 9.74394C11.1737 8.34199 12.0225 6.81699 13.521 6.16113C16.6358 4.79785 21.0729 5.94824 24.3433 6.13613C35.6046 6.78339 46.9147 6.86073 58.187 6.48495C60.1058 6.4205 62.0479 6.52792 63.9073 7.0373C68.1456 8.19784 70.0714 11.3881 72.3104 14.865C74.5554 18.351 76.7745 21.8584 79.0874 25.2971C79.2655 25.5623 79.8265 26.5232 79.4694 26.7533Z" fill="#DEDA9D"/>
<path d="M69.6484 26.49C69.6492 26.5693 69.6417 26.6435 69.6124 26.6959C69.5097 26.8791 69.2675 26.906 69.0789 26.8971C68.9746 26.892 68.8738 26.8705 68.773 26.8443C68.4753 26.7674 68.1878 26.8006 67.871 26.8021L61.4632 26.8291C59.0574 26.8393 56.6515 26.8494 54.2456 26.8592C51.6726 26.8701 49.0996 26.8807 46.5265 26.8916C43.889 26.9025 41.2515 26.9135 38.614 26.9248C36.0148 26.9357 33.4156 26.9467 30.8164 26.9572C28.3581 26.9674 25.8999 26.9779 23.4417 26.9881C21.2273 26.9975 19.0128 27.0064 16.7984 27.0158C14.9304 27.0236 13.0624 27.0314 11.1945 27.0393C9.77573 27.0451 8.35698 27.051 6.93823 27.0572C6.07143 27.0607 5.20464 27.0646 4.33746 27.0682C4.1105 27.0689 3.88354 27.0701 3.65659 27.0709C1.25112 27.081 3.50542 23.1049 3.92104 22.1889C4.95152 19.9166 6.10854 17.7045 7.29487 15.5107C8.33549 13.5861 9.40268 11.676 10.4296 9.74394C11.1749 8.34199 12.0238 6.81699 13.5222 6.16113C16.6371 4.79785 21.0742 5.94824 24.3445 6.13613C25.2898 6.19043 26.2355 6.24081 27.1816 6.2873C32.9171 6.56855 38.6597 6.70449 44.4019 6.71113C47.2726 6.71425 50.1437 6.68534 53.014 6.62558C54.7117 6.59003 58.4121 5.88105 59.6039 7.53769C63.6265 13.1299 66.8109 18.9771 69.466 25.3373C69.5902 25.635 69.6308 25.8584 69.6296 26.1771C69.6289 26.2588 69.6472 26.3791 69.6484 26.49Z" fill="#BDB986"/>
<path d="M67.2063 25.899C67.1974 25.9392 67.1829 25.9775 67.1626 26.0119C67.0282 26.24 66.7063 26.6447 66.4856 26.7869C66.2302 26.9521 66.0399 26.89 65.7712 26.8432C65.2563 26.7541 64.7048 26.8158 64.1829 26.8178C63.2774 26.8217 62.3716 26.8256 61.4661 26.8291C59.0603 26.8393 56.6544 26.8494 54.2485 26.8592C51.6755 26.8701 49.1024 26.8807 46.5294 26.8916C43.8919 26.9025 41.2544 26.9135 38.6169 26.9248C36.0177 26.9357 33.4185 26.9467 30.8192 26.9572C28.361 26.9674 25.9028 26.9779 23.4446 26.9881C21.2302 26.9975 19.0157 27.0064 16.8013 27.0158C14.9333 27.0236 13.0653 27.0314 11.1974 27.0393C9.77861 27.0451 8.35986 27.051 6.94112 27.0572C6.07432 27.0607 5.20753 27.0646 4.34034 27.0682C4.11338 27.0689 3.88643 27.0701 3.65947 27.0709C1.25401 27.081 3.5083 23.1049 3.92393 22.1889C4.9544 19.9166 6.11143 17.7045 7.29775 15.5107C8.33838 13.5861 9.40556 11.676 10.4325 9.74394C11.1778 8.34199 12.0267 6.81699 13.5251 6.16113C16.6399 4.79785 21.0771 5.94824 24.3474 6.13613C25.2927 6.19043 26.2384 6.24081 27.1845 6.2873C32.92 6.56855 38.6626 6.70449 44.4048 6.71113C47.2755 6.71425 50.1466 6.68534 53.0169 6.62558C53.4747 6.6162 54.0345 6.45995 54.4802 6.56894C54.652 6.61073 54.7825 6.72167 54.9337 6.80722C55.1798 6.94745 55.3396 6.90019 55.5974 6.95527C55.8149 7.00175 55.9767 7.12988 56.145 7.26738C59.2255 9.78144 61.2731 14.4635 63.1372 17.924C63.4985 18.5951 63.6821 19.3752 64.0743 20.0295C64.2677 20.3517 64.5481 20.61 64.7517 20.9268C65.0743 21.4283 65.3282 21.9736 65.6192 22.4951C65.856 22.9197 66.0536 23.3596 66.2845 23.7865C66.4927 24.1713 66.7649 24.5252 66.9458 24.9248C67.0587 25.176 67.2724 25.6029 67.2063 25.899Z" fill="#99956C"/>
<path d="M3.66503 27.0646H4.33379C5.21152 27.0646 6.07557 27.0646 6.93925 27.0505C8.36073 27.0505 9.78144 27.0505 11.2029 27.0365C13.0701 27.0365 14.9369 27.0224 16.8041 27.0087C19.0193 27.0087 21.2346 26.9947 23.4502 26.9806C25.9025 26.9806 28.3545 26.9665 30.8209 26.9529C33.4123 26.9388 36.0178 26.9388 38.6232 26.9251C41.2568 26.9111 43.89 26.897 46.5232 26.8833C50.5357 26.8693 54.5346 26.8693 58.5334 26.9392C59.7037 26.9532 61.1107 27.1622 62.1697 26.4931C62.4205 26.34 62.5459 26.0333 62.5459 25.6431C62.5877 24.2497 61.292 21.7138 60.442 20.1396C60.1631 19.5962 59.9264 19.1782 59.815 18.9415C59.0627 17.381 58.2545 15.8482 57.4744 14.3017C57.4603 14.274 57.4463 14.2458 57.4326 14.2181C56.6385 12.6298 55.8025 11.0552 54.9525 9.49465C54.3256 8.36614 53.6428 7.1677 52.3471 6.70793C51.1068 6.27629 49.7416 6.58255 48.4736 6.65247C47.1221 6.722 45.701 6.70793 44.4053 6.70793C38.665 6.70793 32.9244 6.56848 27.1842 6.28996C26.2369 6.2341 25.2892 6.19231 24.342 6.13684C21.0818 5.94192 16.6369 4.79934 13.5299 6.16457C12.0252 6.81965 11.1752 8.3384 10.4369 9.74544C9.40565 11.6681 8.333 13.5911 7.30214 15.5138C6.1041 17.7013 4.94744 19.9165 3.91659 22.1876C3.51151 23.1075 1.25449 27.0783 3.66503 27.0646Z" fill="#DEDA9D"/>
<path d="M52.0378 25.5389C52.0128 26.2412 51.6272 26.7928 50.6448 26.9584C49.3932 27.1693 47.81 26.8861 46.5284 26.8916C43.8909 26.9025 41.2534 26.9135 38.6159 26.9248C36.0167 26.9357 33.4175 26.9467 30.8182 26.9572C28.36 26.9674 25.9018 26.9779 23.4436 26.9881C21.2292 26.9975 19.0147 27.0064 16.8003 27.0158C14.9323 27.0236 13.0643 27.0314 11.1964 27.0393C9.77762 27.0451 8.35886 27.051 6.94011 27.0572C6.07331 27.0607 5.20652 27.0646 4.33933 27.0682C4.11238 27.0689 3.88542 27.0701 3.65847 27.0709C1.253 27.081 3.5073 23.1049 3.92292 22.1889C4.95339 19.9166 6.11043 17.7045 7.29676 15.5107C8.33738 13.5861 9.40457 11.676 10.4315 9.74394C11.1768 8.34199 12.0257 6.81699 13.5241 6.16113C16.6389 4.79785 21.076 5.94824 24.3464 6.13613C25.2917 6.19043 26.2374 6.24081 27.1835 6.2873C28.8178 6.36738 30.453 6.43574 32.0889 6.49277C35.1385 6.59902 38.1905 6.65527 41.2417 6.67402C43.621 6.68886 45.3128 6.89668 46.4804 9.21894C46.6573 9.5705 46.8471 9.84199 46.9612 10.2213C47.1089 10.7119 47.2389 11.1342 47.4807 11.5935C49.5514 15.5236 50.1858 20.1201 51.7772 24.2447C51.9503 24.6959 52.0518 25.1416 52.0378 25.5389Z" fill="#BDB986"/>
<path d="M26.0429 13.785C25.9362 13.8299 25.8386 13.9049 25.7495 13.981C24.6229 14.9455 24.0374 16.4314 23.9112 17.9088C23.7854 19.3865 24.0768 20.8682 24.462 22.2998C25.1936 25.0213 28.721 25.1939 30.9565 24.0564C32.0159 23.5174 32.7815 22.4381 32.9975 21.2744C33.2542 19.8932 32.3753 18.985 31.5667 17.9307C30.2788 16.251 28.4878 14.9838 26.6866 13.9076C26.5452 13.8232 26.3933 13.7377 26.2288 13.7424C26.1636 13.7443 26.1018 13.7603 26.0429 13.785Z" fill="#A8A477"/>
<path d="M-11.2375 40.3645C-11.2586 40.3903 -11.2797 40.4156 -11.3012 40.4414C-15.0566 45.0106 -19.1199 49.3914 -23.4328 53.4766C-25.0367 54.9961 -26.8117 56.5278 -29.082 56.4047C-30.1824 56.3453 -31.2488 55.7414 -31.7164 54.7438C-32.4453 53.1883 -31.4781 51.7731 -30.5551 50.5434C-26.9066 45.6817 -23.0973 40.8985 -19.1562 36.2715C-18.4348 35.4242 -17.6836 34.5688 -16.6996 34.0664C-15.5531 33.4813 -14.227 33.441 -12.9758 33.486C23.4652 34.7844 60.1082 35.4395 96.9195 35.5621C98.266 35.5664 99.6348 35.5973 100.875 36.1028C102.286 36.6781 103.398 37.8102 104.466 38.9188C108.001 42.5906 111.533 46.2731 115.072 49.9399C116.892 51.825 123.552 56.6082 119.836 59.543C118.873 60.3039 117.57 60.5262 116.374 60.2516C114.207 59.7539 112.698 58.161 111.253 56.5949C106.917 51.8977 102.593 47.1746 98.2609 42.4672C97.5969 41.7453 96.9141 41.0145 96.0535 40.5606C94.8523 39.9274 93.4391 39.9008 92.0738 39.9C76.8199 39.8903 61.5199 39.8082 46.2996 39.5821L46.3145 54.3938C46.3152 55.0367 45.7949 55.5586 45.152 55.5598L41.4731 55.5668C40.8289 55.568 40.3059 55.0461 40.3063 54.4016L40.3117 39.1817C24.8211 39.0137 9.49648 38.2875 -5.91094 37.8301C-6.90938 37.8004 -7.95508 37.8149 -8.87851 38.2461C-9.83867 38.6942 -10.5527 39.5379 -11.2375 40.3645Z" fill="#DEDA9D"/>
<path d="M-30.5578 50.5448C-28.3484 47.6002 -26.0871 44.6944 -23.7722 41.8323C-22.5605 40.3338 -21.3335 38.8479 -20.0918 37.3741C-19.5957 36.7854 -19.1289 36.0936 -18.5066 35.6323C-17.93 35.2053 -17.2328 34.5995 -16.471 34.6135C-16.4683 34.6135 93.5641 36.6358 93.5641 36.6358C93.9141 36.6284 94.2094 36.7565 94.5704 36.7549C96.0598 36.7483 97.6465 36.8663 99.0926 37.2256C101.443 37.81 102.949 39.7284 104.57 41.3768C107.29 44.1412 110.148 46.7635 112.906 49.4877C115.362 51.9135 118.509 54.435 119.859 57.6955C120.074 58.2151 120.008 58.9838 119.692 59.4506C119.012 60.4553 117.381 60.4846 116.371 60.2522C114.204 59.7545 112.695 58.1616 111.25 56.5956C106.914 51.8983 102.59 47.1752 98.2579 42.4678C97.5938 41.7459 96.911 41.0151 96.0504 40.5612C94.8493 39.928 93.436 39.9014 92.0707 39.9006C83.4461 39.8952 74.8215 39.8663 66.1969 39.8018C61.8875 39.7694 57.5786 39.728 53.2692 39.676C51.1118 39.6502 48.954 39.6217 46.7965 39.5897C46.3735 39.5834 45.9758 39.5088 45.5481 39.5116C45.2536 39.5135 45.0809 39.4315 44.804 39.3811C44.5411 39.333 44.3672 39.3373 44.3024 39.5682C44.2282 39.8319 44.3094 40.2557 44.3086 40.5264C44.3012 42.2721 44.5551 44.0077 44.5563 45.7588C44.5571 46.9866 44.5563 48.2143 44.5563 49.442V51.9499C44.5563 52.5147 44.6368 53.1502 44.561 53.7112C44.4688 54.392 44.2434 54.6647 43.6379 54.944C43.2528 55.1213 42.9618 55.4526 42.5352 55.5362C41.6567 55.7084 40.3028 55.5725 40.3036 54.4022L40.309 39.1823C24.8184 39.0143 9.4938 38.2881 -5.91363 37.8307C-6.91206 37.801 -7.95776 37.8155 -8.8812 38.2467C-9.84097 38.6948 -10.555 39.5389 -11.2398 40.3655C-11.2609 40.3913 -11.282 40.4166 -11.3035 40.4424C-15.0589 45.0116 -19.1222 49.3924 -23.4351 53.4776C-25.039 54.9971 -26.814 56.5287 -29.0843 56.4057C-30.1847 56.3463 -31.2511 55.7424 -31.7187 54.7448C-32.4484 53.1897 -31.4808 51.7745 -30.5578 50.5448Z" fill="#D1CD94"/>
<path d="M25.4543 16.7218C25.4543 22.5964 30.8711 21.5311 32.7195 21.5311C34.568 21.5311 36.0664 19.1827 36.0664 16.2854C36.0664 13.3886 34.568 11.0397 32.7195 11.0397C30.8711 11.0401 25.4543 10.8472 25.4543 16.7218Z" fill="#D1CD94"/>
<path d="M32.7195 21.5305C30.8711 21.5305 29.3727 19.1819 29.3727 16.2848C29.3727 13.3876 30.8711 11.0391 32.7195 11.0391C34.568 11.0391 36.0664 13.3876 36.0664 16.2848C36.0664 19.1819 34.568 21.5305 32.7195 21.5305Z" fill="#E9E0A3"/>
<path d="M29.9332 16.2863C29.9332 18.7 31.1816 20.657 32.7219 20.657C34.2617 20.657 36.8281 18.7004 36.8281 16.2863C36.8281 13.8727 34.2617 11.916 32.7219 11.916C31.1816 11.916 29.9332 13.873 29.9332 16.2863Z" fill="#FAC075"/>
<path d="M31.7426 14.9563C32.4946 15.9598 33.8926 16.7098 34.7977 17.1098C35.0789 17.2344 35.3918 17.2188 35.693 17.2039C36.0309 17.1875 36.5492 17.1363 36.7344 16.8109C36.8274 16.6477 36.9211 16.457 36.8742 16.2684C36.7371 15.7121 36.6852 15.1664 36.427 14.6383C36.0364 13.8395 35.4094 13.1563 34.6809 12.6523C34.1153 12.2613 33.4227 11.916 32.7196 11.916C32.3371 11.916 31.6496 12.0633 31.4571 12.4453C31.3875 12.5832 31.3793 12.7613 31.3297 12.9086C31.075 13.6676 31.2934 14.357 31.7426 14.9563Z" fill="#FFC880"/>
<path d="M57.4762 14.3039C58.2563 15.8504 59.0645 17.3832 59.8168 18.9437C59.9281 19.1805 60.1648 19.5984 60.4437 20.1418L111.257 20.9777L133.718 21.3539L139.625 21.4516L138.873 7.67188L133.23 8.13164L110.742 9.9707L57.4762 14.3039Z" fill="#A8A477"/>
<path d="M79.8359 12.4833C76.1387 12.7841 72.441 13.0849 68.7438 13.3856C66.5942 13.5606 64.4445 13.7353 62.2949 13.9103C61.2199 13.9978 60.1453 14.0849 59.0707 14.1724C58.7594 14.1978 57.8606 14.1087 57.6711 14.4157C57.5535 14.6126 61.257 14.7337 61.5547 14.7286C63.6856 14.6919 65.8117 14.5528 67.9395 14.4454C74.884 14.0946 81.8266 13.8517 88.7801 13.8517C90.1547 13.8517 91.4797 13.8247 92.8434 13.6423C94.6633 13.3993 96.5391 13.2622 98.3742 13.2126C99.6477 13.1782 100.921 13.2509 102.191 13.1431C103.033 13.0716 103.875 12.988 104.72 12.9536C105.651 12.9157 106.587 12.8692 107.516 12.9575C107.853 12.9895 108.293 13.154 108.629 13.0829C109.002 13.004 109.061 12.6302 109.163 12.3153C109.359 11.713 109.731 11.4747 110.182 11.0833C110.401 10.8931 110.563 10.6696 110.67 10.3989C110.792 10.0915 110.804 9.95947 110.425 9.94658C109.954 9.93056 109.489 10.0712 109.023 10.1095C99.2938 10.9001 89.5649 11.6915 79.8359 12.4833Z" fill="#BDB986"/>
<path d="M111.255 20.975L133.715 21.3512C131.904 17.7844 131.625 11.5426 133.227 8.12891L110.739 9.96797C109.569 12.9078 109.82 17.798 111.255 20.975Z" fill="#99956C"/>
<path d="M116.616 7.25154L139.157 5.50115C144.944 5.14725 146.064 23.4781 140.276 23.8316L117.794 23.8312C112.222 23.8984 111.044 7.31834 116.616 7.25154Z" fill="#D1CD94"/>
<path d="M143.829 7.26373C148.626 6.8274 149.708 21.0696 144.835 21.5344L139.631 21.4485C135.59 21.6704 134.833 7.88951 138.874 7.66763L143.829 7.26373Z" fill="#FFF7B7"/>
<path d="M143.829 7.26172C138.427 7.64297 139.433 21.9137 144.836 21.5324L139.632 21.4465C135.591 21.6684 134.834 7.8875 138.875 7.66562L143.829 7.26172Z" fill="#BDB986"/>
<path d="M143.828 7.26172C142.809 7.34492 141.993 7.9371 141.438 8.77382C141.174 9.17109 141.058 9.66484 140.798 10.0492C140.752 10.118 140.686 10.1215 140.639 10.2098C140.414 10.6312 140.429 11.1234 140.039 11.4719C139.635 11.8332 139.07 11.5133 138.603 11.5176C138.11 11.5223 137.545 11.593 137.057 11.5191C136.565 11.4449 136.755 10.784 136.79 10.4641C136.833 10.0699 136.789 9.72382 136.948 9.34726C137.286 8.54101 137.933 7.71796 138.873 7.66601C138.873 7.66562 143.821 7.2625 143.828 7.26172Z" fill="#DEDA9D"/>
<path d="M144.36 21.5196L144.833 21.5337C149.71 21.0739 148.623 6.82039 143.83 7.2661C138.591 7.62821 139.372 21.0598 144.36 21.5196Z" fill="#D1CD94"/>
<path d="M144.246 18.1167L144.494 18.1241C147.042 17.8839 146.474 10.4362 143.97 10.6694C141.232 10.8585 141.64 17.8765 144.246 18.1167Z" fill="#99956C"/>
<path d="M116.616 7.25234L139.157 5.50195C133.133 5.86992 134.253 24.2004 140.277 23.8324L117.795 23.832C112.223 23.8992 111.045 7.31914 116.616 7.25234Z" fill="#BDB986"/>
<path d="M116.616 7.25625C116.688 7.24883 116.761 7.24258 116.832 7.2375C118.463 7.12227 120.093 6.98438 121.723 6.85743C124.44 6.64649 127.157 6.43555 129.873 6.22461C132.255 6.03945 134.637 5.85469 137.019 5.66992C137.732 5.61445 138.444 5.55938 139.156 5.50391C137.962 5.59648 136.528 6.62813 136.313 7.86172C136.236 8.30274 136.171 8.38203 135.847 8.7336C135.575 9.02891 135.52 9.26133 135.429 9.65821C135.253 10.4277 135.157 11.2383 134.93 11.9906C132.891 12.4496 129.816 11.8434 127.679 11.891C124.713 11.9574 117.835 13.4125 115.354 11.2266C114.75 10.6941 114.542 9.48477 114.618 8.69492C114.717 7.65117 115.723 7.34844 116.616 7.25625Z" fill="#DEDA9D"/>
</g>
<defs>
<filter id="filter0_d_685_9615" x="-36.002" y="0.265625" width="188.002" height="87.4688" filterUnits="userSpaceOnUse" color-interpolation-filters="sRGB">
<feFlood flood-opacity="0" result="BackgroundImageFix"/>
<feColorMatrix in="SourceAlpha" type="matrix" values="0 0 0 0 0 0 0 0 0 0 0 0 0 0 0 0 0 0 127 0" result="hardAlpha"/>
<feOffset dy="4"/>
<feGaussianBlur stdDeviation="2"/>
<feComposite in2="hardAlpha" operator="out"/>
<feColorMatrix type="matrix" values="0 0 0 0 0 0 0 0 0 0 0 0 0 0 0 0 0 0 0.25 0"/>
<feBlend mode="normal" in2="BackgroundImageFix" result="effect1_dropShadow_685_9615"/>
<feBlend mode="normal" in="SourceGraphic" in2="effect1_dropShadow_685_9615" result="shape"/>
</filter>
</defs>
</svg>
