<svg width="34" height="34" viewBox="0 0 34 34" fill="none" xmlns="http://www.w3.org/2000/svg">
<g clip-path="url(#clip0_685_10257)">
<path d="M2.11092 2.30919C-0.560915 5.08444 -0.0140813 8.03252 -0.0140813 16.9887C-0.0140813 24.4262 -1.31175 31.8821 5.47975 33.6374C7.6005 34.1828 26.3912 34.1828 28.5091 33.6345C31.3368 32.9049 33.6374 30.6114 33.9519 26.6121C33.9958 26.0539 33.9958 7.93336 33.9505 7.36386C33.6162 3.10394 30.9939 0.648856 27.5387 0.151606C26.7468 0.0368563 26.5881 0.00285626 22.5251 -0.00422707C8.11334 0.00285626 4.95417 -0.638894 2.11092 2.30919Z" fill="url(#paint0_linear_685_10257)"/>
<path d="M17.0021 4.45352C11.8582 4.45352 6.97353 3.99594 5.10778 8.78427C4.33711 10.7619 4.44903 13.3304 4.44903 17.008C4.44903 20.2352 4.34561 23.2683 5.10778 25.2304C6.96928 30.0215 11.8936 29.5625 16.9993 29.5625C21.925 29.5625 27.0038 30.0754 28.8922 25.2304C29.6643 23.2329 29.5509 20.7027 29.5509 17.008C29.5509 12.1035 29.8215 8.93727 27.4429 6.56011C25.0346 4.15177 21.7777 4.45352 16.9964 4.45352H17.0021ZM15.8773 6.71594C26.6071 6.69894 27.9728 5.50611 27.2191 22.0769C26.9514 27.9376 22.4889 27.2944 17.0035 27.2944C7.00186 27.2944 6.71428 27.0083 6.71428 17.0024C6.71428 6.88027 7.50761 6.72161 15.8773 6.71311V6.71594ZM23.7029 8.79986C22.8714 8.79986 22.197 9.47419 22.197 10.3058C22.197 11.1374 22.8714 11.8117 23.7029 11.8117C24.5345 11.8117 25.2089 11.1374 25.2089 10.3058C25.2089 9.47419 24.5345 8.79986 23.7029 8.79986ZM17.0021 10.5608C13.442 10.5608 10.5563 13.4479 10.5563 17.008C10.5563 20.5681 13.442 23.4539 17.0021 23.4539C20.5622 23.4539 23.4465 20.5681 23.4465 17.008C23.4465 13.4479 20.5622 10.5608 17.0021 10.5608ZM17.0021 12.8232C22.5342 12.8232 22.5413 21.1929 17.0021 21.1929C11.4714 21.1929 11.4629 12.8232 17.0021 12.8232Z" fill="white"/>
</g>
<defs>
<linearGradient id="paint0_linear_685_10257" x1="2.17611" y1="31.8242" x2="33.7755" y2="4.47524" gradientUnits="userSpaceOnUse">
<stop stop-color="#FFDD55"/>
<stop offset="0.5" stop-color="#FF543E"/>
<stop offset="1" stop-color="#C837AB"/>
</linearGradient>
<clipPath id="clip0_685_10257">
<rect width="34" height="34" fill="white"/>
</clipPath>
</defs>
</svg>
