<svg width="34" height="34" viewBox="0 0 34 34" fill="none" xmlns="http://www.w3.org/2000/svg">
<g clip-path="url(#clip0_685_10245)">
<path d="M29.3636 0H4.63636C2.07577 0 0 2.07577 0 4.63636V29.3636C0 31.9242 2.07577 34 4.63636 34H29.3636C31.9242 34 34 31.9242 34 29.3636V4.63636C34 2.07577 31.9242 0 29.3636 0Z" fill="#0077B5"/>
<path d="M12.2466 9.27273C12.2466 9.84584 12.0767 10.4061 11.7583 10.8826C11.4399 11.3591 10.9873 11.7306 10.4578 11.9499C9.92832 12.1692 9.34569 12.2266 8.78358 12.1148C8.22148 12.003 7.70515 11.727 7.2999 11.3217C6.89464 10.9165 6.61866 10.4001 6.50685 9.83805C6.39504 9.27594 6.45243 8.69331 6.67175 8.16382C6.89107 7.63432 7.26248 7.18176 7.73901 6.86335C8.21554 6.54495 8.77578 6.375 9.3489 6.375C10.1174 6.375 10.8545 6.6803 11.3979 7.22372C11.9413 7.76715 12.2466 8.5042 12.2466 9.27273Z" fill="white"/>
<path d="M11.5931 14.1112V26.9134C11.5936 27.0078 11.5754 27.1014 11.5396 27.1888C11.5038 27.2762 11.4511 27.3557 11.3845 27.4227C11.3179 27.4896 11.2387 27.5428 11.1515 27.579C11.0643 27.6153 10.9708 27.6339 10.8764 27.6339H7.82215C7.72771 27.6342 7.63415 27.6158 7.54684 27.5798C7.45954 27.5437 7.38022 27.4908 7.31343 27.424C7.24665 27.3572 7.19373 27.2779 7.1577 27.1906C7.12168 27.1033 7.10326 27.0097 7.10352 26.9153V14.1112C7.10352 13.9206 7.17923 13.7378 7.314 13.6031C7.44877 13.4683 7.63156 13.3926 7.82215 13.3926H10.8764C11.0666 13.3931 11.2489 13.469 11.3833 13.6037C11.5176 13.7385 11.5931 13.921 11.5931 14.1112Z" fill="white"/>
<path d="M27.5572 20.76V26.9572C27.5574 27.0441 27.5405 27.1301 27.5074 27.2104C27.4743 27.2906 27.4256 27.3636 27.3642 27.425C27.3028 27.4864 27.2299 27.535 27.1496 27.5682C27.0693 27.6013 26.9833 27.6182 26.8965 27.6179H23.6124C23.5256 27.6182 23.4395 27.6013 23.3593 27.5682C23.279 27.535 23.2061 27.4864 23.1447 27.425C23.0833 27.3636 23.0346 27.2906 23.0015 27.2104C22.9684 27.1301 22.9515 27.0441 22.9517 26.9572V20.9512C22.9517 20.0549 23.2144 17.0258 20.6084 17.0258C18.5897 17.0258 18.1782 19.0986 18.0971 20.0297V26.9572C18.0971 27.1308 18.0288 27.2974 17.907 27.421C17.7852 27.5447 17.6196 27.6154 17.446 27.6179H14.274C14.1873 27.6179 14.1015 27.6008 14.0214 27.5676C13.9414 27.5344 13.8687 27.4857 13.8075 27.4243C13.7463 27.3629 13.6978 27.2901 13.6648 27.2099C13.6318 27.1298 13.615 27.0439 13.6152 26.9572V14.0392C13.615 13.9525 13.6318 13.8666 13.6648 13.7865C13.6978 13.7063 13.7463 13.6335 13.8075 13.5721C13.8687 13.5107 13.9414 13.462 14.0214 13.4288C14.1015 13.3956 14.1873 13.3785 14.274 13.3785H17.446C17.6213 13.3785 17.7893 13.4481 17.9132 13.572C18.0371 13.6959 18.1067 13.864 18.1067 14.0392V15.1558C18.8563 14.0314 19.9671 13.1641 22.3374 13.1641C27.5881 13.1641 27.5572 18.067 27.5572 20.76Z" fill="white"/>
</g>
<defs>
<clipPath id="clip0_685_10245">
<rect width="34" height="34" fill="white"/>
</clipPath>
</defs>
</svg>
