<svg width="160" height="84" viewBox="0 0 160 84" fill="none" xmlns="http://www.w3.org/2000/svg">
<g filter="url(#filter0_d_687_2827)">
<path d="M11.0287 42.6041V22.2405V1.87695H1.72656V51.1976H36.393V42.6041H11.0287Z" fill="#F7921E" stroke="#F7921E" stroke-width="0.308119" stroke-miterlimit="10"/>
<path d="M43.0215 1.87695V51.1976H52.265V1.87695H43.0215Z" fill="#F7921E" stroke="#F7921E" stroke-width="0.308119" stroke-miterlimit="10"/>
<path d="M150.188 1.80469V32.4533L126.019 1.87555H118.482V51.1962H127.781V17.9378L153.713 51.267V51.1962H159.49V1.80469H150.188Z" fill="#F7921E" stroke="#F7921E" stroke-width="0.308119" stroke-miterlimit="10"/>
<path d="M59.2561 22.6953C59.2222 22.911 59.1945 23.1267 59.1729 23.3454C59.1729 23.3855 59.1729 23.4286 59.1575 23.4718V23.441C59.1558 23.4215 59.1558 23.4019 59.1575 23.3824C59.1883 23.1544 59.2222 22.9264 59.2561 22.6953Z" fill="white" stroke="#F7921E" stroke-width="0.308119" stroke-miterlimit="10"/>
<path d="M59.0339 24.8008C59.0339 24.8778 59.0339 24.9548 59.0339 25.0319C59.0339 25.1798 59.0185 25.34 59.0123 25.4756C59.0092 25.266 59.0185 25.0257 59.0339 24.8008Z" fill="url(#paint0_linear_687_2827)" stroke="#F7921E" stroke-width="0.308119" stroke-miterlimit="10"/>
<path d="M59.2561 22.6953C59.2222 22.911 59.1945 23.1267 59.1729 23.3454C59.1729 23.3855 59.1729 23.4286 59.1575 23.4718V23.441C59.1558 23.4215 59.1558 23.4019 59.1575 23.3824C59.1883 23.1544 59.2222 22.9264 59.2561 22.6953Z" fill="url(#paint1_linear_687_2827)" stroke="#F7921E" stroke-width="0.308119" stroke-miterlimit="10"/>
<path d="M81.4265 4.62226C81.303 4.56232 81.1764 4.50881 81.0474 4.46195L80.9395 4.42188C81.1275 4.49278 81.3156 4.57293 81.5067 4.65925L81.4265 4.62226Z" fill="url(#paint2_linear_687_2827)" stroke="#F7921E" stroke-width="0.308119" stroke-miterlimit="10"/>
<path d="M92.2196 52.127C91.6989 52.2794 91.1689 52.3977 90.6328 52.4813C91.1607 52.3827 91.6897 52.2646 92.2196 52.127Z" fill="url(#paint3_linear_687_2827)" stroke="#F7921E" stroke-width="0.308119" stroke-miterlimit="10"/>
<path d="M63.7798 11.4805L63.3516 12.0967C63.5303 11.8502 63.6751 11.6407 63.7798 11.4805Z" fill="white" stroke="#F7921E" stroke-width="0.308119" stroke-miterlimit="10"/>
<path d="M91.837 36.1638C87.4423 34.1088 83.3393 31.4803 79.6355 28.3469C79.6786 28.5533 80.5598 32.6328 84.3867 36.6876C84.6948 37.0173 85.0214 37.3378 85.3665 37.6613C85.536 37.8215 85.7147 37.9694 85.8995 38.1389C86.0844 38.3083 86.2909 38.4747 86.4973 38.6442C86.7037 38.8137 86.8485 38.9307 87.0303 39.0694C87.2984 39.2728 87.5696 39.47 87.8561 39.6671L88.3583 40.0061C88.611 40.1725 88.8667 40.3358 89.1286 40.496L89.1933 40.536C89.4398 40.6839 89.6925 40.8257 89.9421 40.9643C90.1054 41.0568 90.2748 41.1492 90.4474 41.2355C90.6877 41.368 90.9373 41.4881 91.193 41.6145C91.7199 41.8671 92.2714 42.1167 92.8476 42.3509L93.2451 42.5049C93.3714 42.5542 93.4947 42.6035 93.6272 42.6497C93.8521 42.7329 94.0893 42.8192 94.3297 42.8993C94.57 42.9794 94.8103 43.0626 95.0599 43.1396C95.2078 43.192 95.3495 43.2382 95.5036 43.2783C95.6577 43.3184 95.7932 43.3677 95.9473 43.4108C94.0826 43.5235 92.2118 43.3468 90.4012 42.887C90.2348 42.85 90.0653 42.81 89.8928 42.7576C89.7202 42.7052 89.5538 42.6621 89.3751 42.6128C89.1964 42.5635 89.0269 42.508 88.8482 42.4495L88.2628 42.2523C88.0225 42.166 87.776 42.0705 87.5295 41.9688C86.7326 41.6505 85.9575 41.2799 85.2094 40.8596C84.9629 40.7271 84.7194 40.5823 84.4791 40.4282C84.3435 40.3543 84.2234 40.2711 84.0909 40.1817C83.7027 39.9352 83.3144 39.6702 82.9293 39.3683C82.7309 39.229 82.5396 39.0799 82.3562 38.9215C82.122 38.7366 81.8878 38.5456 81.666 38.3361C81.4441 38.1266 81.2624 37.9756 81.0652 37.7876C80.868 37.5997 80.6584 37.3871 80.4489 37.1714C80.3472 37.0605 80.2332 36.9557 80.1408 36.8355C80.0484 36.7154 79.882 36.5582 79.7618 36.4165C77.5896 33.9515 75.6423 30.6115 74.2496 26.1068C73.6886 29.2639 73.8275 32.5055 74.6563 35.6031C75.8888 40.1571 78.9515 45.3365 86.1799 48.695C88.3368 50.0169 88.1057 50.969 88.5894 52.7191C88.5894 52.7191 89.4953 52.6605 90.5491 52.4911C88.5845 52.8341 86.5885 52.9622 84.5962 52.8731C82.3707 52.7839 80.1603 52.4669 77.9994 51.9272L77.9193 51.9056L77.8361 51.881L77.7652 51.8625L77.6142 51.8194H77.5773H77.5588C74.8099 50.9061 72.2273 49.5534 69.9113 47.8138C65.9237 44.7566 62.7902 40.7244 60.8125 36.1053C61.8016 31.465 63.0556 27.9093 64.4113 25.1948C66.0813 21.8517 67.8962 19.7719 69.5508 18.4778L70.6168 16.2902L71.307 15.6216L73.2728 15.0977L75.5159 14.8759C72.606 14.4698 69.6418 14.978 67.0334 16.3302C67.588 14.5154 75.519 12.9686 75.519 12.9686C73.5162 12.3771 71.1499 12.6759 69.1132 13.1997C68.2998 13.4123 67.5449 13.6588 66.8794 13.9022C66.8208 13.9238 66.7654 13.9392 66.713 13.9639C65.9797 14.2319 65.3696 14.4969 64.9598 14.6849L64.8088 14.7527C64.7318 14.7896 64.6701 14.8204 64.6116 14.842C64.5921 14.8569 64.5702 14.8683 64.5469 14.8759L64.3651 14.9653C64.411 14.9059 64.4604 14.8493 64.513 14.7958C64.5623 14.7373 64.6147 14.6818 64.6732 14.6232C64.8498 14.4484 65.0371 14.2848 65.234 14.1333C65.3018 14.0779 65.3696 14.0224 65.4404 13.9731C65.7365 13.7501 66.0451 13.5443 66.3648 13.3569L66.6205 13.2121C66.981 13.0149 67.3693 12.8208 67.7729 12.639C67.8931 12.5866 68.0132 12.528 68.1396 12.4757C68.3953 12.3709 68.651 12.2631 68.916 12.1675L69.2241 12.0474C69.4337 11.9673 69.6401 11.8902 69.8558 11.8163C69.9636 11.7824 70.0684 11.7423 70.1639 11.7054L70.5768 11.5698C73.5115 10.6579 76.5108 9.96888 79.5492 9.50847L72.5826 9.85973L64.7318 10.2418C64.5192 10.5129 64.3066 10.7841 64.1155 11.0583C64.9692 9.84824 65.9259 8.71424 66.9749 7.669C67.1628 7.48105 67.3354 7.31467 67.4833 7.16985L67.5357 7.12055L67.625 7.04044C67.9732 6.73232 68.1827 6.54745 68.1827 6.54745C68.1827 6.54745 68.1827 6.53204 68.2043 6.52588C68.9979 5.81955 69.8458 5.17669 70.7401 4.60322L70.9589 4.46457C72.3652 3.56672 73.8478 2.79446 75.3896 2.15676L75.4574 2.12903L75.5036 2.11054H75.5313C75.7162 2.03659 75.9011 1.97188 76.086 1.9041L76.3448 1.81783L76.5697 1.7408C77.4232 1.46349 78.3044 1.2324 79.1641 1.04445H79.1949H79.238H79.2534C79.7803 0.927362 80.2949 0.825683 80.794 0.736328C83.906 2.28925 85.7147 4.00547 86.7315 5.54606C88.6418 8.45162 87.8407 10.818 87.8407 10.818L98.2212 17.2546L90.2779 9.50847C90.2779 9.50847 89.8897 7.80149 89.2704 5.87575C92.8181 6.54517 96.1337 8.11683 98.8978 10.4393C101.662 12.7619 103.781 15.757 105.052 19.1363C106.323 22.5156 106.702 26.1651 106.153 29.7335C105.605 33.3019 104.146 36.6688 101.919 39.51C98.4396 38.7896 95.0563 37.6667 91.837 36.1638Z" fill="white" stroke="#F7921E" stroke-width="0.308119" stroke-miterlimit="10"/>
<path d="M91.2012 30.4264C91.2012 30.4264 101.412 29.502 101.745 24.378C101.745 24.378 99.4064 21.9685 99.4064 21.3307C99.4064 21.3307 99.0366 19.9226 101.988 20.2399C104.94 20.5573 104.524 23.1054 104.524 23.1054C104.524 23.1054 103.002 24.7416 103.187 26.2452C103.187 26.2452 103.692 29.3264 102.54 31.5633C102.54 31.5633 101.804 32.4291 101.307 30.639L91.2012 30.4264Z" fill="url(#paint4_linear_687_2827)" stroke="#F7921E" stroke-width="0.308119" stroke-miterlimit="10"/>
<path d="M86.6719 16.8292L91.5124 16.3301V18.1911L86.6719 16.8292Z" fill="url(#paint5_linear_687_2827)" stroke="#F7921E" stroke-width="0.308119" stroke-miterlimit="10"/>
<path d="M75.5188 12.966C73.516 12.3744 71.1496 12.6733 69.113 13.1971C68.2995 13.4097 67.5446 13.6562 66.8791 13.8996C66.8206 13.9212 66.7651 13.9366 66.7127 13.9613C65.9794 14.2293 65.3693 14.4943 64.9595 14.6823L64.8085 14.75C64.7315 14.787 64.6699 14.8178 64.6114 14.8394C64.5918 14.8542 64.57 14.8657 64.5466 14.8733L64.3649 14.9626C64.4107 14.9033 64.4601 14.8467 64.5128 14.7932C64.5621 14.7346 64.6144 14.6792 64.673 14.6206C64.8495 14.4458 65.0368 14.2822 65.2338 14.1307C65.3015 14.0753 65.3693 14.0198 65.4402 13.9705C65.7362 13.7475 66.0448 13.5417 66.3645 13.3543L66.6203 13.2094C66.9808 13.0123 67.369 12.8181 67.7727 12.6363C67.8928 12.584 68.013 12.5254 68.1393 12.473C68.3951 12.3683 68.6508 12.2604 68.9158 12.1649L69.2239 12.0448C69.4334 11.9646 69.6399 11.8876 69.8555 11.8137C69.9634 11.7798 70.0681 11.7397 70.1637 11.7027L70.5765 11.5672C73.5112 10.6553 76.5105 9.96627 79.549 9.50586L72.5824 9.8602L64.7315 10.2423C64.5189 10.5134 64.3063 10.7846 64.1153 11.0588C64.1153 11.0588 64.1153 11.0742 64.0999 11.0834L64.0475 11.1512L63.8133 11.4593L63.385 12.0756L63.1632 12.4207C63.0584 12.5809 62.9506 12.7504 62.8366 12.9352C62.7904 13.0092 62.7442 13.0862 62.6979 13.1694C61.8635 14.5719 61.1522 16.044 60.5719 17.5693L60.4333 17.9514V17.973C60.3193 18.3088 60.2083 18.6416 60.1067 18.9744L59.9803 19.4057C59.9372 19.5536 59.8971 19.7138 59.8571 19.8494C59.817 19.985 59.7831 20.1575 59.7492 20.2931C59.6784 20.5704 59.6167 20.8508 59.5582 21.125C59.5151 21.3376 59.4719 21.5471 59.435 21.7597C59.4103 21.8861 59.3887 22.0124 59.3702 22.1357C59.3688 22.1623 59.3688 22.1891 59.3702 22.2158C59.3456 22.3667 59.321 22.5239 59.2994 22.6718C59.2655 22.8875 59.2378 23.1031 59.2162 23.3219C59.2162 23.362 59.2162 23.4051 59.2008 23.4482V23.4174C59.1453 23.8673 59.1053 24.3141 59.0806 24.7485C59.0806 24.6961 59.0806 24.6376 59.0806 24.5821C59.0806 24.7239 59.059 24.8656 59.0498 25.0073C59.0406 25.1491 59.0344 25.3154 59.0282 25.451C59.0221 25.5866 59.0282 25.8084 59.0128 25.9902C59.0128 26.3908 59.0128 26.7852 59.0128 27.1734C59.0113 27.2011 59.0113 27.2289 59.0128 27.2566C59.0128 27.4661 59.0128 27.6664 59.0313 27.8728L59.0775 28.5445C59.096 28.7664 59.1176 28.9851 59.1392 29.2039C59.1392 29.3148 59.1607 29.4257 59.1731 29.5367C59.2039 29.8078 59.2408 30.0728 59.2778 30.3347C59.3148 30.5966 59.3548 30.8493 59.398 31.0927L59.4442 31.3546C59.7192 32.9571 60.1665 34.5253 60.7783 36.0318V36.0565C60.7783 36.0349 60.7784 36.0133 60.7938 35.9918C61.7828 31.3515 63.0369 27.7958 64.3926 25.0813C66.0626 21.7382 67.8774 19.6584 69.532 18.3643L69.5813 18.3242L69.606 18.3057L69.8771 18.0962C70.8015 17.3937 73.2664 15.6313 75.4787 14.8394C72.5771 14.4524 69.6268 14.9734 67.0332 16.3307C67.5878 14.5128 75.5188 12.966 75.5188 12.966ZM59.626 32.3775V32.4083C59.6242 32.4309 59.6242 32.4536 59.626 32.4761C59.6414 32.4422 59.6352 32.4083 59.626 32.3775Z" fill="#F7921E" stroke="#F7921E" stroke-width="0.308119" stroke-miterlimit="10"/>
<path d="M75.6091 4.13739C75.6754 4.147 75.7423 4.15214 75.8094 4.1528L76.0066 4.17745C76.1236 4.17745 76.2315 4.17745 76.3455 4.20518L76.669 4.25448L76.8385 4.27605C76.897 4.27605 76.9617 4.3007 77.0234 4.30686C77.2914 4.35308 77.5441 4.40546 77.7906 4.46708L78.1418 4.55952L78.3822 4.6273L78.7334 4.74439C78.7462 4.73908 78.7607 4.73908 78.7735 4.74439C78.8996 4.78245 79.0231 4.82876 79.1432 4.88304L79.3866 4.97548L79.7964 5.15727L80.0553 5.28976C80.1569 5.33598 80.2555 5.38836 80.3634 5.44382L80.6345 5.60404C80.8086 5.70284 80.9772 5.81083 81.1398 5.92756C82.3232 6.70136 83.2801 7.77521 83.9129 9.03957C82.0563 8.04275 80.0751 7.29774 78.0217 6.82419C71.8316 5.42225 67.5641 7.35107 66.9756 7.63762L66.9355 7.66227C67.1666 7.43735 67.3977 7.2155 67.635 6.99982C67.9831 6.6917 68.1927 6.50683 68.1927 6.50683C68.1927 6.50683 68.1927 6.49142 68.2142 6.48526C69.0214 5.79554 69.8681 5.15356 70.7501 4.5626L70.9688 4.42394C72.3736 3.54037 73.8531 2.78155 75.3903 2.15619L75.4581 2.12846L75.5043 2.10997H75.5321C75.7169 2.03602 75.9018 1.97132 76.0867 1.90353L76.3455 1.81418L76.5704 1.74023C77.4193 1.45237 78.2859 1.21976 79.1648 1.04388L79.2695 1.02539C82.6527 1.77104 84.4244 3.69678 85.3641 5.5116C85.9935 6.7501 86.3468 8.11041 86.3994 9.49866C85.5874 7.99749 84.4708 6.68249 83.121 5.63793C83.0582 5.58351 82.9912 5.53406 82.9208 5.49003L82.7605 5.37603L82.4524 5.17267L82.1443 4.99088C82.0272 4.92001 81.9132 4.86763 81.7992 4.80601C81.6852 4.74439 81.6051 4.70433 81.5126 4.66736L81.4325 4.63346C81.3091 4.57355 81.1826 4.52008 81.0536 4.47324C81.019 4.4557 80.9829 4.44127 80.9457 4.43011L80.7608 4.35924C80.6451 4.31434 80.5267 4.27627 80.4065 4.24523C80.0519 4.13504 79.6907 4.04756 79.325 3.98333C79.2079 3.96176 79.0939 3.94636 78.9892 3.93095C78.8844 3.91555 78.8104 3.9063 78.718 3.90014C78.6393 3.89041 78.5601 3.88527 78.4808 3.88473C78.4007 3.88473 78.3267 3.88473 78.2497 3.88473C78.173 3.875 78.0959 3.86986 78.0186 3.86933C77.2065 3.83632 76.3941 3.9267 75.6091 4.13739Z" fill="#F7921E" stroke="#F7921E" stroke-width="0.308119" stroke-miterlimit="10"/>
<path d="M111.751 26.5385C111.747 30.9843 110.621 35.3572 108.479 39.2527C106.337 43.1482 103.246 46.4404 99.4939 48.8247C96.8302 50.7065 93.7756 51.9621 90.5585 52.4975C89.5139 52.6947 88.6112 52.7687 88.6112 52.7687V52.7225C88.1274 50.9723 88.3523 50.0202 86.2017 48.6984C78.9732 45.3399 75.8982 40.1604 74.678 35.6064C73.8436 32.5091 73.6995 29.2663 74.2559 26.1071C75.6486 30.6118 77.5959 33.9426 79.7681 36.4168C79.8883 36.5585 80.0116 36.7003 80.1471 36.8358C80.2827 36.9714 80.3597 37.0608 80.4552 37.1717C80.6586 37.3812 80.8589 37.5877 81.0715 37.7879C81.2841 37.9882 81.469 38.1608 81.6723 38.3364C81.8757 38.512 82.1283 38.7369 82.3625 38.9218C82.5459 39.0802 82.7372 39.2293 82.9356 39.3686C83.3208 39.6767 83.709 39.9355 84.0972 40.182C84.2297 40.2714 84.3499 40.3546 84.4854 40.4285C84.7258 40.5826 84.9692 40.7366 85.2157 40.8599C85.9638 41.2802 86.7389 41.6508 87.5358 41.9691C87.7823 42.0708 88.0288 42.1663 88.2691 42.2526L88.8546 42.4498C89.0333 42.5083 89.2089 42.5607 89.3815 42.6131C89.554 42.6655 89.7327 42.7148 89.8991 42.7579C90.0655 42.801 90.2411 42.8503 90.4075 42.8873C92.2181 43.3471 94.089 43.5238 95.9536 43.4111C95.7996 43.368 95.6455 43.3248 95.5099 43.2786C95.3744 43.2324 95.2018 43.1923 95.0662 43.14C94.8167 43.0629 94.5794 42.989 94.336 42.8996C94.0926 42.8103 93.8584 42.7332 93.6335 42.65C93.501 42.6038 93.3778 42.5545 93.2514 42.5052L92.854 42.3512C92.2778 42.117 91.7262 41.8674 91.1994 41.6148C90.9436 41.4884 90.694 41.3683 90.4537 41.2358C90.2812 41.1495 90.1117 41.0571 89.9484 40.9646C89.6988 40.826 89.4462 40.6842 89.1997 40.5364L89.135 40.4963C88.8731 40.3361 88.6173 40.1882 88.3647 40.0064L87.8624 39.6675C87.5759 39.4703 87.3047 39.2731 87.0367 39.0697C86.8549 38.9311 86.6762 38.7832 86.5036 38.6445C86.3311 38.5058 86.1 38.3087 85.9059 38.1392C85.7118 37.9697 85.5423 37.8311 85.3728 37.6616C85.0277 37.3535 84.7042 37.0176 84.393 36.6879C80.5569 32.6269 79.6788 28.5474 79.6357 28.3472C83.3391 31.4827 87.4421 34.1134 91.8372 36.1703C95.0535 37.6725 98.4337 38.7954 101.91 39.5165C104.139 36.6752 105.598 33.3078 106.148 29.7386C106.698 26.1694 106.319 22.5188 105.048 19.1386C103.777 15.7583 101.657 12.7624 98.8918 10.4395C96.1268 8.11656 92.8101 6.54494 89.2613 5.87606C89.8775 7.80181 90.2688 9.50878 90.2688 9.50878L98.2214 17.2549L87.847 10.8275C87.847 10.8275 88.6481 8.46118 86.7378 5.55562C85.721 4.01503 83.9123 2.28956 80.7973 0.702749C82.3094 0.437523 83.8347 0.254437 85.3667 0.154297C88.8316 0.153892 92.2627 0.836064 95.464 2.16185C98.6652 3.48764 101.574 5.43107 104.024 7.88115C106.474 10.3312 108.418 13.24 109.743 16.4412C111.069 19.6425 111.751 23.0736 111.751 26.5385Z" fill="#F7921E" stroke="#F7921E" stroke-width="0.308119" stroke-miterlimit="10"/>
<path d="M84.592 52.8788C82.3029 52.8687 80.0268 52.5336 77.8319 51.8836L77.761 51.8651L77.6101 51.822H77.5731H77.5546C74.8058 50.9088 72.2231 49.556 69.9071 47.8164C59.3602 37.3928 71.0903 25.5117 71.0903 25.5117C70.2244 29.9117 70.4247 32.2133 70.4247 32.2133C70.8314 43.7739 81.8744 49.4957 81.8744 49.4957C85.3747 51.6186 84.6506 52.7926 84.592 52.8788Z" fill="#F7921E" stroke="#F7921E" stroke-width="0.308119" stroke-miterlimit="10"/>
<path d="M12.0373 81.4511C5.36648 81.4511 1.93712 76.7616 1.86933 71.3448C1.8416 65.7987 5.30794 61.0475 12.0373 61.0475C13.3722 61.0376 14.6958 61.2923 15.9317 61.7968C17.1676 62.3013 18.2914 63.0457 19.238 63.987L20.4705 62.924C18.2283 60.7001 15.1953 59.4567 12.0373 59.4669C4.11244 59.4669 0.0884068 65.2379 0.153112 71.4188C0.187005 77.6459 4.25109 83.0996 12.0373 83.0996C15.1924 83.1072 18.2213 81.8615 20.4582 79.6363L19.2688 78.5117C17.3366 80.4012 14.7398 81.4567 12.0373 81.4511Z" fill="#F7921E" stroke="#F7921E" stroke-width="0.308119" stroke-miterlimit="10"/>
<path d="M48.5059 73.9894C53.5529 73.9894 56.0302 70.6925 55.9963 66.9242C55.9686 63.3223 53.4235 59.7266 48.4043 59.7266H38.2363V82.8355H40.0203V74.0849H46.3245L54.3171 82.8355H56.6618L48.5059 73.9894ZM40.0203 72.4087V61.3781H48.4043C52.2373 61.3781 54.0798 64.1881 54.0521 66.8965C54.0151 70.1317 52.2373 72.4026 48.1978 72.4026L40.0203 72.4087Z" fill="#F7921E" stroke="#F7921E" stroke-width="0.308119" stroke-miterlimit="10"/>
<path d="M72.0064 81.4511C65.3356 81.4511 61.9001 76.7615 61.8385 71.3448C61.8015 65.7987 65.2678 61.0475 72.0064 61.0475C73.3378 61.0392 74.6577 61.2947 75.8899 61.7993C77.1221 62.3038 78.2422 63.0473 79.1856 63.9869L80.418 62.9239C78.1809 60.7056 75.1569 59.4627 72.0064 59.4668C64.0754 59.4668 60.0483 65.241 60.1161 71.4218C60.15 77.6581 64.2141 83.1026 72.0064 83.1026C75.1587 83.1066 78.1838 81.86 80.418 79.6363L79.2318 78.5116C77.3001 80.3983 74.7065 81.4534 72.0064 81.4511Z" fill="#F7921E" stroke="#F7921E" stroke-width="0.308119" stroke-miterlimit="10"/>
<path d="M100.987 59.7266V74.0911C100.987 83.994 86.7923 84.031 86.7923 74.0911V59.7266H85.0391V74.0911C85.0391 86.2032 102.734 86.1755 102.734 74.0911V59.7266H100.987Z" fill="#F7921E" stroke="#F7921E" stroke-width="0.308119" stroke-miterlimit="10"/>
<path d="M119.355 59.7754V61.3591H127.709V82.8566H129.486V61.3437H137.846V59.7754H119.355Z" fill="#F7921E" stroke="#F7921E" stroke-width="0.308119" stroke-miterlimit="10"/>
<path d="M150.761 70.0944C146.863 69.3672 143.699 68.6739 143.699 65.7376C143.699 62.0401 147.988 61.048 150.699 61.048C153.303 61.085 156.011 61.4794 157.7 64.1877L159.151 63.3219C156.871 59.9326 154.002 59.3965 150.699 59.3965C146.9 59.3965 141.819 60.9186 141.918 65.7992C141.918 70.0636 146.232 70.9201 150.468 71.7428C154.261 72.47 158.094 73.2341 158.057 76.6974C158.057 80.7892 153.534 81.581 150.699 81.581C147.865 81.581 144.229 80.1976 142.808 77.3906L141.225 78.1825C143.006 81.7166 147.104 83.1925 150.699 83.1925C154.566 83.1925 159.807 81.9385 159.844 76.722C159.844 71.7428 155.222 70.9509 150.761 70.0944Z" fill="#F7921E" stroke="#F7921E" stroke-width="0.308119" stroke-miterlimit="10"/>
<path d="M28.7645 57.0566C27.9586 57.0588 27.1807 57.3528 26.5749 57.8842C25.969 58.4156 25.5762 59.1486 25.469 59.9473C25.3619 60.7461 25.5478 61.5566 25.9922 62.2289C26.4366 62.9012 27.1095 63.3898 27.8863 63.6042V82.1776C27.8879 82.3528 27.9583 82.5203 28.0821 82.6442C28.206 82.7681 28.3736 82.8384 28.5488 82.84H28.8785C29.0545 82.84 29.2233 82.7703 29.348 82.6462C29.4727 82.522 29.5432 82.3535 29.544 82.1776V63.6319C30.3376 63.441 31.0336 62.9657 31.5001 62.2959C31.9666 61.6261 32.1712 60.8085 32.0751 59.998C31.979 59.1875 31.5889 58.4403 30.9787 57.8982C30.3685 57.3561 29.5807 57.0567 28.7645 57.0566ZM28.7645 62.2639C28.3934 62.2632 28.0307 62.1526 27.7225 61.9459C27.4143 61.7392 27.1742 61.4458 27.0328 61.1026C26.8913 60.7595 26.8548 60.3822 26.9278 60.0183C27.0008 59.6544 27.18 59.3204 27.4429 59.0584C27.7058 58.7964 28.0404 58.6182 28.4045 58.5464C28.7686 58.4746 29.1458 58.5124 29.4885 58.655C29.8311 58.7976 30.1238 59.0386 30.3295 59.3475C30.5352 59.6564 30.6446 60.0194 30.644 60.3905C30.6424 60.8863 30.4449 61.3614 30.0946 61.7123C29.7443 62.0632 29.2695 62.2614 28.7737 62.2639H28.7645Z" fill="#F7921E" stroke="#F7921E" stroke-width="0.308119" stroke-miterlimit="10"/>
<path d="M110.271 57.0566C109.464 57.0558 108.684 57.3477 108.076 57.8781C107.468 58.4086 107.073 59.1416 106.964 59.9412C106.855 60.7408 107.04 61.5527 107.485 62.2263C107.929 62.8999 108.603 63.3895 109.38 63.6042V82.1776C109.382 82.3528 109.452 82.5203 109.576 82.6442C109.7 82.7681 109.868 82.8384 110.043 82.84H110.373C110.548 82.8392 110.716 82.7692 110.84 82.6451C110.964 82.521 111.034 82.353 111.035 82.1776V63.6319C111.828 63.4411 112.524 62.966 112.991 62.2965C113.457 61.6271 113.662 60.8098 113.566 59.9995C113.471 59.1892 113.081 58.4421 112.471 57.8998C111.862 57.3574 111.075 57.0574 110.259 57.0566H110.271ZM110.271 62.2639C109.9 62.2626 109.538 62.1515 109.23 61.9444C108.922 61.7373 108.682 61.4437 108.541 61.1005C108.4 60.7574 108.364 60.3801 108.438 60.0164C108.511 59.6528 108.691 59.319 108.953 59.0573C109.216 58.7956 109.551 58.6178 109.915 58.5462C110.279 58.4747 110.656 58.5126 110.999 58.6553C111.341 58.798 111.634 59.039 111.839 59.3478C112.045 59.6567 112.154 60.0195 112.154 60.3905C112.151 60.8871 111.953 61.3627 111.601 61.7136C111.25 62.0644 110.774 62.2622 110.277 62.2639H110.271Z" fill="#F7921E" stroke="#F7921E" stroke-width="0.308119" stroke-miterlimit="10"/>
</g>
<defs>
<filter id="filter0_d_687_2827" x="-4.00195" y="0" width="168" height="91.3457" filterUnits="userSpaceOnUse" color-interpolation-filters="sRGB">
<feFlood flood-opacity="0" result="BackgroundImageFix"/>
<feColorMatrix in="SourceAlpha" type="matrix" values="0 0 0 0 0 0 0 0 0 0 0 0 0 0 0 0 0 0 127 0" result="hardAlpha"/>
<feOffset dy="4"/>
<feGaussianBlur stdDeviation="2"/>
<feComposite in2="hardAlpha" operator="out"/>
<feColorMatrix type="matrix" values="0 0 0 0 0 0 0 0 0 0 0 0 0 0 0 0 0 0 0.25 0"/>
<feBlend mode="normal" in2="BackgroundImageFix" result="effect1_dropShadow_687_2827"/>
<feBlend mode="normal" in="SourceGraphic" in2="effect1_dropShadow_687_2827" result="shape"/>
</filter>
<linearGradient id="paint0_linear_687_2827" x1="59" y1="25.1366" x2="59.0339" y2="25.1366" gradientUnits="userSpaceOnUse">
<stop stop-color="#EF6111"/>
<stop offset="1" stop-color="#F7921E"/>
</linearGradient>
<linearGradient id="paint1_linear_687_2827" x1="59.1575" y1="23.0835" x2="59.2561" y2="23.0835" gradientUnits="userSpaceOnUse">
<stop stop-color="#EF6111"/>
<stop offset="1" stop-color="#F7921E"/>
</linearGradient>
<linearGradient id="paint2_linear_687_2827" x1="80.9395" y1="4.55135" x2="81.5067" y2="4.55135" gradientUnits="userSpaceOnUse">
<stop stop-color="#EF6111"/>
<stop offset="1" stop-color="#F7921E"/>
</linearGradient>
<linearGradient id="paint3_linear_687_2827" x1="90.6328" y1="52.3057" x2="92.2196" y2="52.3057" gradientUnits="userSpaceOnUse">
<stop stop-color="#EF6111"/>
<stop offset="1" stop-color="#F7921E"/>
</linearGradient>
<linearGradient id="paint4_linear_687_2827" x1="91.1919" y1="25.9833" x2="104.533" y2="25.9833" gradientUnits="userSpaceOnUse">
<stop stop-color="#EF6111"/>
<stop offset="1" stop-color="#F7921E"/>
</linearGradient>
<linearGradient id="paint5_linear_687_2827" x1="86.6719" y1="17.2606" x2="91.5124" y2="17.2606" gradientUnits="userSpaceOnUse">
<stop stop-color="#EF6111"/>
<stop offset="1" stop-color="#F7921E"/>
</linearGradient>
</defs>
</svg>
