<svg width="33" height="34" viewBox="0 0 33 34" fill="none" xmlns="http://www.w3.org/2000/svg">
<rect x="0.0851726" y="0.54611" width="32.4297" height="32.4298" rx="8.06483" fill="#FFF3E6" stroke="#FFA844" stroke-width="0.170345"/>
<g clip-path="url(#clip0_685_10321)">
<path d="M24.1913 9.22656H7.54641C6.56574 9.22656 5.77148 10.0258 5.77148 11.0015V21.651C5.77148 22.6326 6.57158 23.426 7.54641 23.426H24.1913C25.1637 23.426 25.9662 22.6359 25.9662 21.651V11.0015C25.9662 10.0275 25.1751 9.22656 24.1913 9.22656ZM23.9427 10.4098C23.58 10.7705 17.3394 16.9784 17.1239 17.1927C16.7886 17.528 16.3429 17.7126 15.8688 17.7126C15.3947 17.7126 14.949 17.5279 14.6127 17.1916C14.4677 17.0474 8.29594 10.9082 7.79498 10.4098H23.9427ZM6.95477 21.4102V11.2431L12.068 16.3294L6.95477 21.4102ZM7.79573 22.2427L12.907 17.1639L13.7771 18.0294C14.3358 18.5881 15.0787 18.8958 15.8688 18.8958C16.659 18.8958 17.4019 18.5881 17.9595 18.0305L18.8307 17.1639L23.9419 22.2427H7.79573ZM24.7829 21.4102L19.6696 16.3294L24.7829 11.2431V21.4102Z" fill="#FD7E14"/>
</g>
<defs>
<clipPath id="clip0_685_10321">
<rect width="20.1947" height="20.1947" fill="white" transform="translate(5.76953 6.23047)"/>
</clipPath>
</defs>
</svg>
