<svg width="22" height="20" viewBox="0 0 22 20" fill="none" xmlns="http://www.w3.org/2000/svg">
<g clip-path="url(#clip0_685_10358)" filter="url(#filter0_i_685_10358)">
<path fill-rule="evenodd" clip-rule="evenodd" d="M0.465495 6.92871L10.2355 0L20.0521 6.92871H0.465495ZM19.0656 10.5435C19.8735 10.6413 20.6177 11.0311 21.1582 11.6395C21.6986 12.2479 21.998 13.0329 22 13.8467V16.6647C22 17.547 21.6495 18.3931 21.0257 19.0169C20.4019 19.6407 19.5557 19.9912 18.6735 19.9912C17.7913 19.9912 16.9452 19.6407 16.3213 19.0169C15.6975 18.3931 15.347 17.547 15.347 16.6647V13.8449C15.349 13.0316 15.6482 12.247 16.1883 11.639C16.7284 11.0309 17.4722 10.6413 18.2796 10.5435V8.70475C18.2796 8.60029 18.3211 8.5001 18.395 8.42624C18.4689 8.35237 18.569 8.31087 18.6735 8.31087C18.778 8.31087 18.8782 8.35237 18.952 8.42624C19.0259 8.5001 19.0674 8.60029 19.0674 8.70475V10.5435H19.0656ZM20.4674 12.0527C20.1126 11.6984 19.6608 11.4571 19.169 11.3592C18.6772 11.2613 18.1674 11.3113 17.7039 11.5028C17.2405 11.6943 16.8441 12.0188 16.5649 12.4353C16.2856 12.8518 16.136 13.3416 16.1348 13.8431V16.6647C16.1348 17.3385 16.4024 17.9847 16.8789 18.4611C17.3553 18.9376 18.0015 19.2052 18.6753 19.2052C19.3491 19.2052 19.9953 18.9376 20.4717 18.4611C20.9482 17.9847 21.2158 17.3385 21.2158 16.6647V13.8449C21.2151 13.5121 21.1488 13.1826 21.0207 12.8754C20.8926 12.5682 20.7052 12.2893 20.4692 12.0545L20.4674 12.0527ZM18.6359 13.127C18.8034 13.1274 18.9639 13.1942 19.0823 13.3126C19.2007 13.431 19.2674 13.5915 19.2679 13.759V14.4124C19.266 14.579 19.1987 14.7381 19.0804 14.8553C18.9621 14.9726 18.8025 15.0386 18.6359 15.0391C18.4684 15.0381 18.308 14.9713 18.1894 14.853C18.0708 14.7348 18.0035 14.5746 18.0021 14.4071V13.75C18.0026 13.5822 18.0696 13.4215 18.1884 13.303C18.3072 13.1845 18.4681 13.118 18.6359 13.118V13.127ZM0 17.0371H1.13688V15.9826H1.73307V15.4795H2.37402V9.44417H1.06348V7.99935H17.1159C17.0144 8.22067 16.9619 8.46128 16.9619 8.70475V9.53011C16.8563 9.57308 16.7507 9.61963 16.6486 9.66976C16.3021 9.83829 15.9779 10.0494 15.6836 10.2982V9.44417H13.6587V15.4795H14.0293V16.6647C14.0283 17.1668 14.1093 17.6658 14.2692 18.1418H0V17.0371ZM5.42839 15.9826H6.16781V15.4795H6.80339V9.44417H4.78744V15.4795H5.42839V15.9826ZM9.86491 15.9826H10.6061V15.4795H11.2453V9.44417H9.22396V15.4795H9.86491V15.9826ZM6.94482 5.18132L10.2498 2.64616L13.5728 5.18132H6.94482Z" fill="#EE8D1D"/>
</g>
<defs>
<filter id="filter0_i_685_10358" x="0" y="0" width="22" height="23.9922" filterUnits="userSpaceOnUse" color-interpolation-filters="sRGB">
<feFlood flood-opacity="0" result="BackgroundImageFix"/>
<feBlend mode="normal" in="SourceGraphic" in2="BackgroundImageFix" result="shape"/>
<feColorMatrix in="SourceAlpha" type="matrix" values="0 0 0 0 0 0 0 0 0 0 0 0 0 0 0 0 0 0 127 0" result="hardAlpha"/>
<feOffset dy="4"/>
<feGaussianBlur stdDeviation="2"/>
<feComposite in2="hardAlpha" operator="arithmetic" k2="-1" k3="1"/>
<feColorMatrix type="matrix" values="0 0 0 0 0 0 0 0 0 0 0 0 0 0 0 0 0 0 0.25 0"/>
<feBlend mode="normal" in2="shape" result="effect1_innerShadow_685_10358"/>
</filter>
<clipPath id="clip0_685_10358">
<rect width="22" height="19.993" fill="white"/>
</clipPath>
</defs>
</svg>
