<svg width="22" height="22" viewBox="0 0 22 22" fill="none" xmlns="http://www.w3.org/2000/svg">
<g clip-path="url(#clip0_685_10378)">
<g filter="url(#filter0_i_685_10378)">
<path fill-rule="evenodd" clip-rule="evenodd" d="M7.84521 16.5279L17.1551 7.21802L21.998 12.052L12.6881 21.3619L7.84521 16.5279ZM9.75016 1.09855C7.80571 1.09965 5.91831 1.75565 4.39233 2.96074C2.86635 4.16584 1.79075 5.84979 1.33899 7.74103C0.887227 9.63227 1.08564 11.6205 1.90223 13.3852C2.71881 15.1499 4.10597 16.5881 5.84 17.4679C5.93927 17.7175 6.08854 17.9441 6.27864 18.1339L7.35286 19.2081C5.76928 18.8043 4.31259 18.0089 3.11669 16.8951C1.92079 15.7813 1.02404 14.3847 0.50886 12.8338C-0.0063187 11.2828 -0.123399 9.62728 0.168381 8.01928C0.46016 6.41128 1.15144 4.90241 2.17868 3.63136C3.20592 2.3603 4.53617 1.36784 6.04717 0.745188C7.55816 0.122535 9.20143 -0.110334 10.8259 0.0679835C12.4504 0.246301 14.0041 0.830086 15.344 1.76568C16.6839 2.70128 17.7672 3.95867 18.4943 5.42229C18.0734 5.13152 17.5559 5.01594 17.0513 5.10002C16.2691 3.87276 15.19 2.86266 13.9137 2.16322C12.6375 1.46377 11.2055 1.09758 9.75016 1.09855ZM9.24886 8.75595C9.05565 8.85267 8.89505 9.00393 8.78694 9.191H7.215C7.25185 9.10486 7.25902 9.00892 7.23539 8.91826C7.21175 8.8276 7.15866 8.74737 7.08445 8.69018C7.01025 8.63298 6.91914 8.60207 6.82545 8.60231C6.73176 8.60255 6.64081 8.63392 6.56689 8.69149L5.63411 9.40764C5.58333 9.44674 5.54212 9.49688 5.51358 9.55426C5.48505 9.61165 5.46994 9.67477 5.4694 9.73886C5.46994 9.80294 5.48505 9.86606 5.51358 9.92345C5.54212 9.98083 5.58333 10.031 5.63411 10.0701L6.56689 10.7862C6.64081 10.8438 6.73176 10.8752 6.82545 10.8754C6.91914 10.8756 7.01025 10.8447 7.08445 10.7875C7.15866 10.7303 7.21175 10.6501 7.23539 10.5594C7.25902 10.4688 7.25185 10.3728 7.215 10.2867H8.78694C8.87104 10.4317 8.98678 10.5558 9.12553 10.6498C9.26428 10.7439 9.42246 10.8053 9.58829 10.8297C9.75411 10.8541 9.9233 10.8407 10.0832 10.7906C10.2432 10.7405 10.3897 10.6549 10.512 10.5402C10.6342 10.4256 10.729 10.2848 10.7893 10.1284C10.8496 9.97205 10.8738 9.80407 10.8601 9.63702C10.8464 9.46998 10.7952 9.30817 10.7103 9.16368C10.6254 9.01918 10.5089 8.89572 10.3696 8.80249L10.3553 6.65406C10.4422 6.69299 10.5397 6.70143 10.632 6.67802C10.7243 6.6546 10.8059 6.60071 10.8638 6.52506C10.9216 6.44942 10.9522 6.35646 10.9505 6.26126C10.9489 6.16606 10.9152 6.0742 10.8548 6.00057L10.1118 5.08391C10.0741 5.03657 10.0265 4.99797 9.97244 4.97077C9.91835 4.94357 9.85901 4.92842 9.7985 4.92635H9.78776C9.71792 4.92427 9.64866 4.93953 9.58617 4.97077C9.52368 5.00202 9.46991 5.04827 9.42968 5.10539L8.72965 6.05428C8.6751 6.12829 8.64617 6.21807 8.64726 6.31C8.64835 6.40193 8.67939 6.491 8.73568 6.5637C8.79197 6.63639 8.87044 6.68874 8.95917 6.7128C9.04791 6.73686 9.14207 6.73132 9.22737 6.69703L9.23991 8.73983L9.24886 8.75595ZM12.9316 3.3007C12.9959 3.19752 13.0977 3.1233 13.2156 3.09369C13.3335 3.06408 13.4582 3.08139 13.5636 3.14197C13.669 3.20255 13.7468 3.30168 13.7805 3.41845C13.8142 3.53523 13.8013 3.66054 13.7445 3.76799L13.3864 4.37492C13.3221 4.47811 13.2204 4.55233 13.1025 4.58194C12.9846 4.61155 12.8598 4.59424 12.7544 4.53365C12.649 4.47307 12.5713 4.37395 12.5375 4.25717C12.5038 4.14039 12.5167 4.01508 12.5736 3.90764L12.9316 3.3007ZM3.76855 13.7439C3.66111 13.8007 3.53579 13.8137 3.41902 13.7799C3.30224 13.7462 3.20312 13.6684 3.14253 13.5631C3.08195 13.4577 3.06464 13.3329 3.09425 13.215C3.12386 13.0971 3.19808 12.9953 3.30127 12.9311L3.9082 12.573C4.01564 12.5162 4.14096 12.5032 4.25773 12.537C4.37451 12.5707 4.47364 12.6485 4.53422 12.7538C4.5948 12.8592 4.61211 12.984 4.5825 13.1019C4.55289 13.2198 4.47867 13.3216 4.37548 13.3858L3.76855 13.7439ZM2.57438 10.2205C2.4495 10.2205 2.32973 10.1709 2.24143 10.0826C2.15312 9.99425 2.10351 9.87448 2.10351 9.7496C2.10351 9.62472 2.15312 9.50495 2.24143 9.41664C2.32973 9.32834 2.4495 9.27873 2.57438 9.27873H3.27441C3.39929 9.27873 3.51906 9.32834 3.60736 9.41664C3.69567 9.50495 3.74528 9.62472 3.74528 9.7496C3.74528 9.87448 3.69567 9.99425 3.60736 10.0826C3.51906 10.1709 3.39929 10.2205 3.27441 10.2205H2.57438ZM3.30306 6.56812C3.246 6.53956 3.19536 6.49965 3.15425 6.45085C3.11315 6.40204 3.08243 6.34536 3.06398 6.28428C3.04553 6.22319 3.03974 6.15898 3.04696 6.09558C3.05418 6.03218 3.07426 5.97092 3.10597 5.91555C3.13768 5.86017 3.18036 5.81185 3.23139 5.77354C3.28242 5.73523 3.34073 5.70773 3.40275 5.69273C3.46477 5.67773 3.5292 5.67554 3.5921 5.6863C3.655 5.69706 3.71504 5.72053 3.76855 5.75529L4.37548 6.11337C4.48304 6.17533 4.56156 6.27748 4.5938 6.39735C4.62603 6.51722 4.60933 6.64498 4.54736 6.75253C4.48539 6.86008 4.38324 6.93861 4.26338 6.97084C4.14351 7.00307 4.01575 6.98637 3.9082 6.9244L3.30306 6.56633V6.56812ZM5.75586 3.76799C5.69901 3.66054 5.6861 3.53523 5.71983 3.41845C5.75357 3.30168 5.83132 3.20255 5.9367 3.14197C6.04208 3.08139 6.16686 3.06408 6.28475 3.09369C6.40264 3.1233 6.50443 3.19752 6.56868 3.3007L6.92675 3.90764C6.95744 3.96089 6.97733 4.01967 6.9853 4.08061C6.99327 4.14155 6.98915 4.20346 6.97319 4.26281C6.95723 4.32217 6.92974 4.37779 6.89228 4.42652C6.85482 4.47524 6.80813 4.51611 6.75488 4.5468C6.70163 4.57748 6.64285 4.59737 6.58191 4.60534C6.52097 4.61331 6.45905 4.60919 6.3997 4.59323C6.34035 4.57727 6.28472 4.54978 6.236 4.51232C6.18727 4.47486 6.1464 4.42818 6.11572 4.37492L5.75765 3.76799H5.75586ZM9.27929 2.57382C9.27929 2.44893 9.3289 2.32917 9.41721 2.24086C9.50551 2.15256 9.62528 2.10295 9.75016 2.10295C9.87504 2.10295 9.99481 2.15256 10.0831 2.24086C10.1714 2.32917 10.221 2.44893 10.221 2.57382V3.27385C10.221 3.39873 10.1714 3.5185 10.0831 3.6068C9.99481 3.6951 9.87504 3.74471 9.75016 3.74471C9.62528 3.74471 9.50551 3.6951 9.41721 3.6068C9.3289 3.5185 9.27929 3.39873 9.27929 3.27385V2.57382ZM13.501 12.8684C13.7828 12.587 14.1417 12.3954 14.5323 12.3179C14.9229 12.2404 15.3278 12.2804 15.6957 12.4329C16.0636 12.5855 16.378 12.8436 16.5992 13.1748C16.8204 13.506 16.9385 13.8953 16.9385 14.2935C16.9385 14.6918 16.8204 15.0811 16.5992 15.4123C16.378 15.7435 16.0636 16.0016 15.6957 16.1541C15.3278 16.3067 14.9229 16.3467 14.5323 16.2692C14.1417 16.1917 13.7828 16.0001 13.501 15.7187C13.3135 15.5317 13.1647 15.3096 13.0632 15.0651C12.9616 14.8205 12.9094 14.5583 12.9094 14.2935C12.9094 14.0288 12.9616 13.7666 13.0632 13.522C13.1647 13.2775 13.3135 13.0554 13.501 12.8684ZM10.1387 15.7097L16.3315 9.51864C16.5215 9.70844 16.7791 9.81504 17.0477 9.81504C17.3162 9.81504 17.5738 9.70844 17.7638 9.51864L19.6759 11.4325C19.5815 11.5264 19.5066 11.638 19.4555 11.7609C19.4044 11.8838 19.378 12.0156 19.378 12.1487C19.378 12.2818 19.4044 12.4136 19.4555 12.5365C19.5066 12.6594 19.5815 12.771 19.6759 12.8648L13.4831 19.0541C13.2931 18.8643 13.0355 18.7577 12.7669 18.7577C12.4984 18.7577 12.2408 18.8643 12.0508 19.0541L10.1387 17.1402C10.3285 16.9502 10.4351 16.6926 10.4351 16.4241C10.4351 16.1555 10.3285 15.8979 10.1387 15.7079V15.7097Z" fill="#EE8D1D"/>
</g>
</g>
<defs>
<filter id="filter0_i_685_10378" x="0.0117188" y="0.00976562" width="21.9863" height="25.3516" filterUnits="userSpaceOnUse" color-interpolation-filters="sRGB">
<feFlood flood-opacity="0" result="BackgroundImageFix"/>
<feBlend mode="normal" in="SourceGraphic" in2="BackgroundImageFix" result="shape"/>
<feColorMatrix in="SourceAlpha" type="matrix" values="0 0 0 0 0 0 0 0 0 0 0 0 0 0 0 0 0 0 127 0" result="hardAlpha"/>
<feOffset dy="4"/>
<feGaussianBlur stdDeviation="2"/>
<feComposite in2="hardAlpha" operator="arithmetic" k2="-1" k3="1"/>
<feColorMatrix type="matrix" values="0 0 0 0 0 0 0 0 0 0 0 0 0 0 0 0 0 0 0.25 0"/>
<feBlend mode="normal" in2="shape" result="effect1_innerShadow_685_10378"/>
</filter>
<clipPath id="clip0_685_10378">
<rect width="22" height="21.3698" fill="white"/>
</clipPath>
</defs>
</svg>
