<svg width="33" height="34" viewBox="0 0 33 34" fill="none" xmlns="http://www.w3.org/2000/svg">
<rect x="0.0851726" y="0.518766" width="32.4297" height="32.4298" rx="8.06483" fill="#FFF3E6" stroke="#FFA844" stroke-width="0.170345"/>
<g clip-path="url(#clip0_685_10341)">
<path d="M20.3029 26.3978C16.7627 26.3978 12.9821 25.097 10.0262 22.1411C7.0752 19.1901 5.76953 15.4121 5.76953 11.8645C5.76953 8.73787 8.29907 6.20312 11.4309 6.20312C11.6728 6.20312 11.8903 6.3504 11.9802 6.57503L14.5151 12.9122C14.6364 13.2156 14.4889 13.5599 14.1855 13.6812L11.401 14.795C11.5979 17.9985 14.1694 20.5698 17.3723 20.7665L18.4862 17.9819C18.6072 17.679 18.9514 17.5309 19.2552 17.6523L25.5923 20.1872C25.8169 20.277 25.9642 20.4945 25.9642 20.7365C25.9642 23.8631 23.4347 26.3978 20.3029 26.3978ZM11.0371 7.40337C8.7712 7.59944 6.95281 9.49955 6.95281 11.8645C6.95281 15.4304 8.34144 18.7829 10.8629 21.3044C13.3844 23.8259 16.7369 25.2145 20.3029 25.2145C22.667 25.2145 24.5678 23.3972 24.764 21.1302L19.3651 18.9707L18.3173 21.5899C18.2275 21.8145 18.01 21.9618 17.768 21.9618C13.5978 21.9618 10.2055 18.5696 10.2055 14.4C10.2055 14.1581 10.3528 13.9398 10.5774 13.85L13.1967 12.8023L11.0371 7.40337Z" fill="#FD7E14"/>
</g>
<defs>
<clipPath id="clip0_685_10341">
<rect width="20.1947" height="20.1947" fill="white" transform="translate(5.76953 6.20312)"/>
</clipPath>
</defs>
</svg>
