<svg width="100" height="100" viewBox="0 0 100 100" fill="none" xmlns="http://www.w3.org/2000/svg">
<path d="M28.8593 96.6655C28.6199 96.6655 28.3833 96.6138 28.1657 96.5141C27.948 96.4144 27.7544 96.269 27.598 96.0878C27.4416 95.9065 27.326 95.6937 27.2593 95.4638C27.1925 95.2339 27.176 94.9923 27.2109 94.7555L28.4893 86.0272C28.6579 84.7448 28.527 83.4409 28.1068 82.2177C27.6866 80.9944 26.9886 79.8852 26.0676 78.9772L4.6926 57.9989C3.82683 57.1047 3.34066 55.9101 3.33594 54.6655V24.9822C3.34074 24.0918 3.69636 23.2392 4.32566 22.6093C4.95496 21.9793 5.80721 21.6229 6.6976 21.6172H6.72094C7.58648 21.6582 8.40671 22.0162 9.02539 22.6228C9.64408 23.2295 10.018 24.0426 10.0759 24.9072L11.8976 43.4672C11.8776 43.4822 11.8593 43.5005 11.8426 43.5155C11.1767 44.1275 10.6423 44.8686 10.2719 45.6937C9.90149 46.5188 9.70284 47.4106 9.68803 48.3149C9.67321 49.2191 9.84255 50.117 10.1857 50.9538C10.5289 51.7905 11.0388 52.5487 11.6843 53.1822L24.7676 66.0155C25.0846 66.3176 25.5078 66.4827 25.9457 66.4753C26.3835 66.4678 26.8008 66.2883 27.1074 65.9756C27.414 65.6629 27.5851 65.2422 27.5839 64.8043C27.5827 64.3664 27.4092 63.9465 27.1009 63.6355L14.0176 50.8039C13.6951 50.4868 13.4405 50.1075 13.2693 49.689C13.098 49.2704 13.0137 48.8214 13.0215 48.3693C13.0293 47.9172 13.1291 47.4713 13.3146 47.0589C13.5002 46.6465 13.7677 46.2762 14.1009 45.9705C14.2002 45.8792 14.3054 45.7945 14.4159 45.7172C14.4963 45.6756 14.5732 45.6276 14.6459 45.5739C15.3307 45.2165 16.112 45.0884 16.875 45.2084C17.638 45.3284 18.3423 45.6902 18.8843 46.2405L30.8943 58.0289C31.757 58.8399 32.8477 59.3669 34.0193 59.5388C36.2962 59.7462 38.43 60.7397 40.0543 62.3489C42.6312 64.7397 44.6713 67.6503 46.0395 70.8883C47.4076 74.1263 48.0728 77.6179 47.9909 81.1322C47.9909 81.6455 48.0443 83.8405 48.1043 86.5105C48.1826 89.9139 48.2809 94.2638 48.3193 96.6672L28.8593 96.6655Z" fill="#FAC17F"/>
<path d="M96.6669 54.6672C96.6658 55.8968 96.192 57.0789 95.3436 57.9689L73.9353 78.9789C73.0126 79.8896 72.314 81.0019 71.8943 82.2285C71.4747 83.4551 71.3455 84.7623 71.5169 86.0472L72.7919 94.7589C72.8266 94.9956 72.8099 95.237 72.743 95.4667C72.6761 95.6964 72.5606 95.909 72.4042 96.09C72.2478 96.2711 72.0543 96.4163 71.8368 96.5159C71.6192 96.6155 71.3828 96.6672 71.1436 96.6673H51.6836C51.7219 94.2639 51.8203 89.9139 51.8986 86.5106C51.9586 83.8439 52.0069 81.6456 52.0119 81.1323C51.9301 77.618 52.5952 74.1264 53.9634 70.8884C55.3316 67.6504 57.3716 64.7397 59.9486 62.3489C61.5729 60.7398 63.7066 59.7463 65.9836 59.5389C67.1559 59.3667 68.2472 58.8391 69.1103 58.0272L81.1103 46.2406C81.6525 45.6907 82.3568 45.3293 83.1196 45.2093C83.8825 45.0893 84.6637 45.2171 85.3486 45.5739C85.4216 45.6291 85.4991 45.6782 85.5803 45.7206C85.6903 45.7973 85.795 45.8814 85.8936 45.9722C86.2268 46.278 86.4944 46.6483 86.6799 47.0607C86.8655 47.473 86.9652 47.9189 86.973 48.371C86.9808 48.8232 86.8965 49.2722 86.7253 49.6907C86.554 50.1092 86.2994 50.4886 85.9769 50.8056L72.9003 63.6472C72.592 63.9582 72.4185 64.3781 72.4173 64.816C72.4161 65.2539 72.5872 65.6747 72.8938 65.9874C73.2004 66.3001 73.6177 66.4795 74.0555 66.487C74.4934 66.4945 74.9166 66.3293 75.2336 66.0272L88.3169 53.1939C88.9624 52.5604 89.4723 51.8023 89.8155 50.9655C90.1586 50.1287 90.328 49.2309 90.3132 48.3266C90.2984 47.4223 90.0997 46.5305 89.7293 45.7054C89.3589 44.8803 88.8245 44.1392 88.1586 43.5272C88.1414 43.5099 88.123 43.4937 88.1036 43.4789L89.9253 24.9206C89.9943 24.0556 90.375 23.245 90.9967 22.6396C91.6184 22.0342 92.4387 21.675 93.3053 21.6289C94.1939 21.6346 95.0447 21.9896 95.6737 22.6174C96.3027 23.2452 96.6595 24.0952 96.6669 24.9839V54.6672Z" fill="#FAC17F"/>
<path d="M65 1.66797C62.1737 1.67569 59.3801 2.27252 56.7974 3.42039C54.2147 4.56826 51.8996 6.24195 50 8.33464C48.1004 6.24195 45.7853 4.56826 43.2026 3.42039C40.6199 2.27252 37.8263 1.67569 35 1.66797C26.12 1.66797 20 10.0546 20 20.0013C20 29.983 26.3333 47.4246 50 55.0013C73.6667 47.4246 80 29.983 80 20.0013C80 10.0546 73.88 1.66797 65 1.66797ZM35 10.0013C30.8333 10.0013 28.3333 15.0863 28.3333 20.0013C28.3333 20.4433 28.1577 20.8673 27.8452 21.1798C27.5326 21.4924 27.1087 21.668 26.6667 21.668C26.2246 21.668 25.8007 21.4924 25.4882 21.1798C25.1756 20.8673 25 20.4433 25 20.0013C25 13.538 28.5 6.66797 35 6.66797C35.442 6.66797 35.866 6.84356 36.1785 7.15612C36.4911 7.46869 36.6667 7.89261 36.6667 8.33464C36.6667 8.77666 36.4911 9.20059 36.1785 9.51315C35.866 9.82571 35.442 10.0013 35 10.0013Z" fill="#F7921E"/>
</svg>
