<svg width="38" height="42" viewBox="0 0 38 42" fill="none" xmlns="http://www.w3.org/2000/svg">
<rect x="0.0136719" y="6.05859" width="20.8694" height="20.8694" rx="3.97513" fill="#FAC17F" fill-opacity="0.5"/>
<rect x="20.209" width="6.73207" height="6.73207" rx="1.34641" fill="#F7921E" fill-opacity="0.7"/>
<g clip-path="url(#clip0_687_2934)" filter="url(#filter0_i_687_2934)">
<path d="M21.8934 10.7715L34.2165 15.9061V20.6301C34.2165 28.8455 29.8521 36.4446 22.7664 40.6037L21.8934 41.0658L21.0204 40.5523C13.9347 36.4446 9.57031 28.8455 9.57031 20.6301V15.9061L21.8934 10.7715Z" fill="#F7921E"/>
<path d="M30.1085 25.6627C30.1085 30.1998 26.4303 33.8781 21.8931 33.8781C17.356 33.8781 13.6777 30.1998 13.6777 25.6627C13.6777 21.1255 17.356 17.4473 21.8931 17.4473C26.4303 17.4473 30.1085 21.1255 30.1085 25.6627Z" fill="#FAC17F"/>
<path d="M21.8937 33.8772C23.7936 33.8772 25.6418 33.2098 27.1311 32.0287L26.2581 27.4075C26.1042 26.6887 25.5907 26.0724 24.8717 25.8157L23.4341 25.3022C23.1773 25.1997 23.0234 24.943 23.1259 24.6348C23.1259 24.6348 23.1259 24.6348 23.1259 24.5834L23.8961 22.6838C23.9475 22.581 23.9475 22.427 23.9475 22.3243V22.0675C23.9475 20.9378 23.0234 20.0137 21.8937 20.0137C20.764 20.0137 19.8398 20.9378 19.8398 22.0675V22.3757C19.8398 22.5296 19.8398 22.6324 19.8912 22.7349L20.6614 24.6348C20.764 24.8916 20.6614 25.1997 20.3533 25.3022C20.3533 25.3022 20.3533 25.3022 20.3019 25.3022L18.9157 25.7646C18.1966 26.0213 17.6832 26.5859 17.5292 27.3561L16.6562 31.9773C18.1455 33.2098 19.9938 33.8772 21.8937 33.8772Z" fill="white"/>
</g>
<defs>
<filter id="filter0_i_687_2934" x="6.74609" y="10.7715" width="30.2944" height="31.3047" filterUnits="userSpaceOnUse" color-interpolation-filters="sRGB">
<feFlood flood-opacity="0" result="BackgroundImageFix"/>
<feBlend mode="normal" in="SourceGraphic" in2="BackgroundImageFix" result="shape"/>
<feColorMatrix in="SourceAlpha" type="matrix" values="0 0 0 0 0 0 0 0 0 0 0 0 0 0 0 0 0 0 127 0" result="hardAlpha"/>
<feOffset dy="1.34641"/>
<feGaussianBlur stdDeviation="0.504905"/>
<feComposite in2="hardAlpha" operator="arithmetic" k2="-1" k3="1"/>
<feColorMatrix type="matrix" values="0 0 0 0 0 0 0 0 0 0 0 0 0 0 0 0 0 0 0.26 0"/>
<feBlend mode="normal" in2="shape" result="effect1_innerShadow_687_2934"/>
</filter>
<clipPath id="clip0_687_2934">
<rect width="30.2943" height="30.2943" fill="white" transform="translate(6.74609 10.7715)"/>
</clipPath>
</defs>
</svg>
