<svg width="43" height="44" viewBox="0 0 43 44" fill="none" xmlns="http://www.w3.org/2000/svg">
<g filter="url(#filter0_i_687_2947)">
<g clip-path="url(#clip0_687_2947)">
<path d="M7.30684 9.67969H30.31C31.1008 9.67969 31.7477 10.3266 31.7477 11.1174V22.6189H5.86914V11.1174C5.86914 10.3266 6.51603 9.67969 7.30684 9.67969Z" fill="#F7D289"/>
<path d="M42.5308 22.6183V20.4617L37.4988 14.7109H31.748V22.6183H42.5308Z" fill="#DDAD6F"/>
<path d="M5.86914 22.6191H42.5304V28.3699C42.5304 29.1607 41.8835 29.8076 41.0927 29.8076H7.30684C6.51603 29.8076 5.86914 29.1607 5.86914 28.3699V22.6191Z" fill="#878B9B"/>
<path d="M18.8097 30.1666C18.8097 32.3501 17.0396 34.1202 14.856 34.1202C12.6724 34.1202 10.9023 32.3501 10.9023 30.1666C10.9023 27.983 12.6724 26.2129 14.856 26.2129C17.0396 26.2129 18.8097 27.983 18.8097 30.1666Z" fill="#4A4A56"/>
<path d="M37.4991 30.1666C37.4991 32.3501 35.729 34.1202 33.5455 34.1202C31.3619 34.1202 29.5918 32.3501 29.5918 30.1666C29.5918 27.983 31.3619 26.2129 33.5455 26.2129C35.729 26.2129 37.4991 27.983 37.4991 30.1666Z" fill="#4A4A56"/>
<path d="M5.86914 21.8984H42.5304V23.3361H5.86914V21.8984Z" fill="#DDAD6F"/>
<path d="M1.55664 13.9922H3.71318V15.4299H1.55664V13.9922Z" fill="#F7D289"/>
<path d="M13.2793 30.7119L15.4229 28.5859L16.4355 29.6066L14.2919 31.733L13.2793 30.7119Z" fill="#878B9B"/>
<path d="M31.9688 30.7246L34.1035 28.5898L35.12 29.6063L32.9852 31.7411L31.9688 30.7246Z" fill="#878B9B"/>
<path d="M0.837891 16.1484H3.71328V17.5861H0.837891V16.1484Z" fill="#F7D289"/>
<path d="M0.119141 18.3047H3.71338V19.7424H0.119141V18.3047Z" fill="#F7D289"/>
<path d="M16.6525 12.5547H20.9656C21.7564 12.5547 22.4033 13.2016 22.4033 13.9924V18.3055C22.4033 19.0963 21.7564 19.7432 20.9656 19.7432H16.6525C15.8617 19.7432 15.2148 19.0963 15.2148 18.3055V13.9924C15.2148 13.2016 15.8617 12.5547 16.6525 12.5547Z" fill="#F7921E"/>
<path d="M18.8082 17.8735L16.8672 15.9328L17.8739 14.9262L18.8082 15.8609L22.618 12.0508L23.6246 13.0574L18.8082 17.8735Z" fill="white"/>
</g>
</g>
<defs>
<filter id="filter0_i_687_2947" x="0.119141" y="0.693359" width="42.4121" height="43.4219" filterUnits="userSpaceOnUse" color-interpolation-filters="sRGB">
<feFlood flood-opacity="0" result="BackgroundImageFix"/>
<feBlend mode="normal" in="SourceGraphic" in2="BackgroundImageFix" result="shape"/>
<feColorMatrix in="SourceAlpha" type="matrix" values="0 0 0 0 0 0 0 0 0 0 0 0 0 0 0 0 0 0 127 0" result="hardAlpha"/>
<feOffset dy="1.34641"/>
<feGaussianBlur stdDeviation="0.504905"/>
<feComposite in2="hardAlpha" operator="arithmetic" k2="-1" k3="1"/>
<feColorMatrix type="matrix" values="0 0 0 0 0 0 0 0 0 0 0 0 0 0 0 0 0 0 0.26 0"/>
<feBlend mode="normal" in2="shape" result="effect1_innerShadow_687_2947"/>
</filter>
<clipPath id="clip0_687_2947">
<rect width="42.412" height="42.412" fill="white" transform="translate(0.119141 0.693359)"/>
</clipPath>
</defs>
</svg>
