<svg width="100" height="100" viewBox="0 0 100 100" fill="none" xmlns="http://www.w3.org/2000/svg">
<g clip-path="url(#clip0_685_9038)">
<path d="M78.5709 87.5012C79.5571 87.5012 80.3566 86.7017 80.3566 85.7154C80.3566 84.7292 79.5571 83.9297 78.5709 83.9297C77.5847 83.9297 76.7852 84.7292 76.7852 85.7154C76.7852 86.7017 77.5847 87.5012 78.5709 87.5012Z" fill="#FAC17F"/>
<path d="M21.4303 87.5012C22.4165 87.5012 23.216 86.7017 23.216 85.7154C23.216 84.7292 22.4165 83.9297 21.4303 83.9297C20.444 83.9297 19.6445 84.7292 19.6445 85.7154C19.6445 86.7017 20.444 87.5012 21.4303 87.5012Z" fill="#FAC17F"/>
<path d="M30.3572 85.7137C30.3572 80.7826 26.3598 76.7852 21.4287 76.7852C16.4977 76.7852 12.5 80.7826 12.5 85.7137C12.5 90.6447 16.4975 94.6422 21.4285 94.6422C26.3572 94.6363 30.3512 90.6424 30.3572 85.7137ZM16.0715 85.7137C16.0715 82.7551 18.4699 80.3564 21.4287 80.3564C24.3875 80.3564 26.7859 82.7549 26.7859 85.7137C26.7859 88.6723 24.3875 91.0709 21.4287 91.0709C18.4699 91.0709 16.0715 88.6725 16.0715 85.7137Z" fill="#FAC17F"/>
<path d="M33.9285 14.2852C22.0939 14.2852 12.5 23.8791 12.5 35.7137C12.5 47.5482 22.0939 57.1422 33.9285 57.1422C45.7631 57.1422 55.357 47.5482 55.357 35.7137C55.3443 23.8844 45.758 14.2979 33.9285 14.2852ZM44.1197 45.9047C43.4225 46.6018 42.292 46.6018 41.5947 45.9047L32.6662 36.9762C32.3313 36.6414 32.1432 36.1873 32.143 35.7137V19.6422C32.143 18.6561 32.9424 17.8564 33.9287 17.8564C34.915 17.8564 35.7145 18.6559 35.7145 19.6422V34.9744L44.1197 43.3797C44.8168 44.0771 44.8168 45.2074 44.1197 45.9047Z" fill="#F7921E"/>
<path d="M66.0715 5.35742H1.78574C0.799414 5.35742 0 6.15684 0 7.14297V64.2857C0 65.2719 0.799414 66.0715 1.78574 66.0715H67.8572V7.14297C67.8572 6.15684 67.0576 5.35742 66.0715 5.35742ZM33.9285 60.7144C20.1215 60.7144 8.92852 49.5215 8.92852 35.7145C8.92852 21.9074 20.1215 10.7145 33.9285 10.7145C47.7355 10.7145 58.9285 21.9074 58.9285 35.7145C58.9139 49.5154 47.7295 60.6998 33.9285 60.7144Z" fill="#FAC17F"/>
<path d="M91.0703 48.2148H99.9988V51.7863H91.0703V48.2148Z" fill="#FAC17F"/>
<path d="M94.641 76.7873V69.6445H5.35547V76.7873C5.35547 78.7598 6.95449 80.3588 8.92695 80.3588H10.1502C12.2117 75.9977 16.6031 73.2162 21.427 73.2162C26.2508 73.2162 30.6422 75.9977 32.7037 80.3588H67.293C69.3545 75.9977 73.7459 73.2162 78.5697 73.2162C83.3936 73.2162 87.785 75.9977 89.8465 80.3588H91.0697C93.0422 80.3588 94.641 78.7598 94.641 76.7873Z" fill="#FAC17F"/>
<path d="M82.1445 28.5709V35.7137C82.1445 36.6998 82.9439 37.4994 83.9303 37.4994H100.002V26.7852H83.9303C82.9441 26.7852 82.1445 27.5846 82.1445 28.5709Z" fill="#FAC17F"/>
<path d="M78.5725 35.7152V28.5725C78.5725 25.6139 80.9709 23.2152 83.9297 23.2152H97.4762L90.8564 16.5955C90.5217 16.2605 90.0676 16.0725 89.5939 16.0723H73.2154C72.2293 16.0723 71.4297 16.8717 71.4297 17.858V66.0723H98.2154C99.2016 66.0723 100.001 65.2729 100.001 64.2865V55.358H91.0727C89.1002 55.358 87.5012 53.759 87.5012 51.7865V48.215C87.5012 46.2426 89.1002 44.6436 91.0727 44.6436H100.001V41.0721H83.9295C80.9709 41.0725 78.5725 38.674 78.5725 35.7152ZM82.1438 48.2152H78.5723C77.5861 48.2152 76.7865 47.4158 76.7865 46.4295C76.7865 45.4432 77.5859 44.6437 78.5723 44.6437H82.1438C83.1299 44.6437 83.9295 45.4432 83.9295 46.4295C83.9295 47.4158 83.1301 48.2152 82.1438 48.2152Z" fill="#FAC17F"/>
<path d="M78.5691 94.6422C83.5002 94.6422 87.4977 90.6447 87.4977 85.7137C87.4977 80.7826 83.5002 76.7852 78.5691 76.7852C73.6381 76.7852 69.6406 80.7826 69.6406 85.7137C69.6465 90.6424 73.6404 94.6363 78.5691 94.6422ZM78.5691 80.3566C81.5277 80.3566 83.9264 82.7551 83.9264 85.7139C83.9264 88.6725 81.5279 91.0711 78.5691 91.0711C75.6104 91.0711 73.2119 88.6727 73.2119 85.7139C73.2119 82.7551 75.6104 80.3566 78.5691 80.3566Z" fill="#FAC17F"/>
</g>
<defs>
<clipPath id="clip0_685_9038">
<rect width="100" height="100" fill="white"/>
</clipPath>
</defs>
</svg>
