<svg width="100" height="100" viewBox="0 0 100 100" fill="none" xmlns="http://www.w3.org/2000/svg">
<path d="M98.7781 47.0532L81.3785 29.6536C64.0788 12.3498 35.9211 12.3498 18.6214 29.6536L1.2218 47.0532C-0.407267 48.6823 -0.407267 51.3156 1.2218 52.9447L18.6214 70.3443C27.2712 78.9941 38.6335 83.3231 49.9999 83.3231C61.3662 83.3231 72.7285 78.9941 81.3783 70.3443L98.7779 52.9447C100.407 51.3156 100.407 48.6823 98.7781 47.0532ZM49.9999 70.8318C38.5126 70.8318 29.1669 61.4861 29.1669 49.9988C29.1669 38.5116 38.5126 29.1659 49.9999 29.1659C61.4871 29.1659 70.8328 38.5116 70.8328 49.9988C70.8328 61.4861 61.4871 70.8318 49.9999 70.8318Z" fill="#FAC17F"/>
<path d="M49.9997 37.5C43.1083 37.5 37.5 43.1083 37.5 49.9997C37.5 56.8912 43.1083 62.4995 49.9997 62.4995C56.8912 62.4995 62.4995 56.8912 62.4995 49.9997C62.4995 43.1083 56.8914 37.5 49.9997 37.5Z" fill="#F7921E"/>
</svg>
