<svg width="94" height="94" viewBox="0 0 94 94" fill="none" xmlns="http://www.w3.org/2000/svg">
<path d="M63.67 47.976L47.98 63.666H37.6133L63.67 37.6094V47.976Z" fill="#F7921E"/>
<path d="M63.672 52.6875V53.6642C63.6693 56.3155 62.6149 58.8575 60.7401 60.7323C58.8653 62.6071 56.3233 63.6615 53.672 63.6642H52.6953L63.672 52.6875Z" fill="#F7921E"/>
<path d="M63.6693 32.8954L32.8993 63.6654H30.3359V53.4837L53.4876 30.332H63.6693V32.8954Z" fill="#F7921E"/>
<path d="M40.3359 30.332H48.7726L30.3359 48.7687V40.332C30.3386 37.6807 31.393 35.1387 33.2678 33.2639C35.1426 31.3891 37.6846 30.3347 40.3359 30.332Z" fill="#F7921E"/>
<path d="M56.8203 26.9968L63.6686 20.1484V26.9968H56.8203Z" fill="#F7921E"/>
<path d="M63.6664 15.4358L52.103 26.9991H40.333C39.9864 26.9991 39.6447 27.0258 39.3047 27.0508L61.8047 4.55078C63.0136 6.2364 63.6646 8.25814 63.6664 10.3324V15.4358Z" fill="#F7921E"/>
<path d="M0.335938 16.022L16.0259 0.332031H26.3926L0.335938 26.3887V16.022Z" fill="#F7921E"/>
<path d="M0.335938 31.102L31.1059 0.332031H43.8509L0.335938 43.847V31.102Z" fill="#F7921E"/>
<path d="M10.3359 0.332031H11.3126L0.335938 11.3087V10.332C0.338585 7.68068 1.393 5.13868 3.26779 3.26389C5.14258 1.3891 7.68458 0.334679 10.3359 0.332031Z" fill="#F7921E"/>
<path d="M0.335938 48.562L48.5643 0.332031H53.6693C55.7444 0.33213 57.7673 0.981975 59.4543 2.19036L2.19427 59.4504C0.985882 57.7634 0.336036 55.7405 0.335938 53.6654V48.562Z" fill="#F7921E"/>
<path d="M4.55078 61.8066L27.0508 39.3066C27.0258 39.64 26.9991 39.9883 26.9991 40.335V52.105L15.4391 63.665H10.3358C8.2607 63.6649 6.23772 63.015 4.55078 61.8066Z" fill="#F7921E"/>
<path d="M20.1523 63.6647L27.0007 56.8164V63.6647H20.1523Z" fill="#F7921E"/>
<path d="M93.6693 83.6654C93.6666 86.3167 92.6122 88.8587 90.7374 90.7335C88.8626 92.6083 86.3206 93.6627 83.6693 93.6654H40.3359C37.6846 93.6627 35.1426 92.6083 33.2678 90.7335C31.393 88.8587 30.3386 86.3167 30.3359 83.6654V66.9987H53.6693C57.2043 66.9947 60.5934 65.5887 63.093 63.0891C65.5926 60.5894 66.9986 57.2004 67.0026 53.6654V30.332H83.6693C86.3206 30.3347 88.8626 31.3891 90.7374 33.2639C92.6122 35.1387 93.6666 37.6807 93.6693 40.332V83.6654Z" fill="#FAC17F"/>
</svg>
