<svg width="31" height="32" viewBox="0 0 31 32" fill="none" xmlns="http://www.w3.org/2000/svg">
<g clip-path="url(#clip0_687_2907)">
<path d="M5.107 3.38086H25.9816C27.1298 3.38086 28.0691 4.32012 28.0691 5.46832V26.343C28.0691 27.4912 27.1298 28.4304 25.9816 28.4304H5.107C3.95904 28.4304 3.01953 27.4912 3.01953 26.343V5.46832C3.01953 4.32012 3.95904 3.38086 5.107 3.38086Z" fill="#E9E9E9"/>
<path d="M21.2594 11.2088C21.2594 16.9733 16.5866 21.6461 10.8221 21.6461C5.05786 21.6461 0.384766 16.9733 0.384766 11.2088C0.384766 5.44432 5.05786 0.771484 10.8221 0.771484C16.5866 0.771484 21.2594 5.44432 21.2594 11.2088Z" fill="#F7921E"/>
<path d="M19.1724 11.2092C19.1724 15.8207 15.4339 19.5591 10.8225 19.5591C6.21108 19.5591 2.47266 15.8207 2.47266 11.2092C2.47266 6.5978 6.21108 2.85938 10.8225 2.85938C15.4339 2.85938 19.1724 6.5978 19.1724 11.2092Z" fill="#FAC17F"/>
<path d="M5.10742 11.2093C8.02992 14.3928 12.9354 14.6015 16.1188 11.679C16.2753 11.5225 16.432 11.3658 16.5885 11.2093C13.666 8.0259 8.76048 7.81721 5.57705 10.7397C5.42059 10.8962 5.26413 11.0529 5.10742 11.2093Z" fill="#E9E9E9"/>
<path d="M21.8066 5.46875H26.5034V6.51248H21.8066V5.46875Z" fill="#C4C4C4"/>
<path d="M22.8516 8.07812H26.5046V9.12186H22.8516V8.07812Z" fill="#C4C4C4"/>
<path d="M22.8516 10.6875H26.5046V11.7312H22.8516V10.6875Z" fill="#C4C4C4"/>
<path d="M22.8516 13.2969H26.5046V14.3406H22.8516V13.2969Z" fill="#C4C4C4"/>
<path d="M22.8516 15.9062H26.5046V16.95H22.8516V15.9062Z" fill="#C4C4C4"/>
<path d="M23.373 18.5156H26.5042V19.5594H23.373V18.5156Z" fill="#C4C4C4"/>
<path d="M4.58594 23.2109H18.6763V24.2547H4.58594V23.2109Z" fill="#C4C4C4"/>
<path d="M4.58594 25.2988H20.7638V26.3426H4.58594V25.2988Z" fill="#C4C4C4"/>
<path d="M7.19531 15.9047C7.19531 15.6165 7.42896 15.3828 7.71718 15.3828H13.9796C14.2678 15.3828 14.5014 15.6165 14.5014 15.9047C14.5014 16.1929 14.2678 16.4265 13.9796 16.4265H7.71718C7.42896 16.4265 7.19531 16.1929 7.19531 15.9047Z" fill="#F7921E"/>
<path d="M7.19531 6.5121C7.19531 6.22388 7.42896 5.99023 7.71718 5.99023H13.9796C14.2678 5.99023 14.5014 6.22388 14.5014 6.5121C14.5014 6.80032 14.2678 7.03397 13.9796 7.03397H7.71718C7.42896 7.03397 7.19531 6.80032 7.19531 6.5121Z" fill="#F7921E"/>
<path d="M19.1984 17.4707L23.3733 22.1675H23.9997C24.2606 22.1675 24.5215 22.272 24.7302 22.4807L30.1576 27.908C30.523 28.2734 30.6795 28.7431 30.6795 29.2127C30.6795 30.2564 29.8444 31.0392 28.8529 31.0392C28.3833 31.0392 27.9137 30.8305 27.5483 30.5173L22.1209 25.09C21.9122 24.8813 21.8077 24.6204 21.8077 24.3594V23.7331L17.6328 19.0363" fill="#3F3F3F"/>
<path d="M12.4124 11.2082C12.4124 12.0728 11.7114 12.7738 10.8468 12.7738C9.98225 12.7738 9.28125 12.0728 9.28125 11.2082C9.28125 10.3436 9.98225 9.64258 10.8468 9.64258C11.7114 9.64258 12.4124 10.3436 12.4124 11.2082Z" fill="#4A4A56"/>
<path d="M30.6803 29.2132C30.6803 28.7435 30.4716 28.2739 30.1584 27.9085L24.7311 22.4811C24.5224 22.2724 24.2615 22.168 24.0005 22.168H23.3742L21.8086 23.7336V24.3599C21.8086 24.6208 21.9131 24.8818 22.1218 25.0905L27.5491 30.5178C28.2797 31.2484 29.4279 31.2484 30.1584 30.5178C30.4716 30.1524 30.6803 29.6828 30.6803 29.2132Z" fill="#2B2B2B"/>
</g>
<defs>
<clipPath id="clip0_687_2907">
<rect width="30.2943" height="30.2943" fill="white" transform="translate(0.384766 0.771484)"/>
</clipPath>
</defs>
</svg>
