<svg width="22" height="19" viewBox="0 0 22 19" fill="none" xmlns="http://www.w3.org/2000/svg">
<g clip-path="url(#clip0_685_10371)">
<g filter="url(#filter0_i_685_10371)">
<path fill-rule="evenodd" clip-rule="evenodd" d="M16.2262 5.9655H19.5205V5.46598C19.0049 3.54492 17.6943 3.55745 16.0741 3.57357C15.8073 3.57715 15.5656 3.57894 15.5513 3.57894H3.23714C2.95426 3.57894 2.7251 3.34977 2.7251 3.06689C2.7251 2.78402 2.95426 2.55485 3.23714 2.55485H15.5513C15.9147 2.55485 15.9917 2.55485 16.0651 2.55306C17.4508 2.53874 18.6611 2.5262 19.5205 3.33724V3.1027C19.5205 2.52979 19.286 2.01058 18.9082 1.63281C18.5304 1.25505 18.0094 1.02051 17.4383 1.02051H3.10645C2.53353 1.02051 2.01432 1.25505 1.63656 1.63281C1.25879 2.01058 1.02425 2.53158 1.02425 3.1027V15.0337C1.02425 15.6066 1.25879 16.1258 1.63656 16.5036C2.01432 16.8813 2.53532 17.1159 3.10645 17.1159H17.4365C18.0094 17.1159 18.5286 16.8813 18.9064 16.5036C19.2842 16.1258 19.5187 15.6048 19.5187 15.0337V13.34H16.2244C15.2308 13.34 14.3267 12.9336 13.6732 12.2801C13.0197 11.6266 12.6133 10.7225 12.6133 9.72884V9.57308C12.6133 8.57943 13.0197 7.67529 13.6732 7.02181C14.3285 6.37191 15.2308 5.9655 16.2262 5.9655ZM20.5428 5.98519C20.9134 6.04069 21.2446 6.21615 21.4971 6.47038C21.8086 6.7819 22.0002 7.21159 22.0002 7.68425V11.5514C22.0002 12.0456 21.7996 12.4932 21.4756 12.8172C21.2267 13.0661 20.9027 13.2433 20.5428 13.3114V15.0355C20.5428 15.8895 20.1937 16.6665 19.6315 17.2287C19.0693 17.7909 18.2923 18.14 17.4383 18.14H3.10645C2.25244 18.14 1.47542 17.7909 0.913249 17.2287C0.351074 16.6683 0.00195312 15.8913 0.00195312 15.0373V3.10449C0.00195312 2.25049 0.351074 1.47347 0.913249 0.911296C1.47542 0.349121 2.25244 0 3.10645 0H17.4365C18.2905 0 19.0675 0.349121 19.6297 0.911296C20.1919 1.47347 20.541 2.25049 20.541 3.10449V5.98519H20.5428ZM15.7822 8.25537C16.5073 8.25537 17.0946 8.84261 17.0946 9.56771C17.0946 10.2928 16.5073 10.88 15.7822 10.88C15.0571 10.88 14.4699 10.2928 14.4699 9.56771C14.4699 8.84261 15.0571 8.25537 15.7822 8.25537Z" fill="#EE8D1D"/>
</g>
</g>
<defs>
<filter id="filter0_i_685_10371" x="0.00195312" y="0" width="21.998" height="22.1406" filterUnits="userSpaceOnUse" color-interpolation-filters="sRGB">
<feFlood flood-opacity="0" result="BackgroundImageFix"/>
<feBlend mode="normal" in="SourceGraphic" in2="BackgroundImageFix" result="shape"/>
<feColorMatrix in="SourceAlpha" type="matrix" values="0 0 0 0 0 0 0 0 0 0 0 0 0 0 0 0 0 0 127 0" result="hardAlpha"/>
<feOffset dy="4"/>
<feGaussianBlur stdDeviation="2"/>
<feComposite in2="hardAlpha" operator="arithmetic" k2="-1" k3="1"/>
<feColorMatrix type="matrix" values="0 0 0 0 0 0 0 0 0 0 0 0 0 0 0 0 0 0 0.25 0"/>
<feBlend mode="normal" in2="shape" result="effect1_innerShadow_685_10371"/>
</filter>
<clipPath id="clip0_685_10371">
<rect width="22" height="18.1418" fill="white"/>
</clipPath>
</defs>
</svg>
