<svg width="35" height="35" viewBox="0 0 35 35" fill="none" xmlns="http://www.w3.org/2000/svg">
<g clip-path="url(#clip0_685_10261)">
<path d="M18.6379 16.92L26.2891 27.8641H23.1491L16.9055 18.9337V18.9332L15.9888 17.6222L8.69531 7.18945H11.8354L17.7212 15.6091L18.6379 16.92Z" fill="black"/>
<path d="M30.8262 0.5H4.17377C2.14486 0.5 0.5 2.14486 0.5 4.17377V30.8262C0.5 32.8551 2.14486 34.5 4.17377 34.5H30.8262C32.8551 34.5 34.5 32.8551 34.5 30.8262V4.17377C34.5 2.14486 32.8551 0.5 30.8262 0.5ZM22.1863 29.3327L15.8682 20.1374L7.95783 29.3327H5.9134L14.9604 18.8168L5.9134 5.64988H12.8137L18.7965 14.3571L26.2871 5.64988H28.3315L19.7046 15.6781H19.704L29.0866 29.3327H22.1863Z" fill="black"/>
</g>
<defs>
<clipPath id="clip0_685_10261">
<rect width="34" height="34" fill="white" transform="translate(0.5 0.5)"/>
</clipPath>
</defs>
</svg>
