<svg width="35" height="35" viewBox="0 0 35 35" fill="none" xmlns="http://www.w3.org/2000/svg">
<g clip-path="url(#clip0_685_10272)">
<path d="M27.4386 5.4707H7.56136C3.66148 5.4707 0.5 8.63218 0.5 12.5321V22.4686C0.5 26.3685 3.66148 29.53 7.56136 29.53H27.4386C31.3385 29.53 34.5 26.3685 34.5 22.4686V12.5321C34.5 8.63218 31.3385 5.4707 27.4386 5.4707ZM22.6631 17.9838L13.3658 22.418C13.1181 22.5362 12.8319 22.3555 12.8319 22.0811V12.9355C12.8319 12.6572 13.1256 12.4768 13.3739 12.6026L22.6711 17.314C22.9475 17.454 22.9428 17.8504 22.6631 17.9838Z" fill="#F61C0D"/>
</g>
<defs>
<clipPath id="clip0_685_10272">
<rect width="34" height="34" fill="white" transform="translate(0.5 0.5)"/>
</clipPath>
</defs>
</svg>
